<?xml version="1.0" encoding="UTF-8"?>
<svg xmlns="http://www.w3.org/2000/svg" xmlns:xlink="http://www.w3.org/1999/xlink" width="798.776" height="409.012" viewBox="0 0 798.776 409.012">
<defs>
<clipPath id="clip-0">
<path clip-rule="nonzero" d="M 270 305 L 387 305 L 387 409.011719 L 270 409.011719 Z M 270 305 "/>
</clipPath>
<clipPath id="clip-1">
<path clip-rule="nonzero" d="M 483 305 L 600 305 L 600 409.011719 L 483 409.011719 Z M 483 305 "/>
</clipPath>
<clipPath id="clip-2">
<path clip-rule="nonzero" d="M 553 305 L 671 305 L 671 409.011719 L 553 409.011719 Z M 553 305 "/>
</clipPath>
<clipPath id="clip-3">
<path clip-rule="nonzero" d="M 695 305 L 798.777344 305 L 798.777344 409.011719 L 695 409.011719 Z M 695 305 "/>
</clipPath>
</defs>
<path fill="none" stroke-width="1.99255" stroke-linecap="butt" stroke-linejoin="miter" stroke="rgb(0%, 0%, 0%)" stroke-opacity="1" stroke-miterlimit="10" d="M 29.88875 -0.00159375 C 29.88875 16.506219 16.505938 29.889031 -0.001875 29.889031 C -16.505781 29.889031 -29.888594 16.506219 -29.888594 -0.00159375 C -29.888594 -16.5055 -16.505781 -29.888312 -0.001875 -29.888312 C 16.505938 -29.888312 29.88875 -16.5055 29.88875 -0.00159375 Z M 29.88875 -0.00159375 " transform="matrix(1, 0, 0, -1, 363.955, 45.057)"/>
<path fill="none" stroke-width="1.99255" stroke-linecap="butt" stroke-linejoin="miter" stroke="rgb(0%, 0%, 0%)" stroke-opacity="1" stroke-miterlimit="10" d="M -182.712812 -106.302375 C -182.712812 -89.794562 -196.095625 -76.41175 -212.599531 -76.41175 C -229.107344 -76.41175 -242.490156 -89.794562 -242.490156 -106.302375 C -242.490156 -122.806281 -229.107344 -136.189094 -212.599531 -136.189094 C -196.095625 -136.189094 -182.712812 -122.806281 -182.712812 -106.302375 Z M -182.712812 -106.302375 " transform="matrix(1, 0, 0, -1, 363.955, 45.057)"/>
<path fill="none" stroke-width="1.99255" stroke-linecap="butt" stroke-linejoin="miter" stroke="rgb(0%, 0%, 0%)" stroke-opacity="1" stroke-miterlimit="10" d="M -27.583906 -13.790656 L -184.974531 -92.485969 " transform="matrix(1, 0, 0, -1, 363.955, 45.057)"/>
<path fill="none" stroke-width="1.99255" stroke-linecap="butt" stroke-linejoin="miter" stroke="rgb(0%, 0%, 0%)" stroke-opacity="1" stroke-miterlimit="10" d="M -289.013594 -212.59925 C -289.013594 -196.095344 -302.396406 -182.712531 -318.900312 -182.712531 C -335.408125 -182.712531 -348.790937 -196.095344 -348.790937 -212.59925 C -348.790937 -229.107062 -335.408125 -242.489875 -318.900312 -242.489875 C -302.396406 -242.489875 -289.013594 -229.107062 -289.013594 -212.59925 Z M -289.013594 -212.59925 " transform="matrix(1, 0, 0, -1, 363.955, 45.057)"/>
<path fill="none" stroke-width="1.99255" stroke-linecap="butt" stroke-linejoin="miter" stroke="rgb(0%, 0%, 0%)" stroke-opacity="1" stroke-miterlimit="10" d="M -234.42375 -128.122687 L -297.056562 -190.759406 " transform="matrix(1, 0, 0, -1, 363.955, 45.057)"/>
<path fill="none" stroke-width="1.99255" stroke-linecap="butt" stroke-linejoin="miter" stroke="rgb(0%, 0%, 0%)" stroke-opacity="1" stroke-miterlimit="10" d="M -76.412031 -212.59925 C -76.412031 -196.095344 -89.794844 -182.712531 -106.29875 -182.712531 C -122.806562 -182.712531 -136.189375 -196.095344 -136.189375 -212.59925 C -136.189375 -229.107062 -122.806562 -242.489875 -106.29875 -242.489875 C -89.794844 -242.489875 -76.412031 -229.107062 -76.412031 -212.59925 Z M -76.412031 -212.59925 " transform="matrix(1, 0, 0, -1, 363.955, 45.057)"/>
<path fill="none" stroke-width="1.99255" stroke-linecap="butt" stroke-linejoin="miter" stroke="rgb(0%, 0%, 0%)" stroke-opacity="1" stroke-miterlimit="10" d="M -190.779219 -128.122687 L -128.1425 -190.759406 " transform="matrix(1, 0, 0, -1, 363.955, 45.057)"/>
<g clip-path="url(#clip-0)">
<path fill="none" stroke-width="1.99255" stroke-linecap="butt" stroke-linejoin="miter" stroke="rgb(0%, 0%, 0%)" stroke-opacity="1" stroke-miterlimit="10" d="M -5.544844 -318.900031 C -5.544844 -302.396125 -18.927656 -289.013312 -35.431562 -289.013312 C -51.939375 -289.013312 -65.322187 -302.396125 -65.322187 -318.900031 C -65.322187 -335.407844 -51.939375 -348.790656 -35.431562 -348.790656 C -18.927656 -348.790656 -5.544844 -335.407844 -5.544844 -318.900031 Z M -5.544844 -318.900031 " transform="matrix(1, 0, 0, -1, 363.955, 45.057)"/>
</g>
<path fill="none" stroke-width="1.99255" stroke-linecap="butt" stroke-linejoin="miter" stroke="rgb(0%, 0%, 0%)" stroke-opacity="1" stroke-miterlimit="10" d="M -89.181562 -238.278937 L -52.568281 -293.200812 " transform="matrix(1, 0, 0, -1, 363.955, 45.057)"/>
<path fill="none" stroke-width="1.99255" stroke-linecap="butt" stroke-linejoin="miter" stroke="rgb(0%, 0%, 0%)" stroke-opacity="1" stroke-miterlimit="10" d="M 242.490313 -106.302375 C 242.490313 -89.794562 229.1075 -76.41175 212.599688 -76.41175 C 196.095781 -76.41175 182.712969 -89.794562 182.712969 -106.302375 C 182.712969 -122.806281 196.095781 -136.189094 212.599688 -136.189094 C 229.1075 -136.189094 242.490313 -122.806281 242.490313 -106.302375 Z M 242.490313 -106.302375 " transform="matrix(1, 0, 0, -1, 363.955, 45.057)"/>
<path fill="none" stroke-width="1.99255" stroke-linecap="butt" stroke-linejoin="miter" stroke="rgb(0%, 0%, 0%)" stroke-opacity="1" stroke-miterlimit="10" d="M 27.584063 -13.790656 L 184.974688 -92.485969 " transform="matrix(1, 0, 0, -1, 363.955, 45.057)"/>
<path fill="none" stroke-width="1.99255" stroke-linecap="butt" stroke-linejoin="miter" stroke="rgb(0%, 0%, 0%)" stroke-opacity="1" stroke-miterlimit="10" d="M 136.189531 -212.59925 C 136.189531 -196.095344 122.806719 -182.712531 106.298906 -182.712531 C 89.795 -182.712531 76.412188 -196.095344 76.412188 -212.59925 C 76.412188 -229.107062 89.795 -242.489875 106.298906 -242.489875 C 122.806719 -242.489875 136.189531 -229.107062 136.189531 -212.59925 Z M 136.189531 -212.59925 " transform="matrix(1, 0, 0, -1, 363.955, 45.057)"/>
<path fill="none" stroke-width="1.99255" stroke-linecap="butt" stroke-linejoin="miter" stroke="rgb(0%, 0%, 0%)" stroke-opacity="1" stroke-miterlimit="10" d="M 190.779375 -128.122687 L 128.142656 -190.759406 " transform="matrix(1, 0, 0, -1, 363.955, 45.057)"/>
<g clip-path="url(#clip-1)">
<path fill="none" stroke-width="1.99255" stroke-linecap="butt" stroke-linejoin="miter" stroke="rgb(0%, 0%, 0%)" stroke-opacity="1" stroke-miterlimit="10" d="M 207.056719 -318.900031 C 207.056719 -302.396125 193.673906 -289.013312 177.166094 -289.013312 C 160.662188 -289.013312 147.279375 -302.396125 147.279375 -318.900031 C 147.279375 -335.407844 160.662188 -348.790656 177.166094 -348.790656 C 193.673906 -348.790656 207.056719 -335.407844 207.056719 -318.900031 Z M 207.056719 -318.900031 " transform="matrix(1, 0, 0, -1, 363.955, 45.057)"/>
</g>
<path fill="none" stroke-width="1.99255" stroke-linecap="butt" stroke-linejoin="miter" stroke="rgb(0%, 0%, 0%)" stroke-opacity="1" stroke-miterlimit="10" d="M 123.42 -238.278937 L 160.033281 -293.200812 " transform="matrix(1, 0, 0, -1, 363.955, 45.057)"/>
<path fill="none" stroke-width="1.99255" stroke-linecap="butt" stroke-linejoin="miter" stroke="rgb(0%, 0%, 0%)" stroke-opacity="1" stroke-miterlimit="10" d="M 348.791094 -212.59925 C 348.791094 -196.095344 335.408281 -182.712531 318.900469 -182.712531 C 302.396563 -182.712531 289.01375 -196.095344 289.01375 -212.59925 C 289.01375 -229.107062 302.396563 -242.489875 318.900469 -242.489875 C 335.408281 -242.489875 348.791094 -229.107062 348.791094 -212.59925 Z M 348.791094 -212.59925 " transform="matrix(1, 0, 0, -1, 363.955, 45.057)"/>
<path fill="none" stroke-width="1.99255" stroke-linecap="butt" stroke-linejoin="miter" stroke="rgb(0%, 0%, 0%)" stroke-opacity="1" stroke-miterlimit="10" d="M 234.42 -128.122687 L 297.056719 -190.759406 " transform="matrix(1, 0, 0, -1, 363.955, 45.057)"/>
<g clip-path="url(#clip-2)">
<path fill="none" stroke-width="1.99255" stroke-linecap="butt" stroke-linejoin="miter" stroke="rgb(0%, 0%, 0%)" stroke-opacity="1" stroke-miterlimit="10" d="M 277.923906 -318.900031 C 277.923906 -302.396125 264.541094 -289.013312 248.033281 -289.013312 C 231.529375 -289.013312 218.146563 -302.396125 218.146563 -318.900031 C 218.146563 -335.407844 231.529375 -348.790656 248.033281 -348.790656 C 264.541094 -348.790656 277.923906 -335.407844 277.923906 -318.900031 Z M 277.923906 -318.900031 " transform="matrix(1, 0, 0, -1, 363.955, 45.057)"/>
</g>
<path fill="none" stroke-width="1.99255" stroke-linecap="butt" stroke-linejoin="miter" stroke="rgb(0%, 0%, 0%)" stroke-opacity="1" stroke-miterlimit="10" d="M 301.783281 -238.278937 L 265.17 -293.200812 " transform="matrix(1, 0, 0, -1, 363.955, 45.057)"/>
<g clip-path="url(#clip-3)">
<path fill="none" stroke-width="1.99255" stroke-linecap="butt" stroke-linejoin="miter" stroke="rgb(0%, 0%, 0%)" stroke-opacity="1" stroke-miterlimit="10" d="M 419.658281 -318.900031 C 419.658281 -302.396125 406.275469 -289.013312 389.767656 -289.013312 C 373.26375 -289.013312 359.880938 -302.396125 359.880938 -318.900031 C 359.880938 -335.407844 373.26375 -348.790656 389.767656 -348.790656 C 406.275469 -348.790656 419.658281 -335.407844 419.658281 -318.900031 Z M 419.658281 -318.900031 " transform="matrix(1, 0, 0, -1, 363.955, 45.057)"/>
</g>
<path fill="none" stroke-width="1.99255" stroke-linecap="butt" stroke-linejoin="miter" stroke="rgb(0%, 0%, 0%)" stroke-opacity="1" stroke-miterlimit="10" d="M 336.021563 -238.278937 L 372.634844 -293.200812 " transform="matrix(1, 0, 0, -1, 363.955, 45.057)"/>
</svg>
