<?xml version="1.0" encoding="UTF-8" standalone="no"?>
<!DOCTYPE svg PUBLIC "-//W3C//DTD SVG 1.1//EN"
 "http://www.w3.org/Graphics/SVG/1.1/DTD/svg11.dtd">
<!-- Generated by graphviz version 10.0.1 (0)
 -->
<!-- Title: rebb Pages: 1 -->
<svg width="262pt" height="324pt"
 viewBox="0.00 0.00 261.96 324.00" xmlns="http://www.w3.org/2000/svg" xmlns:xlink="http://www.w3.org/1999/xlink">
<g id="graph0" class="graph" transform="scale(1.7234 1.7234) rotate(0) translate(4 184)">
<title>rebb</title>
<polygon fill="white" stroke="none" points="-4,4 -4,-184 148,-184 148,4 -4,4"/>
<!-- a -->
<g id="node1" class="node">
<title>a</title>
<ellipse fill="none" stroke="black" cx="27" cy="-162" rx="27" ry="18"/>
<text text-anchor="middle" x="27" y="-157.32" font-family="Times,serif" font-size="14.00">a</text>
</g>
<!-- a&#45;&gt;a -->
<g id="edge1" class="edge">
<title>a&#45;&gt;a</title>
<path fill="none" stroke="black" d="M46.9,-174.43C59.69,-177.68 72,-173.53 72,-162 72,-153.98 66.05,-149.54 58.12,-148.66"/>
<polygon fill="black" stroke="black" points="58.09,-145.15 48.4,-149.45 58.65,-152.13 58.09,-145.15"/>
</g>
<!-- b -->
<g id="node2" class="node">
<title>b</title>
<ellipse fill="none" stroke="black" cx="27" cy="-90" rx="27" ry="18"/>
<text text-anchor="middle" x="27" y="-85.33" font-family="Times,serif" font-size="14.00">b</text>
</g>
<!-- a&#45;&gt;b -->
<g id="edge2" class="edge">
<title>a&#45;&gt;b</title>
<path fill="none" stroke="black" d="M21.12,-144.05C20.33,-136.57 20.08,-127.58 20.37,-119.14"/>
<polygon fill="black" stroke="black" points="23.85,-119.51 21.04,-109.3 16.87,-119.04 23.85,-119.51"/>
</g>
<!-- b&#45;&gt;a -->
<g id="edge3" class="edge">
<title>b&#45;&gt;a</title>
<path fill="none" stroke="black" d="M32.86,-107.79C33.66,-115.25 33.92,-124.24 33.64,-132.69"/>
<polygon fill="black" stroke="black" points="30.16,-132.33 32.98,-142.54 37.14,-132.8 30.16,-132.33"/>
</g>
<!-- c -->
<g id="node3" class="node">
<title>c</title>
<ellipse fill="none" stroke="black" cx="27" cy="-18" rx="27" ry="18"/>
<text text-anchor="middle" x="27" y="-13.32" font-family="Times,serif" font-size="14.00">c</text>
</g>
<!-- b&#45;&gt;c -->
<g id="edge4" class="edge">
<title>b&#45;&gt;c</title>
<path fill="none" stroke="black" d="M27,-71.7C27,-64.41 27,-55.73 27,-47.54"/>
<polygon fill="black" stroke="black" points="30.5,-47.62 27,-37.62 23.5,-47.62 30.5,-47.62"/>
</g>
<!-- d -->
<g id="node4" class="node">
<title>d</title>
<ellipse fill="none" stroke="black" cx="117" cy="-162" rx="27" ry="18"/>
<text text-anchor="middle" x="117" y="-157.32" font-family="Times,serif" font-size="14.00">d</text>
</g>
</g>
</svg>
