<?xml version="1.0" encoding="UTF-8" standalone="no"?>
<!DOCTYPE svg PUBLIC "-//W3C//DTD SVG 1.1//EN"
 "http://www.w3.org/Graphics/SVG/1.1/DTD/svg11.dtd">
<!-- Generated by graphviz version 10.0.1 (0)
 -->
<!-- Title: rebb Pages: 1 -->
<svg width="324pt" height="221pt"
 viewBox="0.00 0.00 324.00 221.08" xmlns="http://www.w3.org/2000/svg" xmlns:xlink="http://www.w3.org/1999/xlink">
<g id="graph0" class="graph" transform="scale(1.90588 1.90588) rotate(0) translate(4 112)">
<title>rebb</title>
<polygon fill="white" stroke="none" points="-4,4 -4,-112 166,-112 166,4 -4,4"/>
<!-- a -->
<g id="node1" class="node">
<title>a</title>
<ellipse fill="none" stroke="black" cx="27" cy="-18" rx="27" ry="18"/>
<text text-anchor="middle" x="27" y="-13.32" font-family="Times,serif" font-size="14.00">a</text>
</g>
<!-- a&#45;&gt;a -->
<g id="edge1" class="edge">
<title>a&#45;&gt;a</title>
<path fill="none" stroke="black" d="M46.9,-30.43C59.69,-33.68 72,-29.53 72,-18 72,-9.98 66.05,-5.54 58.12,-4.66"/>
<polygon fill="black" stroke="black" points="58.09,-1.15 48.4,-5.45 58.65,-8.13 58.09,-1.15"/>
</g>
<!-- b -->
<g id="node2" class="node">
<title>b</title>
<ellipse fill="none" stroke="black" cx="117" cy="-90" rx="27" ry="18"/>
<text text-anchor="middle" x="117" y="-85.33" font-family="Times,serif" font-size="14.00">b</text>
</g>
<!-- b&#45;&gt;a -->
<g id="edge4" class="edge">
<title>b&#45;&gt;a</title>
<path fill="none" stroke="black" d="M100.07,-75.83C86.83,-65.54 68.19,-51.04 53.05,-39.26"/>
<polygon fill="black" stroke="black" points="55.4,-36.65 45.35,-33.27 51.1,-42.18 55.4,-36.65"/>
</g>
<!-- b&#45;&gt;b -->
<g id="edge2" class="edge">
<title>b&#45;&gt;b</title>
<path fill="none" stroke="black" d="M136.9,-102.43C149.69,-105.68 162,-101.53 162,-90 162,-81.98 156.05,-77.54 148.12,-76.66"/>
<polygon fill="black" stroke="black" points="148.09,-73.15 138.4,-77.45 148.65,-80.13 148.09,-73.15"/>
</g>
<!-- c -->
<g id="node3" class="node">
<title>c</title>
<ellipse fill="none" stroke="black" cx="117" cy="-18" rx="27" ry="18"/>
<text text-anchor="middle" x="117" y="-13.32" font-family="Times,serif" font-size="14.00">c</text>
</g>
<!-- b&#45;&gt;c -->
<g id="edge5" class="edge">
<title>b&#45;&gt;c</title>
<path fill="none" stroke="black" d="M111.12,-72.05C110.33,-64.57 110.08,-55.58 110.37,-47.14"/>
<polygon fill="black" stroke="black" points="113.85,-47.51 111.04,-37.3 106.87,-47.04 113.85,-47.51"/>
</g>
<!-- c&#45;&gt;b -->
<g id="edge6" class="edge">
<title>c&#45;&gt;b</title>
<path fill="none" stroke="black" d="M122.86,-35.79C123.66,-43.25 123.92,-52.24 123.64,-60.69"/>
<polygon fill="black" stroke="black" points="120.16,-60.33 122.98,-70.54 127.14,-60.8 120.16,-60.33"/>
</g>
<!-- c&#45;&gt;c -->
<g id="edge3" class="edge">
<title>c&#45;&gt;c</title>
<path fill="none" stroke="black" d="M136.9,-30.43C149.69,-33.68 162,-29.53 162,-18 162,-9.98 156.05,-5.54 148.12,-4.66"/>
<polygon fill="black" stroke="black" points="148.09,-1.15 138.4,-5.45 148.65,-8.13 148.09,-1.15"/>
</g>
</g>
</svg>
