<?xml version="1.0" encoding="us-ascii" standalone="no"?><svg xmlns="http://www.w3.org/2000/svg" xmlns:xlink="http://www.w3.org/1999/xlink" contentStyleType="text/css" height="647.5694px" preserveAspectRatio="none" style="width:501px;height:647px;background:#FFFFFF;" version="1.1" viewBox="0 0 501 647" width="501.7361px" zoomAndPan="magnify"><defs/><g><!--class Unit--><g id="elem_Unit"><rect codeLine="3" fill="#F1F1F1" height="116.4374" id="Unit" rx="4.3403" ry="4.3403" style="stroke:#181818;stroke-width:0.8680555555555557;" width="133.6806" x="248.2639" y="12.1528"/><ellipse cx="289.1493" cy="39.9306" fill="#A9DCDF" rx="19.0972" ry="19.0972" style="stroke:#181818;stroke-width:1.7361111111111114;"/><path d="M280.7671,49.9132 L286.5723,28.7543 L292.0247,28.7543 L297.8841,49.9132 L293.5981,49.9132 L292.3231,44.6777 L286.2196,44.6777 L284.9175,49.9132 L280.7671,49.9132 Z M288.4169,35.9429 L287.1148,41.1513 L291.4822,41.1513 L290.2344,35.9429 Q289.9902,34.9392 289.7732,33.9898 Q289.5562,33.0132 289.3121,32.0095 Q289.1222,33.0132 288.878,33.9898 Q288.6339,34.9392 288.4169,35.9429 Z " fill="#000000"/><text fill="#000000" font-family="sans-serif" font-size="24.3056" font-style="italic" lengthAdjust="spacing" textLength="45.1389" x="316.7535" y="49.3611">Unit</text><line style="stroke:#181818;stroke-width:0.8680555555555557;" x1="250" x2="380.2083" y1="67.7083" y2="67.7083"/><text fill="#000000" font-family="sans-serif" font-size="24.3056" lengthAdjust="spacing" textLength="112.8472" x="258.6806" y="100.6353">int health</text><line style="stroke:#181818;stroke-width:0.8680555555555557;" x1="250" x2="380.2083" y1="114.7012" y2="114.7012"/></g><!--class MobileUnit--><g id="elem_MobileUnit"><rect codeLine="7" fill="#F1F1F1" height="149.5414" id="MobileUnit" rx="4.3403" ry="4.3403" style="stroke:#181818;stroke-width:0.8680555555555557;" width="262.1528" x="60.7639" y="265.7292"/><ellipse cx="125.8681" cy="293.5069" fill="#A9DCDF" rx="19.0972" ry="19.0972" style="stroke:#181818;stroke-width:1.7361111111111114;"/><path d="M117.4859,303.4896 L123.291,282.3307 L128.7435,282.3307 L134.6029,303.4896 L130.3168,303.4896 L129.0419,298.2541 L122.9384,298.2541 L121.6363,303.4896 L117.4859,303.4896 Z M125.1356,289.5193 L123.8336,294.7276 L128.201,294.7276 L126.9531,289.5193 Q126.709,288.5156 126.492,287.5662 Q126.275,286.5896 126.0308,285.5859 Q125.8409,286.5896 125.5968,287.5662 Q125.3526,288.5156 125.1356,289.5193 Z " fill="#000000"/><text fill="#000000" font-family="sans-serif" font-size="24.3056" font-style="italic" lengthAdjust="spacing" textLength="119.7917" x="158.8542" y="302.9375">MobileUnit</text><line style="stroke:#181818;stroke-width:0.8680555555555557;" x1="62.5" x2="321.1806" y1="321.2847" y2="321.2847"/><text fill="#000000" font-family="sans-serif" font-size="24.3056" lengthAdjust="spacing" textLength="135.4167" x="71.1806" y="354.2117">String color</text><text fill="#000000" font-family="sans-serif" font-size="24.3056" lengthAdjust="spacing" textLength="241.3194" x="71.1806" y="387.3157">int attackCountdown</text><line style="stroke:#181818;stroke-width:0.8680555555555557;" x1="62.5" x2="321.1806" y1="401.3817" y2="401.3817"/></g><!--class Wall--><g id="elem_Wall"><rect codeLine="12" fill="#F1F1F1" height="83.3333" id="Wall" rx="4.3403" ry="4.3403" style="stroke:#181818;stroke-width:0.8680555555555557;" width="105.9028" x="383.6806" y="298.8368"/><ellipse cx="409.7222" cy="326.6146" fill="#ADD1B2" rx="19.0972" ry="19.0972" style="stroke:#181818;stroke-width:1.7361111111111114;"/><path d="M408.7999,338.6317 Q405.7617,338.6317 403.7815,337.3568 Q401.8283,336.0547 400.8518,333.7218 Q399.9023,331.3618 399.9023,328.2422 Q399.9023,324.7157 401.0417,322.1929 Q402.181,319.6701 404.4054,318.3138 Q406.6298,316.9575 409.885,316.9575 Q411.4312,316.9575 412.5977,317.283 Q413.7641,317.5814 414.9577,318.1782 L413.5471,321.6775 Q412.462,321.135 411.5126,320.918 Q410.5903,320.701 409.7493,320.701 Q407.7148,320.701 406.4941,321.6233 Q405.2734,322.5456 404.758,324.2003 Q404.2426,325.855 404.2426,328.0523 Q404.2426,331.5516 405.4905,333.2335 Q406.7383,334.8882 409.5052,334.8882 Q410.536,334.8882 411.6211,334.617 Q412.7062,334.3457 414.1439,333.6947 L414.1439,337.5467 Q412.8689,338.0892 411.4855,338.3605 Q410.1291,338.6317 408.7999,338.6317 Z " fill="#000000"/><text fill="#000000" font-family="sans-serif" font-size="24.3056" lengthAdjust="spacing" textLength="50.3472" x="434.0278" y="336.0451">Wall</text><line style="stroke:#181818;stroke-width:0.8680555555555557;" x1="385.4167" x2="487.8472" y1="354.3924" y2="354.3924"/><line style="stroke:#181818;stroke-width:0.8680555555555557;" x1="385.4167" x2="487.8472" y1="368.2813" y2="368.2813"/></g><!--class Unicorn--><g id="elem_Unicorn"><rect codeLine="15" fill="#F1F1F1" height="83.3333" id="Unicorn" rx="4.3403" ry="4.3403" style="stroke:#181818;stroke-width:0.8680555555555557;" width="147.5694" x="12.1528" y="552.4306"/><ellipse cx="38.1944" cy="580.2083" fill="#ADD1B2" rx="19.0972" ry="19.0972" style="stroke:#181818;stroke-width:1.7361111111111114;"/><path d="M37.2721,592.2255 Q34.2339,592.2255 32.2537,590.9505 Q30.3006,589.6484 29.324,587.3155 Q28.3746,584.9555 28.3746,581.8359 Q28.3746,578.3095 29.5139,575.7867 Q30.6532,573.2639 32.8776,571.9076 Q35.102,570.5512 38.3572,570.5512 Q39.9034,570.5512 41.0699,570.8767 Q42.2363,571.1751 43.4299,571.7719 L42.0193,575.2713 Q40.9342,574.7287 39.9848,574.5117 Q39.0625,574.2947 38.2216,574.2947 Q36.1871,574.2947 34.9664,575.217 Q33.7457,576.1393 33.2303,577.7941 Q32.7148,579.4488 32.7148,581.6461 Q32.7148,585.1454 33.9627,586.8273 Q35.2105,588.482 37.9774,588.482 Q39.0082,588.482 40.0933,588.2107 Q41.1784,587.9395 42.6161,587.2884 L42.6161,591.1404 Q41.3411,591.6829 39.9577,591.9542 Q38.6013,592.2255 37.2721,592.2255 Z " fill="#000000"/><text fill="#000000" font-family="sans-serif" font-size="24.3056" lengthAdjust="spacing" textLength="92.0139" x="62.5" y="589.6388">Unicorn</text><line style="stroke:#181818;stroke-width:0.8680555555555557;" x1="13.8889" x2="157.9861" y1="607.9861" y2="607.9861"/><line style="stroke:#181818;stroke-width:0.8680555555555557;" x1="13.8889" x2="157.9861" y1="621.875" y2="621.875"/></g><!--class Butterfly--><g id="elem_Butterfly"><rect codeLine="18" fill="#F1F1F1" height="83.3333" id="Butterfly" rx="4.3403" ry="4.3403" style="stroke:#181818;stroke-width:0.8680555555555557;" width="156.25" x="221.3542" y="552.4306"/><ellipse cx="247.3958" cy="580.2083" fill="#ADD1B2" rx="19.0972" ry="19.0972" style="stroke:#181818;stroke-width:1.7361111111111114;"/><path d="M246.4735,592.2255 Q243.4353,592.2255 241.4551,590.9505 Q239.502,589.6484 238.5254,587.3155 Q237.576,584.9555 237.576,581.8359 Q237.576,578.3095 238.7153,575.7867 Q239.8546,573.2639 242.079,571.9076 Q244.3034,570.5512 247.5586,570.5512 Q249.1048,570.5512 250.2713,570.8767 Q251.4377,571.1751 252.6313,571.7719 L251.2207,575.2713 Q250.1356,574.7287 249.1862,574.5117 Q248.2639,574.2947 247.423,574.2947 Q245.3885,574.2947 244.1678,575.217 Q242.947,576.1393 242.4316,577.7941 Q241.9162,579.4488 241.9162,581.6461 Q241.9162,585.1454 243.1641,586.8273 Q244.4119,588.482 247.1788,588.482 Q248.2096,588.482 249.2947,588.2107 Q250.3798,587.9395 251.8175,587.2884 L251.8175,591.1404 Q250.5425,591.6829 249.1591,591.9542 Q247.8027,592.2255 246.4735,592.2255 Z " fill="#000000"/><text fill="#000000" font-family="sans-serif" font-size="24.3056" lengthAdjust="spacing" textLength="100.6944" x="271.7014" y="589.6388">Butterfly</text><line style="stroke:#181818;stroke-width:0.8680555555555557;" x1="223.0903" x2="375.8681" y1="607.9861" y2="607.9861"/><line style="stroke:#181818;stroke-width:0.8680555555555557;" x1="223.0903" x2="375.8681" y1="621.875" y2="621.875"/></g><!--reverse link Unit to MobileUnit--><g id="link_Unit_MobileUnit"><path codeLine="21" d="M275.5443,157.3399 C267.8186,173.9892 272.5174,163.8889 264.7569,180.6597 C251.9444,208.3681 237.8819,238.8368 225.5729,265.5556 " fill="none" id="Unit-backto-MobileUnit" style="stroke:#181818;stroke-width:1.7361111111111114;"/><polygon fill="none" points="288.6979,128.9931,266.0953,152.9554,284.9932,161.7245,288.6979,128.9931" style="stroke:#181818;stroke-width:1.7361111111111114;"/><text fill="#000000" font-family="sans-serif" font-size="22.5694" lengthAdjust="spacing" textLength="83.3333" x="266.4931" y="206.5226">extends</text></g><!--reverse link Unit to Wall--><g id="link_Unit_Wall"><path codeLine="22" d="M354.1324,157.7452 C377.2748,208.5612 397.5868,253.1076 418.125,298.1424 " fill="none" id="Unit-backto-Wall" style="stroke:#181818;stroke-width:1.7361111111111114;"/><polygon fill="none" points="341.1806,129.3056,344.6525,162.0625,363.6123,153.4279,341.1806,129.3056" style="stroke:#181818;stroke-width:1.7361111111111114;"/><text fill="#000000" font-family="sans-serif" font-size="22.5694" lengthAdjust="spacing" textLength="83.3333" x="382.8125" y="206.5226">extends</text></g><!--reverse link MobileUnit to Unicorn--><g id="link_MobileUnit_Unicorn"><path codeLine="23" d="M147.7623,444.3346 C140.4706,461.2964 145.1215,450.5903 138.0208,467.3611 C126.1111,495.5035 112.8646,527.2917 102.7083,551.7708 " fill="none" id="MobileUnit-backto-Unicorn" style="stroke:#181818;stroke-width:1.7361111111111114;"/><polygon fill="none" points="160.1042,415.625,138.1924,440.2206,157.3321,448.4485,160.1042,415.625" style="stroke:#181818;stroke-width:1.7361111111111114;"/><text fill="#000000" font-family="sans-serif" font-size="22.5694" lengthAdjust="spacing" textLength="83.3333" x="139.7569" y="493.224">extends</text></g><!--reverse link MobileUnit to Butterfly--><g id="link_MobileUnit_Butterfly"><path codeLine="24" d="M235.9124,444.6422 C255.0096,489.0172 266.25,515.1389 282.0139,551.7882 " fill="none" id="MobileUnit-backto-Butterfly" style="stroke:#181818;stroke-width:1.7361111111111114;"/><polygon fill="none" points="223.559,415.9375,226.3441,448.7599,245.4806,440.5244,223.559,415.9375" style="stroke:#181818;stroke-width:1.7361111111111114;"/><text fill="#000000" font-family="sans-serif" font-size="22.5694" lengthAdjust="spacing" textLength="83.3333" x="261.2847" y="493.224">extends</text></g><!--SRC=[TOqn2W8n44Nxd68kiB2DZLXfRILYFPj4DpXC89bb5VNkneGr0R6S-U__5pMIXLNVm-oCZ4hX42MW5j24CSAHdS13WME1qI8bvFK3xVtWo2xeGOBZ2sXFFfGYYg2-xlp4OlpCduLIF25HgdplDA5zuFQrdKHiEDEzFBDay-owLhe6UnFB9ZPndgv1G-TuCVqdghWoRm00]--></g></svg>