<?xml version="1.0" encoding="us-ascii" standalone="no"?><svg xmlns="http://www.w3.org/2000/svg" xmlns:xlink="http://www.w3.org/1999/xlink" contentStyleType="text/css" height="862.1795px" preserveAspectRatio="none" style="width:501px;height:862px;background:#FFFFFF;" version="1.1" viewBox="0 0 501 862" width="501.6026px" zoomAndPan="magnify"><defs/><g><!--class Unit--><g id="elem_Unit"><rect codeLine="3" fill="#F1F1F1" height="138.0382" id="Unit" rx="4.0064" ry="4.0064" style="stroke:#181818;stroke-width:0.8012820512820514;" width="142.6282" x="196.3141" y="11.2179"/><ellipse cx="242.7083" cy="36.859" fill="#B4A7E5" rx="17.6282" ry="17.6282" style="stroke:#181818;stroke-width:1.6025641025641029;"/><path d="M236.3482,47.2756 L236.3482,44.5463 L240.1292,44.1206 L240.1292,30.9746 L236.3482,30.5489 L236.3482,27.8195 L247.7915,27.8195 L247.7915,30.5489 L243.9103,30.9746 L243.9103,44.1206 L247.7915,44.5463 L247.7915,47.2756 L236.3482,47.2756 Z " fill="#000000"/><text fill="#000000" font-family="sans-serif" font-size="22.4359" font-style="italic" lengthAdjust="spacing" textLength="41.6667" x="270.1122" y="45.5641">Unit</text><line style="stroke:#181818;stroke-width:0.8012820512820514;" x1="197.9167" x2="337.3397" y1="62.5" y2="62.5"/><line style="stroke:#181818;stroke-width:0.8012820512820514;" x1="197.9167" x2="337.3397" y1="75.3205" y2="75.3205"/><text fill="#000000" font-family="sans-serif" font-size="22.4359" lengthAdjust="spacing" textLength="123.3974" x="205.9295" y="105.7146">void boost()</text><text fill="#000000" font-family="sans-serif" font-size="22.4359" lengthAdjust="spacing" textLength="121.7949" x="205.9295" y="136.2722">void sleep()</text></g><!--class MobileUnit--><g id="elem_MobileUnit"><rect codeLine="8" fill="#F1F1F1" height="107.4806" id="MobileUnit" rx="4.0064" ry="4.0064" style="stroke:#181818;stroke-width:0.8012820512820514;" width="246.7949" x="11.2179" y="275.8654"/><ellipse cx="73.4776" cy="301.5064" fill="#B4A7E5" rx="17.6282" ry="17.6282" style="stroke:#181818;stroke-width:1.6025641025641029;"/><path d="M67.1174,311.9231 L67.1174,309.1937 L70.8984,308.768 L70.8984,295.622 L67.1174,295.1963 L67.1174,292.4669 L78.5607,292.4669 L78.5607,295.1963 L74.6795,295.622 L74.6795,308.768 L78.5607,309.1937 L78.5607,311.9231 L67.1174,311.9231 Z " fill="#000000"/><text fill="#000000" font-family="sans-serif" font-size="22.4359" font-style="italic" lengthAdjust="spacing" textLength="110.5769" x="104.4071" y="310.2115">MobileUnit</text><line style="stroke:#181818;stroke-width:0.8012820512820514;" x1="12.8205" x2="256.4103" y1="327.1474" y2="327.1474"/><line style="stroke:#181818;stroke-width:0.8012820512820514;" x1="12.8205" x2="256.4103" y1="339.9679" y2="339.9679"/><text fill="#000000" font-family="sans-serif" font-size="22.4359" lengthAdjust="spacing" textLength="227.5641" x="20.8333" y="370.3621">void move(int x, int y)</text></g><!--class AbstractUnit--><g id="elem_AbstractUnit"><rect codeLine="12" fill="#F1F1F1" height="107.4806" id="AbstractUnit" rx="4.0064" ry="4.0064" style="stroke:#181818;stroke-width:0.8012820512820514;" width="176.2821" x="314.1026" y="275.8654"/><ellipse cx="338.141" cy="301.5064" fill="#A9DCDF" rx="17.6282" ry="17.6282" style="stroke:#181818;stroke-width:1.6025641025641029;"/><path d="M330.4036,310.7212 L335.7622,291.1899 L340.7953,291.1899 L346.2039,310.7212 L342.2476,310.7212 L341.0707,305.8884 L335.4367,305.8884 L334.2348,310.7212 L330.4036,310.7212 Z M337.4649,297.8255 L336.263,302.6332 L340.2945,302.6332 L339.1426,297.8255 Q338.9173,296.899 338.7169,296.0226 Q338.5166,295.1212 338.2913,294.1947 Q338.116,295.1212 337.8906,296.0226 Q337.6653,296.899 337.4649,297.8255 Z " fill="#000000"/><text fill="#000000" font-family="sans-serif" font-size="22.4359" font-style="italic" lengthAdjust="spacing" textLength="125" x="360.5769" y="310.2115">AbstractUnit</text><line style="stroke:#181818;stroke-width:0.8012820512820514;" x1="315.7051" x2="488.7821" y1="327.1474" y2="327.1474"/><line style="stroke:#181818;stroke-width:0.8012820512820514;" x1="315.7051" x2="488.7821" y1="339.9679" y2="339.9679"/><text fill="#000000" font-family="sans-serif" font-size="22.4359" lengthAdjust="spacing" textLength="123.3974" x="323.7179" y="370.3621">void boost()</text></g><!--class AbstractMobileUnit--><g id="elem_AbstractMobileUnit"><rect codeLine="16" fill="#F1F1F1" height="107.4806" id="AbstractMobileUnit" rx="4.0064" ry="4.0064" style="stroke:#181818;stroke-width:0.8012820512820514;" width="246.7949" x="144.2308" y="509.9359"/><ellipse cx="168.9904" cy="535.5769" fill="#A9DCDF" rx="17.6282" ry="17.6282" style="stroke:#181818;stroke-width:1.6025641025641029;"/><path d="M161.253,544.7917 L166.6116,525.2604 L171.6446,525.2604 L177.0533,544.7917 L173.097,544.7917 L171.9201,539.9589 L166.2861,539.9589 L165.0841,544.7917 L161.253,544.7917 Z M168.3143,531.896 L167.1124,536.7037 L171.1438,536.7037 L169.992,531.896 Q169.7666,530.9696 169.5663,530.0931 Q169.366,529.1917 169.1406,528.2652 Q168.9653,529.1917 168.74,530.0931 Q168.5146,530.9696 168.3143,531.896 Z " fill="#000000"/><text fill="#000000" font-family="sans-serif" font-size="22.4359" font-style="italic" lengthAdjust="spacing" textLength="193.9103" x="191.5865" y="544.282">AbstractMobileUnit</text><line style="stroke:#181818;stroke-width:0.8012820512820514;" x1="145.8333" x2="389.4231" y1="561.2179" y2="561.2179"/><line style="stroke:#181818;stroke-width:0.8012820512820514;" x1="145.8333" x2="389.4231" y1="574.0385" y2="574.0385"/><text fill="#000000" font-family="sans-serif" font-size="22.4359" lengthAdjust="spacing" textLength="227.5641" x="153.8462" y="604.4326">void move(int x, int y)</text></g><!--class Unicorn--><g id="elem_Unicorn"><rect codeLine="20" fill="#F1F1F1" height="107.4806" id="Unicorn" rx="4.0064" ry="4.0064" style="stroke:#181818;stroke-width:0.8012820512820514;" width="141.0256" x="97.7564" y="744.0224"/><ellipse cx="123.9583" cy="769.6635" fill="#ADD1B2" rx="17.6282" ry="17.6282" style="stroke:#181818;stroke-width:1.6025641025641029;"/><path d="M123.107,780.7562 Q120.3025,780.7562 118.4746,779.5793 Q116.6717,778.3774 115.7702,776.224 Q114.8938,774.0455 114.8938,771.1659 Q114.8938,767.9107 115.9455,765.5819 Q116.9972,763.2532 119.0505,762.0012 Q121.1038,760.7492 124.1086,760.7492 Q125.5359,760.7492 126.6126,761.0497 Q127.6893,761.3251 128.7911,761.876 L127.489,765.1062 Q126.4874,764.6054 125.611,764.405 Q124.7596,764.2047 123.9834,764.2047 Q122.1054,764.2047 120.9786,765.0561 Q119.8518,765.9075 119.376,767.4349 Q118.9002,768.9623 118.9002,770.9906 Q118.9002,774.2208 120.0521,775.7732 Q121.2039,777.3007 123.758,777.3007 Q124.7095,777.3007 125.7111,777.0503 Q126.7127,776.7999 128.0399,776.1989 L128.0399,779.7546 Q126.863,780.2554 125.5859,780.5058 Q124.3339,780.7562 123.107,780.7562 Z " fill="#000000"/><text fill="#000000" font-family="sans-serif" font-size="22.4359" lengthAdjust="spacing" textLength="84.9359" x="146.875" y="778.3686">Unicorn</text><line style="stroke:#181818;stroke-width:0.8012820512820514;" x1="99.359" x2="237.1795" y1="795.3045" y2="795.3045"/><line style="stroke:#181818;stroke-width:0.8012820512820514;" x1="99.359" x2="237.1795" y1="808.125" y2="808.125"/><text fill="#000000" font-family="sans-serif" font-size="22.4359" lengthAdjust="spacing" textLength="121.7949" x="107.3718" y="838.5191">void sleep()</text></g><!--class Butterfly--><g id="elem_Butterfly"><rect codeLine="24" fill="#F1F1F1" height="107.4806" id="Butterfly" rx="4.0064" ry="4.0064" style="stroke:#181818;stroke-width:0.8012820512820514;" width="144.2308" x="294.8718" y="744.0224"/><ellipse cx="318.9103" cy="769.6635" fill="#ADD1B2" rx="17.6282" ry="17.6282" style="stroke:#181818;stroke-width:1.6025641025641029;"/><path d="M318.0589,780.7562 Q315.2544,780.7562 313.4265,779.5793 Q311.6236,778.3774 310.7222,776.224 Q309.8458,774.0455 309.8458,771.1659 Q309.8458,767.9107 310.8974,765.5819 Q311.9491,763.2532 314.0024,762.0012 Q316.0557,760.7492 319.0605,760.7492 Q320.4878,760.7492 321.5645,761.0497 Q322.6412,761.3251 323.743,761.876 L322.4409,765.1062 Q321.4393,764.6054 320.5629,764.405 Q319.7115,764.2047 318.9353,764.2047 Q317.0573,764.2047 315.9305,765.0561 Q314.8037,765.9075 314.3279,767.4349 Q313.8522,768.9623 313.8522,770.9906 Q313.8522,774.2208 315.004,775.7732 Q316.1558,777.3007 318.7099,777.3007 Q319.6615,777.3007 320.6631,777.0503 Q321.6647,776.7999 322.9918,776.1989 L322.9918,779.7546 Q321.8149,780.2554 320.5379,780.5058 Q319.2859,780.7562 318.0589,780.7562 Z " fill="#000000"/><text fill="#000000" font-family="sans-serif" font-size="22.4359" lengthAdjust="spacing" textLength="92.9487" x="341.3462" y="778.3686">Butterfly</text><line style="stroke:#181818;stroke-width:0.8012820512820514;" x1="296.4744" x2="437.5" y1="795.3045" y2="795.3045"/><line style="stroke:#181818;stroke-width:0.8012820512820514;" x1="296.4744" x2="437.5" y1="808.125" y2="808.125"/><text fill="#000000" font-family="sans-serif" font-size="22.4359" lengthAdjust="spacing" textLength="123.3974" x="304.4872" y="838.5191">void boost()</text></g><!--reverse link Unit to MobileUnit--><g id="link_Unit_MobileUnit"><path codeLine="28" d="M217.2131,175.136 C195.8349,214.6873 182.9968,238.4615 163.1891,275.1282 " fill="none" id="Unit-backto-MobileUnit" style="stroke:#181818;stroke-width:1.6025641025641029;stroke-dasharray:7.0,7.0;"/><polygon fill="none" points="230.9295,149.7596,208.7543,170.5639,225.6719,179.7081,230.9295,149.7596" style="stroke:#181818;stroke-width:1.6025641025641029;"/><text fill="#000000" font-family="sans-serif" font-size="20.8333" lengthAdjust="spacing" textLength="76.9231" x="206.7308" y="221.2132">extends</text></g><!--reverse link Unit to AbstractUnit--><g id="link_Unit_AbstractUnit"><path codeLine="30" d="M309.39,158.1954 C331.0247,197.7467 353.2853,238.4615 373.3333,275.1282 " fill="none" id="Unit-backto-AbstractUnit" style="stroke:#181818;stroke-width:1.6025641025641029;"/><polygon fill="#181818" points="304.7756,149.7596,306.0734,165.4896,308.621,156.7895,317.3211,159.3371,304.7756,149.7596" style="stroke:#181818;stroke-width:1.6025641025641029;"/><text fill="#000000" font-family="sans-serif" font-size="20.8333" lengthAdjust="spacing" textLength="113.7821" x="349.359" y="221.2132">implements</text></g><!--reverse link MobileUnit to AbstractMobileUnit--><g id="link_MobileUnit_AbstractMobileUnit"><path codeLine="31" d="M159.3639,392.7966 C169.7806,417.1075 179.4231,437.1474 193.9103,461.859 C203.3013,477.8846 214.6955,494.4551 225.7051,509.391 " fill="none" id="MobileUnit-backto-AbstractMobileUnit" style="stroke:#181818;stroke-width:1.6025641025641029;"/><polygon fill="#181818" points="155.5769,383.9583,155.3652,399.7403,158.7327,391.3235,167.1496,394.691,155.5769,383.9583" style="stroke:#181818;stroke-width:1.6025641025641029;"/><text fill="#000000" font-family="sans-serif" font-size="20.8333" lengthAdjust="spacing" textLength="113.7821" x="195.5128" y="455.2837">implements</text></g><!--reverse link AbstractUnit to AbstractMobileUnit--><g id="link_AbstractUnit_AbstractMobileUnit"><path codeLine="33" d="M357.1679,408.5087 C335.1327,446.2972 320.0641,472.1635 298.0609,509.9038 " fill="none" id="AbstractUnit-backto-AbstractMobileUnit" style="stroke:#181818;stroke-width:1.6025641025641029;"/><polygon fill="none" points="371.6987,383.5897,348.8616,403.6651,365.4743,413.3523,371.6987,383.5897" style="stroke:#181818;stroke-width:1.6025641025641029;"/><text fill="#000000" font-family="sans-serif" font-size="20.8333" lengthAdjust="spacing" textLength="76.9231" x="346.1538" y="455.2837">extends</text></g><!--reverse link AbstractMobileUnit to Unicorn--><g id="link_AbstractMobileUnit_Unicorn"><path codeLine="34" d="M227.5175,643.7179 C219.9534,658.9423 224.7917,649.8397 217.9487,665.4968 C206.875,690.8494 195.8173,719.5353 186.9391,743.5577 " fill="none" id="AbstractMobileUnit-backto-Unicorn" style="stroke:#181818;stroke-width:1.6025641025641029;"/><polygon fill="none" points="240.3526,617.8846,218.9064,639.4396,236.1286,647.9963,240.3526,617.8846" style="stroke:#181818;stroke-width:1.6025641025641029;"/><text fill="#000000" font-family="sans-serif" font-size="20.8333" lengthAdjust="spacing" textLength="76.9231" x="219.5513" y="689.3702">extends</text></g><!--reverse link AbstractMobileUnit to Butterfly--><g id="link_AbstractMobileUnit_Butterfly"><path codeLine="35" d="M301.5814,644.172 C317.8474,681.9605 328.2853,706.25 344.5353,743.9744 " fill="none" id="AbstractMobileUnit-backto-Butterfly" style="stroke:#181818;stroke-width:1.6025641025641029;"/><polygon fill="none" points="290.1763,617.6763,292.7494,647.9737,310.4133,640.3703,290.1763,617.6763" style="stroke:#181818;stroke-width:1.6025641025641029;"/><text fill="#000000" font-family="sans-serif" font-size="20.8333" lengthAdjust="spacing" textLength="76.9231" x="325.3205" y="689.3702">extends</text></g><!--SRC=[ZP3D3e8m48JlVOezOYA4YnV2HUyUVO1IrjYaj8Ik217VNNwrJI1wQYRxpSvEhU0AuH37y90vtHYJch2wSe5mqPBWoQ0sCeVC64l1RbPM8PQzUhdysMHIeUSgJ8r1Jq2pX-5fHmlFB5LS40Z5hONZB5Vpjl6_uoPR3mfJwG_hL9Y0qvs69gfTks6CIRieSbicW0sXpkqo3qE_J0AoA1KMgCaon-Y2tZu7PzwcjDkoB2Ui34VJqlit-Vq0fzWR]--></g></svg>