<?xml version="1.0" encoding="us-ascii" standalone="no"?><svg xmlns="http://www.w3.org/2000/svg" xmlns:xlink="http://www.w3.org/1999/xlink" contentStyleType="text/css" height="440.2685px" preserveAspectRatio="none" style="width:400px;height:440px;background:#FFFFFF;" version="1.1" viewBox="0 0 400 440" width="400.8949px" zoomAndPan="magnify"><defs/><g><!--class Unit--><g id="elem_Unit"><rect codeLine="3" fill="#F1F1F1" height="188.2841" id="Unit" rx="4.4743" ry="4.4743" style="stroke:#181818;stroke-width:0.8948545861297538;" width="270.2461" x="62.6398" y="12.528"/><ellipse cx="166.8904" cy="41.1633" fill="#A9DCDF" rx="19.6868" ry="19.6868" style="stroke:#181818;stroke-width:1.7897091722595075;"/><path d="M158.2494,51.4541 L164.2338,29.6421 L169.8546,29.6421 L175.8949,51.4541 L171.4765,51.4541 L170.1622,46.057 L163.8702,46.057 L162.528,51.4541 L158.2494,51.4541 Z M166.1353,37.0526 L164.7931,42.4217 L169.2953,42.4217 L168.0089,37.0526 Q167.7573,36.0179 167.5336,35.0391 Q167.3098,34.0324 167.0582,32.9978 Q166.8624,34.0324 166.6107,35.0391 Q166.3591,36.0179 166.1353,37.0526 Z " fill="#000000"/><text fill="#000000" font-family="sans-serif" font-size="25.0559" font-style="italic" lengthAdjust="spacing" textLength="46.5324" x="203.5794" y="50.885">Unit</text><line style="stroke:#181818;stroke-width:0.8948545861297538;" x1="64.4295" x2="331.0962" y1="69.7987" y2="69.7987"/><text fill="#000000" font-family="sans-serif" font-size="25.0559" lengthAdjust="spacing" textLength="139.5973" x="73.3781" y="103.7422">String color</text><text fill="#000000" font-family="sans-serif" font-size="25.0559" lengthAdjust="spacing" textLength="116.3311" x="73.3781" y="137.8682">int health</text><text fill="#000000" font-family="sans-serif" font-size="25.0559" lengthAdjust="spacing" textLength="248.7696" x="73.3781" y="171.9942">int attackCountdown</text><line style="stroke:#181818;stroke-width:0.8948545861297538;" x1="64.4295" x2="331.0962" y1="186.4944" y2="186.4944"/></g><!--class Unicorn--><g id="elem_Unicorn"><rect codeLine="9" fill="#F1F1F1" height="85.906" id="Unicorn" rx="4.4743" ry="4.4743" style="stroke:#181818;stroke-width:0.8948545861297538;" width="152.1253" x="12.528" y="342.1924"/><ellipse cx="39.3736" cy="370.8277" fill="#ADD1B2" rx="19.6868" ry="19.6868" style="stroke:#181818;stroke-width:1.7897091722595075;"/><path d="M38.4228,383.2159 Q35.2908,383.2159 33.2494,381.9016 Q31.236,380.5593 30.2293,378.1544 Q29.2506,375.7215 29.2506,372.5056 Q29.2506,368.8702 30.4251,366.2696 Q31.5996,363.6689 33.8926,362.2707 Q36.1857,360.8725 39.5414,360.8725 Q41.1353,360.8725 42.3378,361.2081 Q43.5403,361.5157 44.7707,362.1309 L43.3166,365.7383 Q42.198,365.179 41.2192,364.9553 Q40.2685,364.7315 39.4016,364.7315 Q37.3043,364.7315 36.0459,365.6823 Q34.7875,366.6331 34.2562,368.3389 Q33.7248,370.0447 33.7248,372.3098 Q33.7248,375.9172 35.0112,377.651 Q36.2975,379.3568 39.1499,379.3568 Q40.2125,379.3568 41.3311,379.0772 Q42.4497,378.7975 43.9318,378.1264 L43.9318,382.0973 Q42.6174,382.6566 41.1913,382.9362 Q39.7931,383.2159 38.4228,383.2159 Z " fill="#000000"/><text fill="#000000" font-family="sans-serif" font-size="25.0559" lengthAdjust="spacing" textLength="94.8546" x="64.4295" y="380.5494">Unicorn</text><line style="stroke:#181818;stroke-width:0.8948545861297538;" x1="14.3177" x2="162.8635" y1="399.4631" y2="399.4631"/><line style="stroke:#181818;stroke-width:0.8948545861297538;" x1="14.3177" x2="162.8635" y1="413.7808" y2="413.7808"/></g><!--class Butterfly--><g id="elem_Butterfly"><rect codeLine="12" fill="#F1F1F1" height="85.906" id="Butterfly" rx="4.4743" ry="4.4743" style="stroke:#181818;stroke-width:0.8948545861297538;" width="161.0738" x="228.1879" y="342.1924"/><ellipse cx="255.0336" cy="370.8277" fill="#ADD1B2" rx="19.6868" ry="19.6868" style="stroke:#181818;stroke-width:1.7897091722595075;"/><path d="M254.0828,383.2159 Q250.9508,383.2159 248.9094,381.9016 Q246.896,380.5593 245.8893,378.1544 Q244.9105,375.7215 244.9105,372.5056 Q244.9105,368.8702 246.085,366.2696 Q247.2595,363.6689 249.5526,362.2707 Q251.8456,360.8725 255.2013,360.8725 Q256.7953,360.8725 257.9978,361.2081 Q259.2002,361.5157 260.4306,362.1309 L258.9765,365.7383 Q257.8579,365.179 256.8792,364.9553 Q255.9284,364.7315 255.0615,364.7315 Q252.9642,364.7315 251.7058,365.6823 Q250.4474,366.6331 249.9161,368.3389 Q249.3848,370.0447 249.3848,372.3098 Q249.3848,375.9172 250.6711,377.651 Q251.9575,379.3568 254.8098,379.3568 Q255.8725,379.3568 256.9911,379.0772 Q258.1096,378.7975 259.5917,378.1264 L259.5917,382.0973 Q258.2774,382.6566 256.8512,382.9362 Q255.453,383.2159 254.0828,383.2159 Z " fill="#000000"/><text fill="#000000" font-family="sans-serif" font-size="25.0559" lengthAdjust="spacing" textLength="103.8031" x="280.0895" y="380.5494">Butterfly</text><line style="stroke:#181818;stroke-width:0.8948545861297538;" x1="229.9776" x2="387.472" y1="399.4631" y2="399.4631"/><line style="stroke:#181818;stroke-width:0.8948545861297538;" x1="229.9776" x2="387.472" y1="413.7808" y2="413.7808"/></g><!--reverse link Unit to Unicorn--><g id="link_Unit_Unicorn"><path codeLine="15" d="M148.9109,231.4597 C129.9758,279.1197 119.7852,304.8233 105.0559,341.8881 " fill="none" id="Unit-backto-Unicorn" style="stroke:#181818;stroke-width:1.7897091722595075;"/><polygon fill="none" points="160.8054,201.5213,138.9314,227.4949,158.8904,235.4246,160.8054,201.5213" style="stroke:#181818;stroke-width:1.7897091722595075;"/><text fill="#000000" font-family="sans-serif" font-size="23.2662" lengthAdjust="spacing" textLength="85.906" x="138.7025" y="281.158">extends</text></g><!--reverse link Unit to Butterfly--><g id="link_Unit_Butterfly"><path codeLine="16" d="M247.3878,231.3939 C266.6272,279.0538 277.0291,304.8233 291.9911,341.8881 " fill="none" id="Unit-backto-Butterfly" style="stroke:#181818;stroke-width:1.7897091722595075;"/><polygon fill="none" points="235.3289,201.5213,237.4303,235.4135,257.3454,227.3742,235.3289,201.5213" style="stroke:#181818;stroke-width:1.7897091722595075;"/><text fill="#000000" font-family="sans-serif" font-size="23.2662" lengthAdjust="spacing" textLength="85.906" x="271.1409" y="281.158">extends</text></g><!--SRC=[JOt12i8m44Jl-nNx0uKUF8ad_GJn0zRDQeDX0ycKAjL_jrH8lGqpysQgIZBUzJrFCM0Wacj54GLhabhvuX4y4vzHejzPSyg5E3fuC4aBi6e1H1-dF3f2dfm-H0tNN7nPQDPn1ApSqkjdhWU7TzUrxfxj2VDG_x8Dsj8l]--></g></svg>