<svg xmlns="http://www.w3.org/2000/svg" xmlns:xlink="http://www.w3.org/1999/xlink" contentStyleType="text/css" data-diagram-type="CLASS" height="696.1653px" preserveAspectRatio="none" style="width:750px;height:696px;background:#FFFFFF;" version="1.1" viewBox="0 0 750 696" width="750.146px" zoomAndPan="magnify"><defs/><g><!--class Expression--><g class="entity" data-entity="Expression" data-source-line="3" data-uid="ent0002" id="entity_Expression"><rect fill="#F1F1F1" height="115.6599" rx="2.3268" ry="2.3268" style="stroke:#181818;stroke-width:0.4654;" width="224.1532" x="388.1028" y="6.5149"/><ellipse cx="465.3629" cy="21.4062" fill="#B4A7E5" rx="10.2377" ry="10.2377" style="stroke:#181818;stroke-width:0.9307;"/><path d="M461.6692,27.4557 L461.6692,25.8706 L463.8651,25.6234 L463.8651,17.9887 L461.6692,17.7415 L461.6692,16.1564 L468.315,16.1564 L468.315,17.7415 L466.061,17.9887 L466.061,25.6234 L468.315,25.8706 L468.315,27.4557 L461.6692,27.4557 Z " fill="#000000"/><text fill="#000000" font-family="sans-serif" font-size="13.0298" font-style="italic" lengthAdjust="spacing" textLength="61.7221" x="484.4423" y="26.4617">Expression</text><line style="stroke:#181818;stroke-width:0.4654;" x1="389.0335" x2="611.3254" y1="36.2974" y2="36.2974"/><line style="stroke:#181818;stroke-width:0.4654;" x1="389.0335" x2="611.3254" y1="43.743" y2="43.743"/><text fill="#000000" font-family="sans-serif" font-size="13.0298" lengthAdjust="spacing" textLength="79.3774" x="393.687" y="61.3946">int evaluate()</text><text fill="#000000" font-family="sans-serif" font-size="13.0298" lengthAdjust="spacing" textLength="116.6817" x="393.687" y="79.1412">int countProducts()</text><text fill="#000000" font-family="sans-serif" font-size="13.0298" lengthAdjust="spacing" textLength="159.9666" x="393.687" y="96.8877">int countDistinctIntegers()</text><text fill="#000000" font-family="sans-serif" font-size="13.0298" lengthAdjust="spacing" textLength="212.9848" x="393.687" y="114.6343">int countSubExpressions(int result)</text></g><!--class Operation--><g class="entity" data-entity="Operation" data-source-line="10" data-uid="ent0003" id="entity_Operation"><rect fill="#F1F1F1" height="80.1668" rx="2.3268" ry="2.3268" style="stroke:#181818;stroke-width:0.4654;" width="208.1006" x="271.4114" y="213.4473"/><ellipse cx="342.2087" cy="228.3385" fill="#B4A7E5" rx="10.2377" ry="10.2377" style="stroke:#181818;stroke-width:0.9307;"/><path d="M338.515,234.3881 L338.515,232.8029 L340.7109,232.5557 L340.7109,224.9211 L338.515,224.6738 L338.515,223.0887 L345.1608,223.0887 L345.1608,224.6738 L342.9067,224.9211 L342.9067,232.5557 L345.1608,232.8029 L345.1608,234.3881 L338.515,234.3881 Z " fill="#000000"/><text fill="#000000" font-family="sans-serif" font-size="13.0298" font-style="italic" lengthAdjust="spacing" textLength="58.5949" x="361.2881" y="233.394">Operation</text><line style="stroke:#181818;stroke-width:0.4654;" x1="272.3421" x2="478.5812" y1="243.2297" y2="243.2297"/><line style="stroke:#181818;stroke-width:0.4654;" x1="272.3421" x2="478.5812" y1="250.6753" y2="250.6753"/><text fill="#000000" font-family="sans-serif" font-size="13.0298" lengthAdjust="spacing" textLength="178.6774" x="276.9956" y="268.327">Expression getFirstOperand()</text><text fill="#000000" font-family="sans-serif" font-size="13.0298" lengthAdjust="spacing" textLength="196.9321" x="276.9956" y="286.0735">Expression getSecondOperand()</text></g><!--class AbstractOperation--><g class="entity" data-entity="AbstractOperation" data-source-line="15" data-uid="ent0004" id="entity_AbstractOperation"><rect fill="#F1F1F1" height="133.4065" rx="2.3268" ry="2.3268" style="stroke:#181818;stroke-width:0.4654;" width="208.1006" x="271.4114" y="384.8919"/><ellipse cx="318.3903" cy="399.7831" fill="#A9DCDF" rx="10.2377" ry="10.2377" style="stroke:#181818;stroke-width:0.9307;"/><path d="M313.8967,405.1347 L317.0088,393.7918 L319.9318,393.7918 L323.0729,405.1347 L320.7752,405.1347 L320.0917,402.328 L316.8197,402.328 L316.1217,405.1347 L313.8967,405.1347 Z M317.9976,397.6454 L317.2996,400.4375 L319.6409,400.4375 L318.972,397.6454 Q318.8411,397.1074 318.7247,396.5984 Q318.6084,396.0749 318.4775,395.5368 Q318.3757,396.0749 318.2449,396.5984 Q318.114,397.1074 317.9976,397.6454 Z " fill="#000000"/><text fill="#000000" font-family="sans-serif" font-size="13.0298" font-style="italic" lengthAdjust="spacing" textLength="106.2318" x="337.4697" y="404.8387">AbstractOperation</text><line style="stroke:#181818;stroke-width:0.4654;" x1="272.3421" x2="478.5812" y1="414.6744" y2="414.6744"/><text fill="#000000" font-family="sans-serif" font-size="13.0298" lengthAdjust="spacing" textLength="148.5135" x="276.9956" y="432.326">Expression firstOperand</text><text fill="#000000" font-family="sans-serif" font-size="13.0298" lengthAdjust="spacing" textLength="168.1363" x="276.9956" y="450.0726">Expression secondOperand</text><line style="stroke:#181818;stroke-width:0.4654;" x1="272.3421" x2="478.5812" y1="457.6131" y2="457.6131"/><text fill="#000000" font-family="sans-serif" font-size="13.0298" lengthAdjust="spacing" textLength="178.6774" x="276.9956" y="475.2647">Expression getFirstOperand()</text><text fill="#000000" font-family="sans-serif" font-size="13.0298" lengthAdjust="spacing" textLength="196.9321" x="276.9956" y="493.0113">Expression getSecondOperand()</text><text fill="#000000" font-family="sans-serif" font-size="13.0298" lengthAdjust="spacing" textLength="159.9666" x="276.9956" y="510.7579">int countDistinctIntegers()</text></g><!--class Sum--><g class="entity" data-entity="Sum" data-source-line="24" data-uid="ent0005" id="entity_Sum"><rect fill="#F1F1F1" height="97.9134" rx="2.3268" ry="2.3268" style="stroke:#181818;stroke-width:0.4654;" width="224.1532" x="6.5149" y="591.8242"/><ellipse cx="100.9417" cy="606.7155" fill="#ADD1B2" rx="10.2377" ry="10.2377" style="stroke:#181818;stroke-width:0.9307;"/><path d="M100.4473,613.1577 Q98.8186,613.1577 97.757,612.4742 Q96.71,611.7762 96.1864,610.5255 Q95.6775,609.2604 95.6775,607.588 Q95.6775,605.6975 96.2882,604.3451 Q96.899,602.9927 98.0915,602.2656 Q99.2839,601.5385 101.029,601.5385 Q101.8579,601.5385 102.4832,601.713 Q103.1085,601.8729 103.7484,602.1929 L102.9922,604.0688 Q102.4105,603.778 101.9015,603.6616 Q101.4071,603.5453 100.9563,603.5453 Q99.8656,603.5453 99.2112,604.0397 Q98.5568,604.5341 98.2805,605.4212 Q98.0042,606.3083 98.0042,607.4862 Q98.0042,609.3622 98.6732,610.2638 Q99.3421,611.1509 100.8254,611.1509 Q101.378,611.1509 101.9597,611.0054 Q102.5414,610.86 103.3121,610.511 L103.3121,612.576 Q102.6286,612.8668 101.887,613.0123 Q101.1599,613.1577 100.4473,613.1577 Z " fill="#000000"/><text fill="#000000" font-family="sans-serif" font-size="13.0298" lengthAdjust="spacing" textLength="27.3886" x="120.0211" y="611.771">Sum</text><line style="stroke:#181818;stroke-width:0.4654;" x1="7.4456" x2="229.7374" y1="621.6067" y2="621.6067"/><line style="stroke:#181818;stroke-width:0.4654;" x1="7.4456" x2="229.7374" y1="629.0523" y2="629.0523"/><text fill="#000000" font-family="sans-serif" font-size="13.0298" lengthAdjust="spacing" textLength="79.3774" x="12.0991" y="646.704">int evaluate()</text><text fill="#000000" font-family="sans-serif" font-size="13.0298" lengthAdjust="spacing" textLength="116.6817" x="12.0991" y="664.4505">int countProducts()</text><text fill="#000000" font-family="sans-serif" font-size="13.0298" lengthAdjust="spacing" textLength="212.9848" x="12.0991" y="682.1971">int countSubExpressions(int result)</text></g><!--class Product--><g class="entity" data-entity="Product" data-source-line="30" data-uid="ent0006" id="entity_Product"><rect fill="#F1F1F1" height="97.9134" rx="2.3268" ry="2.3268" style="stroke:#181818;stroke-width:0.4654;" width="224.1532" x="263.3887" y="591.8242"/><ellipse cx="347.4243" cy="606.7155" fill="#ADD1B2" rx="10.2377" ry="10.2377" style="stroke:#181818;stroke-width:0.9307;"/><path d="M346.9299,613.1577 Q345.3011,613.1577 344.2396,612.4742 Q343.1925,611.7762 342.669,610.5255 Q342.16,609.2604 342.16,607.588 Q342.16,605.6975 342.7708,604.3451 Q343.3816,602.9927 344.574,602.2656 Q345.7665,601.5385 347.5116,601.5385 Q348.3405,601.5385 348.9658,601.713 Q349.5911,601.8729 350.231,602.1929 L349.4748,604.0688 Q348.8931,603.778 348.3841,603.6616 Q347.8897,603.5453 347.4389,603.5453 Q346.3482,603.5453 345.6938,604.0397 Q345.0394,604.5341 344.7631,605.4212 Q344.4868,606.3083 344.4868,607.4862 Q344.4868,609.3622 345.1557,610.2638 Q345.8247,611.1509 347.308,611.1509 Q347.8606,611.1509 348.4423,611.0054 Q349.024,610.86 349.7947,610.511 L349.7947,612.576 Q349.1112,612.8668 348.3696,613.0123 Q347.6424,613.1577 346.9299,613.1577 Z " fill="#000000"/><text fill="#000000" font-family="sans-serif" font-size="13.0298" lengthAdjust="spacing" textLength="48.1711" x="366.5037" y="611.771">Product</text><line style="stroke:#181818;stroke-width:0.4654;" x1="264.3194" x2="486.6113" y1="621.6067" y2="621.6067"/><line style="stroke:#181818;stroke-width:0.4654;" x1="264.3194" x2="486.6113" y1="629.0523" y2="629.0523"/><text fill="#000000" font-family="sans-serif" font-size="13.0298" lengthAdjust="spacing" textLength="79.3774" x="268.9729" y="646.704">int evaluate()</text><text fill="#000000" font-family="sans-serif" font-size="13.0298" lengthAdjust="spacing" textLength="116.6817" x="268.9729" y="664.4505">int countProducts()</text><text fill="#000000" font-family="sans-serif" font-size="13.0298" lengthAdjust="spacing" textLength="212.9848" x="268.9729" y="682.1971">int countSubExpressions(int result)</text></g><!--class Division--><g class="entity" data-entity="Division" data-source-line="36" data-uid="ent0007" id="entity_Division"><rect fill="#F1F1F1" height="97.9134" rx="2.3268" ry="2.3268" style="stroke:#181818;stroke-width:0.4654;" width="224.1532" x="520.2626" y="591.8242"/><ellipse cx="604.1874" cy="606.7155" fill="#ADD1B2" rx="10.2377" ry="10.2377" style="stroke:#181818;stroke-width:0.9307;"/><path d="M603.693,613.1577 Q602.0642,613.1577 601.0026,612.4742 Q599.9556,611.7762 599.4321,610.5255 Q598.9231,609.2604 598.9231,607.588 Q598.9231,605.6975 599.5339,604.3451 Q600.1446,602.9927 601.3371,602.2656 Q602.5296,601.5385 604.2746,601.5385 Q605.1035,601.5385 605.7289,601.713 Q606.3542,601.8729 606.994,602.1929 L606.2378,604.0688 Q605.6562,603.778 605.1472,603.6616 Q604.6527,603.5453 604.2019,603.5453 Q603.1113,603.5453 602.4569,604.0397 Q601.8025,604.5341 601.5262,605.4212 Q601.2499,606.3083 601.2499,607.4862 Q601.2499,609.3622 601.9188,610.2638 Q602.5877,611.1509 604.071,611.1509 Q604.6237,611.1509 605.2053,611.0054 Q605.787,610.86 606.5578,610.511 L606.5578,612.576 Q605.8743,612.8668 605.1326,613.0123 Q604.4055,613.1577 603.693,613.1577 Z " fill="#000000"/><text fill="#000000" font-family="sans-serif" font-size="13.0298" lengthAdjust="spacing" textLength="48.3926" x="623.2668" y="611.771">Division</text><line style="stroke:#181818;stroke-width:0.4654;" x1="521.1933" x2="743.4851" y1="621.6067" y2="621.6067"/><line style="stroke:#181818;stroke-width:0.4654;" x1="521.1933" x2="743.4851" y1="629.0523" y2="629.0523"/><text fill="#000000" font-family="sans-serif" font-size="13.0298" lengthAdjust="spacing" textLength="79.3774" x="525.8468" y="646.704">int evaluate()</text><text fill="#000000" font-family="sans-serif" font-size="13.0298" lengthAdjust="spacing" textLength="116.6817" x="525.8468" y="664.4505">int countProducts()</text><text fill="#000000" font-family="sans-serif" font-size="13.0298" lengthAdjust="spacing" textLength="212.9848" x="525.8468" y="682.1971">int countSubExpressions(int result)</text></g><!--class IntegerValue--><g class="entity" data-entity="IntegerValue" data-source-line="42" data-uid="ent0008" id="entity_IntegerValue"><rect fill="#F1F1F1" height="115.6599" rx="2.3268" ry="2.3268" style="stroke:#181818;stroke-width:0.4654;" width="224.1532" x="511.8862" y="195.7081"/><ellipse cx="580.4294" cy="210.5993" fill="#ADD1B2" rx="10.2377" ry="10.2377" style="stroke:#181818;stroke-width:0.9307;"/><path d="M579.935,217.0415 Q578.3062,217.0415 577.2447,216.358 Q576.1976,215.66 575.6741,214.4094 Q575.1651,213.1442 575.1651,211.4718 Q575.1651,209.5813 575.7759,208.2289 Q576.3867,206.8765 577.5791,206.1494 Q578.7716,205.4223 580.5167,205.4223 Q581.3456,205.4223 581.9709,205.5968 Q582.5962,205.7567 583.2361,206.0767 L582.4799,207.9526 Q581.8982,207.6618 581.3892,207.5454 Q580.8948,207.4291 580.4439,207.4291 Q579.3533,207.4291 578.6989,207.9235 Q578.0445,208.418 577.7682,209.305 Q577.4919,210.1921 577.4919,211.37 Q577.4919,213.246 578.1608,214.1476 Q578.8298,215.0347 580.3131,215.0347 Q580.8657,215.0347 581.4474,214.8893 Q582.0291,214.7438 582.7998,214.3948 L582.7998,216.4598 Q582.1163,216.7507 581.3747,216.8961 Q580.6475,217.0415 579.935,217.0415 Z " fill="#000000"/><text fill="#000000" font-family="sans-serif" font-size="13.0298" lengthAdjust="spacing" textLength="79.1559" x="599.5088" y="215.6549">IntegerValue</text><line style="stroke:#181818;stroke-width:0.4654;" x1="512.8169" x2="735.1088" y1="225.4905" y2="225.4905"/><line style="stroke:#181818;stroke-width:0.4654;" x1="512.8169" x2="735.1088" y1="232.9362" y2="232.9362"/><text fill="#000000" font-family="sans-serif" font-size="13.0298" lengthAdjust="spacing" textLength="79.3774" x="517.4704" y="250.5878">int evaluate()</text><text fill="#000000" font-family="sans-serif" font-size="13.0298" lengthAdjust="spacing" textLength="116.6817" x="517.4704" y="268.3343">int countProducts()</text><text fill="#000000" font-family="sans-serif" font-size="13.0298" lengthAdjust="spacing" textLength="159.9666" x="517.4704" y="286.0809">int countDistinctIntegers()</text><text fill="#000000" font-family="sans-serif" font-size="13.0298" lengthAdjust="spacing" textLength="212.9848" x="517.4704" y="303.8275">int countSubExpressions(int result)</text></g><!--reverse link Expression to Operation--><g class="link" data-entity-1="Expression" data-entity-2="Operation" data-source-line="50" data-uid="lnk9" id="link_Expression_Operation"><path codeLine="50" d="M452.8008,136.4442 C433.2468,165.8171 419.1976,186.9129 401.6818,213.2239" fill="none" id="Expression-backto-Operation" style="stroke:#181818;stroke-width:0.9307;stroke-dasharray:7.0,7.0;"/><polygon fill="none" points="462.0844,122.499,448.1525,133.3497,457.4492,139.5387,462.0844,122.499" style="stroke:#181818;stroke-width:0.9307;"/><text fill="#000000" font-family="sans-serif" font-size="12.0991" lengthAdjust="spacing" textLength="45.1298" x="442.4931" y="163.9683">extends</text></g><!--reverse link Operation to AbstractOperation--><g class="link" data-entity-1="Operation" data-entity-2="AbstractOperation" data-source-line="52" data-uid="lnk10" id="link_Operation_AbstractOperation"><path codeLine="52" d="M375.4639,299.5186 C375.4639,325.4759 375.4639,354.5045 375.4639,384.6034" fill="none" id="Operation-backto-AbstractOperation" style="stroke:#181818;stroke-width:0.9307;"/><polygon fill="#181818" points="375.4639,293.9344,371.7411,302.3107,375.4639,298.5879,379.1867,302.3107,375.4639,293.9344" style="stroke:#181818;stroke-width:0.9307;"/><text fill="#000000" font-family="sans-serif" font-size="12.0991" lengthAdjust="spacing" textLength="67.5979" x="376.3946" y="353.1522">implements</text></g><!--reverse link Expression to IntegerValue--><g class="link" data-entity-1="Expression" data-entity-2="IntegerValue" data-source-line="53" data-uid="lnk11" id="link_Expression_IntegerValue"><path codeLine="53" d="M541.0701,127.1586 C556.3522,150.2959 570.8834,172.2823 586.1656,195.4102" fill="none" id="Expression-backto-IntegerValue" style="stroke:#181818;stroke-width:0.9307;"/><polygon fill="#181818" points="537.9924,122.499,539.5025,131.5401,540.5571,126.382,545.7153,127.4366,537.9924,122.499" style="stroke:#181818;stroke-width:0.9307;"/><text fill="#000000" font-family="sans-serif" font-size="12.0991" lengthAdjust="spacing" textLength="67.5979" x="566.7139" y="163.9683">implements</text></g><!--reverse link AbstractOperation to Sum--><g class="link" data-entity-1="AbstractOperation" data-entity-2="Sum" data-source-line="55" data-uid="lnk12" id="link_AbstractOperation_Sum"><path codeLine="55" d="M271.3614,528.4394 C238.4331,552.4515 215.3831,569.264 184.9398,591.4613" fill="none" id="AbstractOperation-backto-Sum" style="stroke:#181818;stroke-width:0.9307;"/><polygon fill="none" points="284.8973,518.5687,268.0711,523.9274,274.6516,532.9513,284.8973,518.5687" style="stroke:#181818;stroke-width:0.9307;"/><text fill="#000000" font-family="sans-serif" font-size="12.0991" lengthAdjust="spacing" textLength="45.1298" x="240.2608" y="560.0845">extends</text></g><!--reverse link AbstractOperation to Product--><g class="link" data-entity-1="AbstractOperation" data-entity-2="Product" data-source-line="56" data-uid="lnk13" id="link_AbstractOperation_Product"><path codeLine="56" d="M375.4639,535.3213 C375.4639,559.3334 375.4639,569.264 375.4639,591.4613" fill="none" id="AbstractOperation-backto-Product" style="stroke:#181818;stroke-width:0.9307;"/><polygon fill="none" points="375.4639,518.5687,369.8797,535.3213,381.0481,535.3213,375.4639,518.5687" style="stroke:#181818;stroke-width:0.9307;"/><text fill="#000000" font-family="sans-serif" font-size="12.0991" lengthAdjust="spacing" textLength="45.1298" x="376.3946" y="560.0845">extends</text></g><!--reverse link AbstractOperation to Division--><g class="link" data-entity-1="AbstractOperation" data-entity-2="Division" data-source-line="57" data-uid="lnk14" id="link_AbstractOperation_Division"><path codeLine="57" d="M479.5664,528.4394 C512.4947,552.4515 535.5447,569.264 565.9973,591.4613" fill="none" id="AbstractOperation-backto-Division" style="stroke:#181818;stroke-width:0.9307;"/><polygon fill="none" points="466.0305,518.5687,476.2762,532.9513,482.8566,523.9274,466.0305,518.5687" style="stroke:#181818;stroke-width:0.9307;"/><text fill="#000000" font-family="sans-serif" font-size="12.0991" lengthAdjust="spacing" textLength="45.1298" x="527.8385" y="560.0845">extends</text></g><!--SRC=[lLB1JW8n4BttA-O81uWNGqBsOe8cdZJPn7jf1spIxMuwKo0H_zq2YsrLq63qs7blthpEF5BI8aokhs1jD3yBOHoZNqY5SBlfF1APri6B08W0u4hQ81a7mxwWsk3uqRSwAAQoEZF4nYc-Zu9Bz1_GEioJFWrszVW8beVYDJVnqA6NVFIGMLeYtnbFl2SulLSluHfLwtJ2ewwS4tkfeWShYU2cVvuSiiWcb0ZbukAtriwlBHe_-Ar3Sz4fpY_xeDrt_fd-pApCnLdwoO1-OKzH5Vyzi2AxRxKTZxFSJW4tZ4wJ4AbOZKPVf6yAfkaiDkYO2iN8BhvN4CLdeMeREtPfISDFa8vd_vRuVh_4V0C0]--></g></svg>