<?xml version="1.0" encoding="us-ascii" standalone="no"?><svg xmlns="http://www.w3.org/2000/svg" xmlns:xlink="http://www.w3.org/1999/xlink" contentStyleType="text/css" height="493.4783px" preserveAspectRatio="none" style="width:502px;height:493px;background:#FFFFFF;" version="1.1" viewBox="0 0 502 493" width="502.1739px" zoomAndPan="magnify"><defs/><g><!--class Unit--><g id="elem_Unit"><rect codeLine="3" fill="#F1F1F1" height="145.7998" id="Unit" rx="5.4348" ry="5.4348" style="stroke:#181818;stroke-width:1.0869565217391304;" width="167.3913" x="168.4783" y="15.2174"/><ellipse cx="219.6739" cy="50" fill="#A9DCDF" rx="23.913" ry="23.913" style="stroke:#181818;stroke-width:2.1739130434782608;"/><path d="M209.178,62.5 L216.447,36.0054 L223.2745,36.0054 L230.6114,62.5 L225.2446,62.5 L223.6481,55.9443 L216.0054,55.9443 L214.375,62.5 L209.178,62.5 Z M218.7568,45.0068 L217.1264,51.5285 L222.5951,51.5285 L221.0326,45.0068 Q220.7269,43.75 220.4552,42.5611 Q220.1834,41.3383 219.8777,40.0815 Q219.6399,41.3383 219.3342,42.5611 Q219.0285,43.75 218.7568,45.0068 Z " fill="#000000"/><text fill="#000000" font-family="sans-serif" font-size="30.4348" font-style="italic" lengthAdjust="spacing" textLength="56.5217" x="254.2391" y="61.8086">Unit</text><line style="stroke:#181818;stroke-width:1.0869565217391304;" x1="170.6522" x2="333.6957" y1="84.7826" y2="84.7826"/><text fill="#000000" font-family="sans-serif" font-size="30.4348" lengthAdjust="spacing" textLength="141.3043" x="181.5217" y="126.0129">int health</text><line style="stroke:#181818;stroke-width:1.0869565217391304;" x1="170.6522" x2="333.6957" y1="143.6259" y2="143.6259"/></g><!--class Unicorn--><g id="elem_Unicorn"><rect codeLine="7" fill="#F1F1F1" height="145.7998" id="Unicorn" rx="5.4348" ry="5.4348" style="stroke:#181818;stroke-width:1.0869565217391304;" width="200" x="15.2174" y="332.7609"/><ellipse cx="54.6739" cy="367.5435" fill="#ADD1B2" rx="23.913" ry="23.913" style="stroke:#181818;stroke-width:2.1739130434782608;"/><path d="M53.519,382.591 Q49.7147,382.591 47.2351,380.9946 Q44.7894,379.3641 43.5666,376.4429 Q42.3777,373.4878 42.3777,369.5815 Q42.3777,365.1658 43.8043,362.0068 Q45.231,358.8478 48.0163,357.1495 Q50.8016,355.4511 54.8777,355.4511 Q56.8139,355.4511 58.2745,355.8587 Q59.7351,356.2323 61.2296,356.9796 L59.4633,361.3614 Q58.1046,360.6821 56.9158,360.4103 Q55.7609,360.1386 54.7079,360.1386 Q52.1603,360.1386 50.6318,361.2935 Q49.1033,362.4484 48.4579,364.5204 Q47.8125,366.5924 47.8125,369.3437 Q47.8125,373.7255 49.375,375.8315 Q50.9375,377.9035 54.4022,377.9035 Q55.6929,377.9035 57.0516,377.5639 Q58.4103,377.2242 60.2106,376.409 L60.2106,381.2323 Q58.6141,381.9117 56.8818,382.2514 Q55.1834,382.591 53.519,382.591 Z " fill="#000000"/><text fill="#000000" font-family="sans-serif" font-size="30.4348" lengthAdjust="spacing" textLength="115.2174" x="86.6304" y="379.3521">Unicorn</text><line style="stroke:#181818;stroke-width:1.0869565217391304;" x1="17.3913" x2="213.0435" y1="402.3261" y2="402.3261"/><line style="stroke:#181818;stroke-width:1.0869565217391304;" x1="17.3913" x2="213.0435" y1="419.7174" y2="419.7174"/><text fill="#000000" font-family="sans-serif" font-size="30.4348" lengthAdjust="spacing" textLength="173.913" x="28.2609" y="460.9477">void regen()</text></g><!--class Butterfly--><g id="elem_Butterfly"><rect codeLine="11" fill="#F1F1F1" height="104.3478" id="Butterfly" rx="5.4348" ry="5.4348" style="stroke:#181818;stroke-width:1.0869565217391304;" width="195.6522" x="291.3043" y="353.5"/><ellipse cx="323.913" cy="388.2826" fill="#ADD1B2" rx="23.913" ry="23.913" style="stroke:#181818;stroke-width:2.1739130434782608;"/><path d="M322.7582,403.3302 Q318.9538,403.3302 316.4742,401.7337 Q314.0285,400.1033 312.8057,397.1821 Q311.6168,394.2269 311.6168,390.3207 Q311.6168,385.9049 313.0435,382.7459 Q314.4701,379.587 317.2554,377.8886 Q320.0408,376.1902 324.1168,376.1902 Q326.053,376.1902 327.5136,376.5978 Q328.9742,376.9715 330.4688,377.7187 L328.7024,382.1005 Q327.3438,381.4212 326.1549,381.1495 Q325,380.8777 323.947,380.8777 Q321.3995,380.8777 319.8709,382.0326 Q318.3424,383.1875 317.697,385.2595 Q317.0516,387.3315 317.0516,390.0829 Q317.0516,394.4647 318.6141,396.5707 Q320.1766,398.6427 323.6413,398.6427 Q324.9321,398.6427 326.2908,398.303 Q327.6495,397.9633 329.4497,397.1481 L329.4497,401.9715 Q327.8533,402.6508 326.1209,402.9905 Q324.4226,403.3302 322.7582,403.3302 Z " fill="#000000"/><text fill="#000000" font-family="sans-serif" font-size="30.4348" lengthAdjust="spacing" textLength="126.087" x="354.3478" y="400.0913">Butterfly</text><line style="stroke:#181818;stroke-width:1.0869565217391304;" x1="293.4783" x2="484.7826" y1="423.0652" y2="423.0652"/><line style="stroke:#181818;stroke-width:1.0869565217391304;" x1="293.4783" x2="484.7826" y1="440.4565" y2="440.4565"/></g><!--reverse link Unit to Unicorn--><g id="link_Unit_Unicorn"><path codeLine="14" d="M199.8412,197.1321 C189.9064,217.7842 196.2609,205.1739 186.9565,226.2391 C171.6739,260.8696 155.7609,299.8043 142.8261,332.3478 " fill="none" id="Unit-backto-Unicorn" style="stroke:#181818;stroke-width:2.1739130434782608;"/><polygon fill="none" points="216.8043,161.8696,188.0871,191.4777,211.5954,202.7864,216.8043,161.8696" style="stroke:#181818;stroke-width:2.1739130434782608;"/><text fill="#000000" font-family="sans-serif" font-size="28.2609" lengthAdjust="spacing" textLength="104.3478" x="189.1304" y="258.6239">extends</text></g><!--reverse link Unit to Butterfly--><g id="link_Unit_Butterfly"><path codeLine="15" d="M298.9353,197.2235 C324.5005,255.7017 344.4348,301.2609 367.1304,353.1739 " fill="none" id="Unit-backto-Butterfly" style="stroke:#181818;stroke-width:2.1739130434782608;"/><polygon fill="none" points="283.2609,161.3696,286.984,202.4483,310.8866,191.9987,283.2609,161.3696" style="stroke:#181818;stroke-width:2.1739130434782608;"/><text fill="#000000" font-family="sans-serif" font-size="28.2609" lengthAdjust="spacing" textLength="104.3478" x="330.4348" y="258.6239">extends</text></g><!--SRC=[JOmx3i8m40NxFSKheOYKXYQYuWuSO6DlY2Lh8tatV0JS7KCHqxwPUHOu2mvzZrkAFXFnQ5uuE49cCvmrEPw4f8vPE5VbJRIni1JzukkI8efSH7Vx9fnMTobJVbIbZh-luwlhjdA0t5qqsXzhKQCV]--></g></svg>