<?xml version="1.0" encoding="us-ascii" standalone="no"?><svg xmlns="http://www.w3.org/2000/svg" xmlns:xlink="http://www.w3.org/1999/xlink" contentStyleType="text/css" height="222.4752px" preserveAspectRatio="none" style="width:212px;height:222px;background:#FFFFFF;" version="1.1" viewBox="0 0 212 222" width="212.0792px" zoomAndPan="magnify"><defs/><g><!--class Node--><g id="elem_Node"><rect codeLine="3" fill="#F1F1F1" height="179.0943" id="Node" rx="5.198" ry="5.198" style="stroke:#181818;stroke-width:1.0396039603960396;" width="168.4158" x="14.5545" y="14.5545"/><ellipse cx="57.9059" cy="47.8218" fill="#ADD1B2" rx="22.8713" ry="22.8713" style="stroke:#181818;stroke-width:2.0792079207920793;"/><path d="M56.8014,62.2138 Q53.1627,62.2138 50.7912,60.6869 Q48.452,59.1275 47.2825,56.3335 Q46.1454,53.5071 46.1454,49.771 Q46.1454,45.5476 47.5099,42.5263 Q48.8744,39.505 51.5384,37.8806 Q54.2024,36.2562 58.1009,36.2562 Q59.9527,36.2562 61.3496,36.646 Q62.7466,37.0034 64.1761,37.7181 L62.4867,41.909 Q61.1872,41.2593 60.0501,40.9994 Q58.9455,40.7395 57.9384,40.7395 Q55.5019,40.7395 54.0399,41.8441 Q52.578,42.9486 51.9607,44.9304 Q51.3434,46.9121 51.3434,49.5436 Q51.3434,53.7345 52.8379,55.7488 Q54.3323,57.7305 57.646,57.7305 Q58.8806,57.7305 60.1801,57.4056 Q61.4796,57.0808 63.2014,56.3011 L63.2014,60.9143 Q61.6745,61.564 60.0176,61.8889 Q58.3933,62.2138 56.8014,62.2138 Z " fill="#000000"/><text fill="#000000" font-family="sans-serif" font-size="29.1089" lengthAdjust="spacing" textLength="74.8515" x="89.7178" y="59.116">Node</text><line style="stroke:#181818;stroke-width:1.0396039603960396;" x1="16.6337" x2="180.8911" y1="81.0891" y2="81.0891"/><text fill="#000000" font-family="sans-serif" font-size="29.1089" lengthAdjust="spacing" textLength="139.3069" x="27.0297" y="120.5232">char label</text><text fill="#000000" font-family="sans-serif" font-size="29.1089" lengthAdjust="spacing" textLength="143.4653" x="27.0297" y="160.1694">Node next</text><line style="stroke:#181818;stroke-width:1.0396039603960396;" x1="16.6337" x2="180.8911" y1="177.0151" y2="177.0151"/></g><!--SRC=[AqvEp4bLC38qK2ZFJ2d9uE9ApaaiBbRmoqz9LQZcKaZEI2nIo4bCIitXWeZbfLQKSDLo0G00]--></g></svg>