<?xml version="1.0" encoding="us-ascii" standalone="no"?><svg xmlns="http://www.w3.org/2000/svg" xmlns:xlink="http://www.w3.org/1999/xlink" contentStyleType="text/css" height="588.1657px" preserveAspectRatio="none" style="width:801px;height:588px;background:#FFFFFF;" version="1.1" viewBox="0 0 801 588" width="801.0407px" zoomAndPan="magnify"><defs/><g><!--class Unit--><g id="elem_Unit"><rect codeLine="3" fill="#F1F1F1" height="105.7562" id="Unit" rx="3.9421" ry="3.9421" style="stroke:#181818;stroke-width:0.7884259076753263;" width="138.763" x="337.194" y="11.038"/><ellipse cx="382.1343" cy="36.2676" fill="#B4A7E5" rx="17.3454" ry="17.3454" style="stroke:#181818;stroke-width:1.5768518153506526;"/><path d="M375.8761,46.5171 L375.8761,43.8316 L379.5965,43.4127 L379.5965,30.4776 L375.8761,30.0587 L375.8761,27.3732 L387.1358,27.3732 L387.1358,30.0587 L383.3169,30.4776 L383.3169,43.4127 L387.1358,43.8316 L387.1358,46.5171 L375.8761,46.5171 Z " fill="#000000"/><text fill="#000000" font-family="sans-serif" font-size="22.0759" font-style="italic" lengthAdjust="spacing" textLength="40.9981" x="408.9407" y="44.833">Unit</text><line style="stroke:#181818;stroke-width:0.7884259076753263;" x1="338.7708" x2="474.3801" y1="61.4972" y2="61.4972"/><line style="stroke:#181818;stroke-width:0.7884259076753263;" x1="338.7708" x2="474.3801" y1="74.112" y2="74.112"/><text fill="#000000" font-family="sans-serif" font-size="22.0759" lengthAdjust="spacing" textLength="119.8407" x="346.6551" y="104.0185">void sleep()</text></g><!--class Animal--><g id="elem_Animal"><rect codeLine="7" fill="#F1F1F1" height="105.7562" id="Animal" rx="3.9421" ry="3.9421" style="stroke:#181818;stroke-width:0.7884259076753263;" width="129.3018" x="135.357" y="241.3529"/><ellipse cx="163.2672" cy="266.5826" fill="#B4A7E5" rx="17.3454" ry="17.3454" style="stroke:#181818;stroke-width:1.5768518153506526;"/><path d="M157.0091,276.8321 L157.0091,274.1465 L160.7295,273.7277 L160.7295,260.7926 L157.0091,260.3737 L157.0091,257.6881 L168.2688,257.6881 L168.2688,260.3737 L164.4499,260.7926 L164.4499,273.7277 L168.2688,274.1465 L168.2688,276.8321 L157.0091,276.8321 Z " fill="#000000"/><text fill="#000000" font-family="sans-serif" font-size="22.0759" font-style="italic" lengthAdjust="spacing" textLength="69.3815" x="186.2893" y="275.148">Animal</text><line style="stroke:#181818;stroke-width:0.7884259076753263;" x1="136.9338" x2="263.082" y1="291.8122" y2="291.8122"/><line style="stroke:#181818;stroke-width:0.7884259076753263;" x1="136.9338" x2="263.082" y1="304.427" y2="304.427"/><text fill="#000000" font-family="sans-serif" font-size="22.0759" lengthAdjust="spacing" textLength="110.3796" x="144.8181" y="334.3335">void hide()</text></g><!--class ImaginaryCreature--><g id="elem_ImaginaryCreature"><rect codeLine="11" fill="#F1F1F1" height="105.7562" id="ImaginaryCreature" rx="3.9421" ry="3.9421" style="stroke:#181818;stroke-width:0.7884259076753263;" width="241.2583" x="549.2806" y="241.3529"/><ellipse cx="572.9333" cy="266.5826" fill="#B4A7E5" rx="17.3454" ry="17.3454" style="stroke:#181818;stroke-width:1.5768518153506526;"/><path d="M566.6752,276.8321 L566.6752,274.1465 L570.3956,273.7277 L570.3956,260.7926 L566.6752,260.3737 L566.6752,257.6881 L577.9349,257.6881 L577.9349,260.3737 L574.116,260.7926 L574.116,273.7277 L577.9349,274.1465 L577.9349,276.8321 L566.6752,276.8321 Z " fill="#000000"/><text fill="#000000" font-family="sans-serif" font-size="22.0759" font-style="italic" lengthAdjust="spacing" textLength="190.7991" x="595.0093" y="275.148">ImaginaryCreature</text><line style="stroke:#181818;stroke-width:0.7884259076753263;" x1="550.8574" x2="788.962" y1="291.8122" y2="291.8122"/><line style="stroke:#181818;stroke-width:0.7884259076753263;" x1="550.8574" x2="788.962" y1="304.427" y2="304.427"/><text fill="#000000" font-family="sans-serif" font-size="22.0759" lengthAdjust="spacing" textLength="201.837" x="558.7417" y="334.3335">void heal(Unit unit)</text></g><!--class AbstractUnit--><g id="elem_AbstractUnit"><rect codeLine="15" fill="#F1F1F1" height="105.7562" id="AbstractUnit" rx="3.9421" ry="3.9421" style="stroke:#181818;stroke-width:0.7884259076753263;" width="173.4537" x="319.8486" y="241.3529"/><ellipse cx="343.5014" cy="266.5826" fill="#A9DCDF" rx="17.3454" ry="17.3454" style="stroke:#181818;stroke-width:1.5768518153506526;"/><path d="M335.8882,275.6495 L341.1608,256.4316 L346.1131,256.4316 L351.4349,275.6495 L347.5421,275.6495 L346.3841,270.8943 L340.8405,270.8943 L339.6578,275.6495 L335.8882,275.6495 Z M342.8362,262.9607 L341.6535,267.6913 L345.6203,267.6913 L344.4869,262.9607 Q344.2652,262.0491 344.0681,261.1868 Q343.871,260.2998 343.6492,259.3882 Q343.4768,260.2998 343.255,261.1868 Q343.0333,262.0491 342.8362,262.9607 Z " fill="#000000"/><text fill="#000000" font-family="sans-serif" font-size="22.0759" font-style="italic" lengthAdjust="spacing" textLength="122.9944" x="365.5773" y="275.148">AbstractUnit</text><line style="stroke:#181818;stroke-width:0.7884259076753263;" x1="321.4255" x2="491.7255" y1="291.8122" y2="291.8122"/><line style="stroke:#181818;stroke-width:0.7884259076753263;" x1="321.4255" x2="491.7255" y1="304.427" y2="304.427"/><text fill="#000000" font-family="sans-serif" font-size="22.0759" lengthAdjust="spacing" textLength="119.8407" x="329.3097" y="334.3335">void sleep()</text></g><!--class Butterfly--><g id="elem_Butterfly"><rect codeLine="19" fill="#F1F1F1" height="105.7562" id="Butterfly" rx="3.9421" ry="3.9421" style="stroke:#181818;stroke-width:0.7884259076753263;" width="141.9167" x="48.6301" y="471.6837"/><ellipse cx="72.2829" cy="496.9133" fill="#ADD1B2" rx="17.3454" ry="17.3454" style="stroke:#181818;stroke-width:1.5768518153506526;"/><path d="M71.4452,507.8281 Q68.6857,507.8281 66.8871,506.6701 Q65.1131,505.4874 64.2262,503.3685 Q63.3638,501.225 63.3638,498.3916 Q63.3638,495.1886 64.3986,492.8973 Q65.4334,490.6059 67.4538,489.374 Q69.4741,488.1421 72.4307,488.1421 Q73.8351,488.1421 74.8945,488.4377 Q75.954,488.7088 77.0381,489.2508 L75.7569,492.4291 Q74.7714,491.9364 73.909,491.7393 Q73.0713,491.5422 72.3075,491.5422 Q70.4597,491.5422 69.3509,492.3799 Q68.2422,493.2176 67.7741,494.7205 Q67.3059,496.2234 67.3059,498.2191 Q67.3059,501.3975 68.4393,502.9251 Q69.5727,504.428 72.0858,504.428 Q73.022,504.428 74.0076,504.1816 Q74.9931,503.9352 76.2989,503.3439 L76.2989,506.8426 Q75.1409,507.3353 73.8844,507.5817 Q72.6525,507.8281 71.4452,507.8281 Z " fill="#000000"/><text fill="#000000" font-family="sans-serif" font-size="22.0759" lengthAdjust="spacing" textLength="91.4574" x="94.3588" y="505.4787">Butterfly</text><line style="stroke:#181818;stroke-width:0.7884259076753263;" x1="50.207" x2="188.9699" y1="522.1429" y2="522.1429"/><line style="stroke:#181818;stroke-width:0.7884259076753263;" x1="50.207" x2="188.9699" y1="534.7578" y2="534.7578"/><text fill="#000000" font-family="sans-serif" font-size="22.0759" lengthAdjust="spacing" textLength="110.3796" x="58.0912" y="564.6642">void hide()</text></g><!--class Unicorn--><g id="elem_Unicorn"><rect codeLine="24" fill="#F1F1F1" height="105.7562" id="Unicorn" rx="3.9421" ry="3.9421" style="stroke:#181818;stroke-width:0.7884259076753263;" width="220.7593" x="417.6134" y="471.6837"/><ellipse cx="480.2933" cy="496.9133" fill="#ADD1B2" rx="17.3454" ry="17.3454" style="stroke:#181818;stroke-width:1.5768518153506526;"/><path d="M479.4556,507.8281 Q476.6961,507.8281 474.8975,506.6701 Q473.1235,505.4874 472.2366,503.3685 Q471.3742,501.225 471.3742,498.3916 Q471.3742,495.1886 472.409,492.8973 Q473.4438,490.6059 475.4642,489.374 Q477.4845,488.1421 480.4411,488.1421 Q481.8455,488.1421 482.905,488.4377 Q483.9644,488.7088 485.0485,489.2508 L483.7673,492.4291 Q482.7818,491.9364 481.9194,491.7393 Q481.0817,491.5422 480.3179,491.5422 Q478.4701,491.5422 477.3613,492.3799 Q476.2526,493.2176 475.7845,494.7205 Q475.3164,496.2234 475.3164,498.2191 Q475.3164,501.3975 476.4497,502.9251 Q477.5831,504.428 480.0962,504.428 Q481.0324,504.428 482.018,504.1816 Q483.0035,503.9352 484.3093,503.3439 L484.3093,506.8426 Q483.1513,507.3353 481.8948,507.5817 Q480.6629,507.8281 479.4556,507.8281 Z " fill="#000000"/><text fill="#000000" font-family="sans-serif" font-size="22.0759" lengthAdjust="spacing" textLength="83.5731" x="511.0419" y="505.4787">Unicorn</text><line style="stroke:#181818;stroke-width:0.7884259076753263;" x1="419.1903" x2="636.7958" y1="522.1429" y2="522.1429"/><line style="stroke:#181818;stroke-width:0.7884259076753263;" x1="419.1903" x2="636.7958" y1="534.7578" y2="534.7578"/><text fill="#000000" font-family="sans-serif" font-size="22.0759" lengthAdjust="spacing" textLength="201.837" x="427.0745" y="564.6642">void heal(Unit unit)</text></g><!--reverse link Unit to Animal--><g id="link_Unit_Animal"><path codeLine="31" d="M338.6809,138.3234 C324.773,153.3035 328.9628,148.9021 315.1181,164.0872 C292.1118,189.3326 266.7718,217.5898 245.7366,241.1795 " fill="none" id="Unit-backto-Animal" style="stroke:#181818;stroke-width:1.5768518153506526;stroke-dasharray:7.0,7.0;"/><polygon fill="none" points="357.9927,117.5228,331.7473,131.8862,345.6144,144.7607,357.9927,117.5228" style="stroke:#181818;stroke-width:1.5768518153506526;"/><text fill="#000000" font-family="sans-serif" font-size="20.4991" lengthAdjust="spacing" textLength="75.6889" x="316.6949" y="187.5776">extends</text></g><!--reverse link Unit to ImaginaryCreature--><g id="link_Unit_ImaginaryCreature"><path codeLine="32" d="M498.997,134.7977 C518.0454,149.4939 515.9932,148.4291 534.3005,164.0872 C562.6365,188.3549 592.8805,216.7698 617.6056,240.7064 " fill="none" id="Unit-backto-ImaginaryCreature" style="stroke:#181818;stroke-width:1.5768518153506526;stroke-dasharray:7.0,7.0;"/><polygon fill="none" points="476.5246,117.4597,493.2177,142.2885,504.7763,127.3069,476.5246,117.4597" style="stroke:#181818;stroke-width:1.5768518153506526;"/><text fill="#000000" font-family="sans-serif" font-size="20.4991" lengthAdjust="spacing" textLength="75.6889" x="567.4144" y="187.5776">extends</text></g><!--reverse link Unit to AbstractUnit--><g id="link_Unit_AbstractUnit"><path codeLine="34" d="M406.5755,126.4951 C406.5755,163.6772 406.5755,204.1865 406.5755,241.3214 " fill="none" id="Unit-backto-AbstractUnit" style="stroke:#181818;stroke-width:1.5768518153506526;"/><polygon fill="#181818" points="406.5755,117.0339,400.2681,131.2256,406.5755,124.9182,412.8829,131.2256,406.5755,117.0339" style="stroke:#181818;stroke-width:1.5768518153506526;"/><text fill="#000000" font-family="sans-serif" font-size="20.4991" lengthAdjust="spacing" textLength="111.9565" x="408.1523" y="187.5776">implements</text></g><!--reverse link Animal to Unicorn--><g id="link_Animal_Unicorn"><path codeLine="35" d="M255.991,354.164 C281.331,379.1413 306.8238,401.8765 338.7708,424.3781 C362.9913,441.4554 390.5547,457.4762 417.0142,471.4629 " fill="none" id="Animal-backto-Unicorn" style="stroke:#181818;stroke-width:1.5768518153506526;"/><polygon fill="#181818" points="249.253,347.5224,254.9323,361.9768,254.868,353.0571,263.7878,352.9928,249.253,347.5224" style="stroke:#181818;stroke-width:1.5768518153506526;"/><text fill="#000000" font-family="sans-serif" font-size="20.4991" lengthAdjust="spacing" textLength="111.9565" x="340.3477" y="417.9083">implements</text></g><!--reverse link Animal to Butterfly--><g id="link_Animal_Butterfly"><path codeLine="36" d="M125.8558,317.4891 C86.5607,332.28 48.5513,354.0663 24.9773,394.4179 C9.4611,420.9721 25.1823,448.6774 47.9678,471.5418 " fill="none" id="Animal-backto-Butterfly" style="stroke:#181818;stroke-width:1.5768518153506526;"/><polygon fill="#181818" points="134.7105,314.1562,119.2066,313.2525,127.3316,316.9336,123.6505,325.0586,134.7105,314.1562" style="stroke:#181818;stroke-width:1.5768518153506526;"/><text fill="#000000" font-family="sans-serif" font-size="20.4991" lengthAdjust="spacing" textLength="111.9565" x="26.5542" y="417.9083">implements</text></g><!--reverse link ImaginaryCreature to Unicorn--><g id="link_ImaginaryCreature_Unicorn"><path codeLine="37" d="M632.6979,355.3888 C609.4708,392.571 583.2617,434.5173 560.0662,471.6364 " fill="none" id="ImaginaryCreature-backto-Unicorn" style="stroke:#181818;stroke-width:1.5768518153506526;"/><polygon fill="#181818" points="637.7104,347.3647,624.8422,356.0592,633.5333,354.0515,635.541,362.7426,637.7104,347.3647" style="stroke:#181818;stroke-width:1.5768518153506526;"/><text fill="#000000" font-family="sans-serif" font-size="20.4991" lengthAdjust="spacing" textLength="111.9565" x="608.4125" y="417.9083">implements</text></g><!--reverse link AbstractUnit to Unicorn--><g id="link_AbstractUnit_Unicorn"><path codeLine="39" d="M454.051,371.6802 C463.1809,386.6602 458.107,378.9175 466.4958,394.4179 C479.9149,419.2218 493.5862,447.4317 504.6083,471.1002 " fill="none" id="AbstractUnit-backto-Unicorn" style="stroke:#181818;stroke-width:1.5768518153506526;"/><polygon fill="none" points="439.2794,347.4435,445.9721,376.604,462.1298,366.7563,439.2794,347.4435" style="stroke:#181818;stroke-width:1.5768518153506526;"/><text fill="#000000" font-family="sans-serif" font-size="20.4991" lengthAdjust="spacing" textLength="75.6889" x="483.8412" y="417.9083">extends</text></g><!--reverse link AbstractUnit to Butterfly--><g id="link_AbstractUnit_Butterfly"><path codeLine="40" d="M293.5484,347.4026 C242.963,370.8661 213.0642,385.698 203.1616,394.4179 C179.0042,415.737 159.0097,445.6183 144.6446,471.2106 " fill="none" id="AbstractUnit-backto-Butterfly" style="stroke:#181818;stroke-width:1.5768518153506526;"/><polygon fill="none" points="319.2967,335.4595,289.5674,338.8198,297.5294,355.9853,319.2967,335.4595" style="stroke:#181818;stroke-width:1.5768518153506526;"/><text fill="#000000" font-family="sans-serif" font-size="20.4991" lengthAdjust="spacing" textLength="75.6889" x="204.7384" y="417.9083">extends</text></g><!--SRC=[VOzD3i8W44Rtd6AMkgXnQPfkgYiFu05669M4ee6fFr7lRi7MqbIT1GdmCj_xl4H3i9ZFuQ8L7uJGbidjK19ih6Qu2u3pKIlmXkWqcOfdYfHMLsXwwA0L1GPIQ5tXNbjqjvKZvDfHmXEQISofcoCknwrdXv916lGUolRwK-QDBMiESUOsTX4TqwoGHsV_fZSJ7uh7RDQrou6kJ5Rvv6lSgQTQBCjWQ9-3haw6AhBiHRixKftOJw1lDq364e7-kaqCJ8h7WEl4nqmQ_AaNvWK0]--></g></svg>