<?xml version="1.0" encoding="us-ascii" standalone="no"?><svg xmlns="http://www.w3.org/2000/svg" xmlns:xlink="http://www.w3.org/1999/xlink" contentStyleType="text/css" height="228.2609px" preserveAspectRatio="none" style="width:251px;height:228px;background:#FFFFFF;" version="1.1" viewBox="0 0 251 228" width="251.8116px" zoomAndPan="magnify"><defs/><g><!--class Node--><g id="elem_Node"><rect codeLine="3" fill="#F1F1F1" height="190.5865" id="Node" rx="4.529" ry="4.529" style="stroke:#181818;stroke-width:0.9057971014492754;" width="213.7681" x="12.6812" y="12.6812"/><ellipse cx="80.6159" cy="41.6667" fill="#ADD1B2" rx="19.9275" ry="19.9275" style="stroke:#181818;stroke-width:1.8115942028985508;"/><path d="M79.6535,54.2063 Q76.4832,54.2063 74.4169,52.8759 Q72.3788,51.5172 71.3598,49.0829 Q70.3691,46.6202 70.3691,43.365 Q70.3691,39.6852 71.558,37.0528 Q72.7468,34.4203 75.0679,33.005 Q77.389,31.5897 80.7858,31.5897 Q82.3992,31.5897 83.6164,31.9293 Q84.8336,32.2407 86.079,32.8635 L84.6071,36.5149 Q83.4749,35.9488 82.4841,35.7224 Q81.5217,35.4959 80.6442,35.4959 Q78.5213,35.4959 77.2475,36.4583 Q75.9737,37.4207 75.4359,39.1474 Q74.8981,40.8741 74.8981,43.1669 Q74.8981,46.8184 76.2002,48.5734 Q77.5023,50.3 80.3895,50.3 Q81.4651,50.3 82.5974,50.017 Q83.7296,49.7339 85.2298,49.0546 L85.2298,53.074 Q83.8995,53.6402 82.4558,53.9232 Q81.0405,54.2063 79.6535,54.2063 Z " fill="#000000"/><text fill="#000000" font-family="sans-serif" font-size="25.3623" lengthAdjust="spacing" textLength="65.2174" x="115.0362" y="51.5072">Node</text><line style="stroke:#181818;stroke-width:0.9057971014492754;" x1="14.4928" x2="224.6377" y1="70.6522" y2="70.6522"/><text fill="#000000" font-family="sans-serif" font-size="25.3623" lengthAdjust="spacing" textLength="125" x="23.5507" y="105.0108">Char label</text><text fill="#000000" font-family="sans-serif" font-size="25.3623" lengthAdjust="spacing" textLength="184.7826" x="23.5507" y="139.5541">boolean visited</text><text fill="#000000" font-family="sans-serif" font-size="25.3623" lengthAdjust="spacing" textLength="192.029" x="23.5507" y="174.0974">Node[] children</text><line style="stroke:#181818;stroke-width:0.9057971014492754;" x1="14.4928" x2="224.6377" y1="188.7749" y2="188.7749"/></g><!--SRC=[AqvEp4bLC38rK2ZFJ2d9uE9ApaaiBbRmoqz9LQZcKb1mpaWiKiX9J4hD0NAIylDpKXFp5CeoYpDBKbE08Y1rqR4AoHcPEIb5gNbSjLm0]--></g></svg>