<svg xmlns="http://www.w3.org/2000/svg" xmlns:xlink="http://www.w3.org/1999/xlink" contentStyleType="text/css" data-diagram-type="CLASS" height="235.0683px" preserveAspectRatio="none" style="width:251px;height:235px;background:#FFFFFF;" version="1.1" viewBox="0 0 251 235" width="251.8589px" zoomAndPan="magnify"><defs/><g><!--class Node--><g class="entity" data-entity="Node" data-source-line="3" data-uid="ent0002" id="entity_Node"><rect fill="#F1F1F1" height="196.2704" rx="4.6641" ry="4.6641" style="stroke:#181818;stroke-width:0.9328;" width="212.6876" x="13.0594" y="13.0594"/><ellipse cx="79.9876" cy="42.9093" fill="#ADD1B2" rx="20.5218" ry="20.5218" style="stroke:#181818;stroke-width:1.8656;"/><path d="M78.9964,55.8229 Q75.7316,55.8229 73.6036,54.4528 Q71.5048,53.0536 70.4554,50.5467 Q69.4351,48.0106 69.4351,44.6583 Q69.4351,40.8688 70.6595,38.1578 Q71.8838,35.4468 74.2741,33.9893 Q76.6644,32.5318 80.1625,32.5318 Q81.824,32.5318 83.0775,32.8816 Q84.331,33.2022 85.6136,33.8435 L84.0978,37.6039 Q82.9317,37.0209 81.9115,36.7877 Q80.9204,36.5545 80.0167,36.5545 Q77.8304,36.5545 76.5187,37.5456 Q75.2069,38.5367 74.653,40.3149 Q74.0992,42.0931 74.0992,44.4543 Q74.0992,48.2147 75.4401,50.022 Q76.781,51.8001 79.7544,51.8001 Q80.8621,51.8001 82.0281,51.5086 Q83.1941,51.2171 84.7391,50.5175 L84.7391,54.6569 Q83.369,55.2399 81.8823,55.5314 Q80.4248,55.8229 78.9964,55.8229 Z " fill="#000000"/><text fill="#000000" font-family="sans-serif" font-size="26.1187" lengthAdjust="spacing" textLength="66.4457" x="114.7605" y="53.0433">Node</text><line style="stroke:#181818;stroke-width:0.9328;" x1="14.925" x2="223.8813" y1="72.7592" y2="72.7592"/><text fill="#000000" font-family="sans-serif" font-size="26.1187" lengthAdjust="spacing" textLength="119.8321" x="24.2531" y="108.1425">char label</text><text fill="#000000" font-family="sans-serif" font-size="26.1187" lengthAdjust="spacing" textLength="186.1995" x="24.2531" y="143.716">boolean visited</text><text fill="#000000" font-family="sans-serif" font-size="26.1187" lengthAdjust="spacing" textLength="190.3001" x="24.2531" y="179.2895">Node[] children</text><line style="stroke:#181818;stroke-width:0.9328;" x1="14.925" x2="223.8813" y1="194.4048" y2="194.4048"/></g><!--SRC=[AqvEp4bLC38rK2ZFJ2d9uE9ApaaiBbRmoqz9LQZcKb18paWiKiX9J4hD0NAIylDpKXFp5CeoYpDBKbE08Y1rqR50LPavAKMfULorN000]--></g></svg>