<?xml version="1.0" encoding="us-ascii" standalone="no"?><svg xmlns="http://www.w3.org/2000/svg" xmlns:xlink="http://www.w3.org/1999/xlink" contentStyleType="text/css" height="173.1298px" preserveAspectRatio="none" style="width:181px;height:173px;background:#FFFFFF;" version="1.1" viewBox="0 0 181 173" width="181.374px" zoomAndPan="magnify"><defs/><g><!--class Person--><g id="elem_Person"><rect codeLine="3" fill="#F1F1F1" height="144.5548" id="Person" rx="3.4351" ry="3.4351" style="stroke:#181818;stroke-width:0.6870229007633588;" width="152.5191" x="9.6183" y="9.6183"/><ellipse cx="50.6336" cy="31.6031" fill="#ADD1B2" rx="15.1145" ry="15.1145" style="stroke:#181818;stroke-width:1.3740458015267176;"/><path d="M49.9036,41.114 Q47.499,41.114 45.9318,40.105 Q44.386,39.0744 43.6131,37.2281 Q42.8616,35.3602 42.8616,32.8912 Q42.8616,30.1002 43.7634,28.1035 Q44.6651,26.1069 46.4256,25.0334 Q48.1861,23.9599 50.7624,23.9599 Q51.9862,23.9599 52.9094,24.2176 Q53.8325,24.4537 54.7772,24.926 L53.6608,27.6956 Q52.802,27.2662 52.0506,27.0945 Q51.3206,26.9227 50.6551,26.9227 Q49.0448,26.9227 48.0787,27.6527 Q47.1126,28.3826 46.7047,29.6923 Q46.2968,31.0019 46.2968,32.7409 Q46.2968,35.5105 47.2844,36.8416 Q48.2719,38.1512 50.4618,38.1512 Q51.2777,38.1512 52.1365,37.9365 Q52.9952,37.7219 54.1331,37.2066 L54.1331,40.2552 Q53.124,40.6846 52.0291,40.8993 Q50.9556,41.114 49.9036,41.114 Z " fill="#000000"/><text fill="#000000" font-family="sans-serif" font-size="19.2366" lengthAdjust="spacing" textLength="63.2061" x="74.4046" y="39.0668">Person</text><line style="stroke:#181818;stroke-width:0.6870229007633588;" x1="10.9924" x2="160.7634" y1="53.5878" y2="53.5878"/><text fill="#000000" font-family="sans-serif" font-size="19.2366" lengthAdjust="spacing" textLength="114.0458" x="17.8626" y="79.6478">String name</text><text fill="#000000" font-family="sans-serif" font-size="19.2366" lengthAdjust="spacing" textLength="136.0305" x="17.8626" y="105.848">Person mother</text><text fill="#000000" font-family="sans-serif" font-size="19.2366" lengthAdjust="spacing" textLength="125.0382" x="17.8626" y="132.0482">Person father</text><line style="stroke:#181818;stroke-width:0.6870229007633588;" x1="10.9924" x2="160.7634" y1="143.1807" y2="143.1807"/></g><!--SRC=[AqvEp4bLCBGmK2ZFJ2d9uE9ApaaiBbO8I2qgpizJgEPI22ufoinBLyXBp4rLu8A9v-QNPAGMmRbfYM1kBHS0]--></g></svg>