<?xml version="1.0" encoding="us-ascii" standalone="no"?><svg xmlns="http://www.w3.org/2000/svg" xmlns:xlink="http://www.w3.org/1999/xlink" contentStyleType="text/css" height="155.0388px" preserveAspectRatio="none" style="width:401px;height:155px;background:#FFFFFF;" version="1.1" viewBox="0 0 401 155" width="401.5504px" zoomAndPan="magnify"><defs/><g><!--class Region--><g id="elem_Region"><rect codeLine="3" fill="#F1F1F1" height="133.5439" id="Region" rx="3.876" ry="3.876" style="stroke:#181818;stroke-width:0.7751937984496124;" width="178.2946" x="10.8527" y="10.8527"/><ellipse cx="59.2248" cy="35.6589" fill="#ADD1B2" rx="17.0543" ry="17.0543" style="stroke:#181818;stroke-width:1.550387596899225;"/><path d="M58.4012,46.3905 Q55.688,46.3905 53.9196,45.2519 Q52.1754,44.0891 51.3033,42.0058 Q50.4554,39.8983 50.4554,37.1124 Q50.4554,33.9632 51.4729,31.7103 Q52.4903,29.4574 54.4767,28.2461 Q56.4632,27.0349 59.3702,27.0349 Q60.751,27.0349 61.7926,27.3256 Q62.8343,27.5921 63.9002,28.125 L62.6405,31.25 Q61.6715,30.7655 60.8236,30.5717 Q60,30.3779 59.249,30.3779 Q57.4322,30.3779 56.3421,31.2016 Q55.2519,32.0252 54.7917,33.5029 Q54.3314,34.9806 54.3314,36.9428 Q54.3314,40.0678 55.4457,41.5698 Q56.5601,43.0475 59.031,43.0475 Q59.9516,43.0475 60.9205,42.8052 Q61.8895,42.563 63.1734,41.9816 L63.1734,45.4215 Q62.0349,45.906 60.7994,46.1483 Q59.5882,46.3905 58.4012,46.3905 Z " fill="#000000"/><text fill="#000000" font-family="sans-serif" font-size="21.7054" lengthAdjust="spacing" textLength="72.8682" x="86.5116" y="44.0806">Region</text><line style="stroke:#181818;stroke-width:0.7751937984496124;" x1="12.4031" x2="187.5969" y1="60.4651" y2="60.4651"/><text fill="#000000" font-family="sans-serif" font-size="21.7054" lengthAdjust="spacing" textLength="128.6822" x="20.155" y="89.8697">String name</text><text fill="#000000" font-family="sans-serif" font-size="21.7054" lengthAdjust="spacing" textLength="159.6899" x="20.155" y="119.4323">List&lt;City&gt; cities</text><line style="stroke:#181818;stroke-width:0.7751937984496124;" x1="12.4031" x2="187.5969" y1="131.9935" y2="131.9935"/></g><!--class City--><g id="elem_City"><rect codeLine="8" fill="#F1F1F1" height="133.5439" id="City" rx="3.876" ry="3.876" style="stroke:#181818;stroke-width:0.7751937984496124;" width="147.2868" x="243.4109" y="10.8527"/><ellipse cx="293.1783" cy="35.6589" fill="#ADD1B2" rx="17.0543" ry="17.0543" style="stroke:#181818;stroke-width:1.550387596899225;"/><path d="M292.3547,46.3905 Q289.6415,46.3905 287.8731,45.2519 Q286.1289,44.0891 285.2568,42.0058 Q284.4089,39.8983 284.4089,37.1124 Q284.4089,33.9632 285.4264,31.7103 Q286.4438,29.4574 288.4302,28.2461 Q290.4167,27.0349 293.3236,27.0349 Q294.7045,27.0349 295.7461,27.3256 Q296.7878,27.5921 297.8537,28.125 L296.594,31.25 Q295.625,30.7655 294.7771,30.5717 Q293.9535,30.3779 293.2025,30.3779 Q291.3857,30.3779 290.2955,31.2016 Q289.2054,32.0252 288.7452,33.5029 Q288.2849,34.9806 288.2849,36.9428 Q288.2849,40.0678 289.3992,41.5698 Q290.5136,43.0475 292.9845,43.0475 Q293.905,43.0475 294.874,42.8052 Q295.843,42.563 297.1269,41.9816 L297.1269,45.4215 Q295.9884,45.906 294.7529,46.1483 Q293.5417,46.3905 292.3547,46.3905 Z " fill="#000000"/><text fill="#000000" font-family="sans-serif" font-size="21.7054" lengthAdjust="spacing" textLength="38.7597" x="320.7752" y="44.0806">City</text><line style="stroke:#181818;stroke-width:0.7751937984496124;" x1="244.9612" x2="389.1473" y1="60.4651" y2="60.4651"/><text fill="#000000" font-family="sans-serif" font-size="21.7054" lengthAdjust="spacing" textLength="128.6822" x="252.7132" y="89.8697">String name</text><text fill="#000000" font-family="sans-serif" font-size="21.7054" lengthAdjust="spacing" textLength="117.8295" x="252.7132" y="119.4323">int zipCode</text><line style="stroke:#181818;stroke-width:0.7751937984496124;" x1="244.9612" x2="389.1473" y1="131.9935" y2="131.9935"/></g><!--SRC=[AqvEp4bLC34mK2ZFJ2d9uE9ApaaiBbO8IatFpCzJgEPI08BWagBCl7I5lCJSL33V9xEunCOviwJIJY4vioGpjPYh5gOF98f3LsPUYK9LPe5pVaegI3q0]--></g></svg>