<?xml version="1.0" encoding="utf-8"?>
<svg width="392" height="392" viewBox="0 0 392 392"
		 xmlns="http://www.w3.org/2000/svg" xmlns:xlink="http://www.w3.org/1999/xlink" xmlns:ev="http://www.w3.org/2001/xml-events">
<rect x="0" y="0" width="392" height="392" fill="#ffffff"/>
<defs>
<rect id="p" width="8" height="8"/>
</defs>
<g fill="#000000">
<use xlink:href="#p" x="32" y="32"/>
<use xlink:href="#p" x="32" y="40"/>
<use xlink:href="#p" x="32" y="48"/>
<use xlink:href="#p" x="32" y="56"/>
<use xlink:href="#p" x="32" y="64"/>
<use xlink:href="#p" x="32" y="72"/>
<use xlink:href="#p" x="32" y="80"/>
<use xlink:href="#p" x="32" y="96"/>
<use xlink:href="#p" x="32" y="104"/>
<use xlink:href="#p" x="32" y="152"/>
<use xlink:href="#p" x="32" y="160"/>
<use xlink:href="#p" x="32" y="168"/>
<use xlink:href="#p" x="32" y="184"/>
<use xlink:href="#p" x="32" y="200"/>
<use xlink:href="#p" x="32" y="208"/>
<use xlink:href="#p" x="32" y="248"/>
<use xlink:href="#p" x="32" y="264"/>
<use xlink:href="#p" x="32" y="280"/>
<use xlink:href="#p" x="32" y="288"/>
<use xlink:href="#p" x="32" y="304"/>
<use xlink:href="#p" x="32" y="312"/>
<use xlink:href="#p" x="32" y="320"/>
<use xlink:href="#p" x="32" y="328"/>
<use xlink:href="#p" x="32" y="336"/>
<use xlink:href="#p" x="32" y="344"/>
<use xlink:href="#p" x="32" y="352"/>
<use xlink:href="#p" x="40" y="32"/>
<use xlink:href="#p" x="40" y="80"/>
<use xlink:href="#p" x="40" y="96"/>
<use xlink:href="#p" x="40" y="120"/>
<use xlink:href="#p" x="40" y="128"/>
<use xlink:href="#p" x="40" y="152"/>
<use xlink:href="#p" x="40" y="168"/>
<use xlink:href="#p" x="40" y="176"/>
<use xlink:href="#p" x="40" y="200"/>
<use xlink:href="#p" x="40" y="216"/>
<use xlink:href="#p" x="40" y="232"/>
<use xlink:href="#p" x="40" y="248"/>
<use xlink:href="#p" x="40" y="264"/>
<use xlink:href="#p" x="40" y="272"/>
<use xlink:href="#p" x="40" y="280"/>
<use xlink:href="#p" x="40" y="304"/>
<use xlink:href="#p" x="40" y="352"/>
<use xlink:href="#p" x="48" y="32"/>
<use xlink:href="#p" x="48" y="48"/>
<use xlink:href="#p" x="48" y="56"/>
<use xlink:href="#p" x="48" y="64"/>
<use xlink:href="#p" x="48" y="80"/>
<use xlink:href="#p" x="48" y="96"/>
<use xlink:href="#p" x="48" y="104"/>
<use xlink:href="#p" x="48" y="136"/>
<use xlink:href="#p" x="48" y="160"/>
<use xlink:href="#p" x="48" y="168"/>
<use xlink:href="#p" x="48" y="176"/>
<use xlink:href="#p" x="48" y="192"/>
<use xlink:href="#p" x="48" y="232"/>
<use xlink:href="#p" x="48" y="240"/>
<use xlink:href="#p" x="48" y="248"/>
<use xlink:href="#p" x="48" y="256"/>
<use xlink:href="#p" x="48" y="280"/>
<use xlink:href="#p" x="48" y="288"/>
<use xlink:href="#p" x="48" y="304"/>
<use xlink:href="#p" x="48" y="320"/>
<use xlink:href="#p" x="48" y="328"/>
<use xlink:href="#p" x="48" y="336"/>
<use xlink:href="#p" x="48" y="352"/>
<use xlink:href="#p" x="56" y="32"/>
<use xlink:href="#p" x="56" y="48"/>
<use xlink:href="#p" x="56" y="56"/>
<use xlink:href="#p" x="56" y="64"/>
<use xlink:href="#p" x="56" y="80"/>
<use xlink:href="#p" x="56" y="96"/>
<use xlink:href="#p" x="56" y="112"/>
<use xlink:href="#p" x="56" y="128"/>
<use xlink:href="#p" x="56" y="168"/>
<use xlink:href="#p" x="56" y="176"/>
<use xlink:href="#p" x="56" y="184"/>
<use xlink:href="#p" x="56" y="208"/>
<use xlink:href="#p" x="56" y="240"/>
<use xlink:href="#p" x="56" y="248"/>
<use xlink:href="#p" x="56" y="256"/>
<use xlink:href="#p" x="56" y="264"/>
<use xlink:href="#p" x="56" y="272"/>
<use xlink:href="#p" x="56" y="280"/>
<use xlink:href="#p" x="56" y="288"/>
<use xlink:href="#p" x="56" y="304"/>
<use xlink:href="#p" x="56" y="320"/>
<use xlink:href="#p" x="56" y="328"/>
<use xlink:href="#p" x="56" y="336"/>
<use xlink:href="#p" x="56" y="352"/>
<use xlink:href="#p" x="64" y="32"/>
<use xlink:href="#p" x="64" y="48"/>
<use xlink:href="#p" x="64" y="56"/>
<use xlink:href="#p" x="64" y="64"/>
<use xlink:href="#p" x="64" y="80"/>
<use xlink:href="#p" x="64" y="104"/>
<use xlink:href="#p" x="64" y="112"/>
<use xlink:href="#p" x="64" y="120"/>
<use xlink:href="#p" x="64" y="144"/>
<use xlink:href="#p" x="64" y="152"/>
<use xlink:href="#p" x="64" y="160"/>
<use xlink:href="#p" x="64" y="168"/>
<use xlink:href="#p" x="64" y="192"/>
<use xlink:href="#p" x="64" y="200"/>
<use xlink:href="#p" x="64" y="208"/>
<use xlink:href="#p" x="64" y="240"/>
<use xlink:href="#p" x="64" y="256"/>
<use xlink:href="#p" x="64" y="264"/>
<use xlink:href="#p" x="64" y="288"/>
<use xlink:href="#p" x="64" y="304"/>
<use xlink:href="#p" x="64" y="320"/>
<use xlink:href="#p" x="64" y="328"/>
<use xlink:href="#p" x="64" y="336"/>
<use xlink:href="#p" x="64" y="352"/>
<use xlink:href="#p" x="72" y="32"/>
<use xlink:href="#p" x="72" y="80"/>
<use xlink:href="#p" x="72" y="104"/>
<use xlink:href="#p" x="72" y="112"/>
<use xlink:href="#p" x="72" y="120"/>
<use xlink:href="#p" x="72" y="136"/>
<use xlink:href="#p" x="72" y="144"/>
<use xlink:href="#p" x="72" y="160"/>
<use xlink:href="#p" x="72" y="168"/>
<use xlink:href="#p" x="72" y="184"/>
<use xlink:href="#p" x="72" y="200"/>
<use xlink:href="#p" x="72" y="208"/>
<use xlink:href="#p" x="72" y="216"/>
<use xlink:href="#p" x="72" y="240"/>
<use xlink:href="#p" x="72" y="248"/>
<use xlink:href="#p" x="72" y="256"/>
<use xlink:href="#p" x="72" y="304"/>
<use xlink:href="#p" x="72" y="352"/>
<use xlink:href="#p" x="80" y="32"/>
<use xlink:href="#p" x="80" y="40"/>
<use xlink:href="#p" x="80" y="48"/>
<use xlink:href="#p" x="80" y="56"/>
<use xlink:href="#p" x="80" y="64"/>
<use xlink:href="#p" x="80" y="72"/>
<use xlink:href="#p" x="80" y="80"/>
<use xlink:href="#p" x="80" y="96"/>
<use xlink:href="#p" x="80" y="112"/>
<use xlink:href="#p" x="80" y="128"/>
<use xlink:href="#p" x="80" y="144"/>
<use xlink:href="#p" x="80" y="160"/>
<use xlink:href="#p" x="80" y="176"/>
<use xlink:href="#p" x="80" y="192"/>
<use xlink:href="#p" x="80" y="208"/>
<use xlink:href="#p" x="80" y="224"/>
<use xlink:href="#p" x="80" y="240"/>
<use xlink:href="#p" x="80" y="256"/>
<use xlink:href="#p" x="80" y="272"/>
<use xlink:href="#p" x="80" y="288"/>
<use xlink:href="#p" x="80" y="304"/>
<use xlink:href="#p" x="80" y="312"/>
<use xlink:href="#p" x="80" y="320"/>
<use xlink:href="#p" x="80" y="328"/>
<use xlink:href="#p" x="80" y="336"/>
<use xlink:href="#p" x="80" y="344"/>
<use xlink:href="#p" x="80" y="352"/>
<use xlink:href="#p" x="88" y="104"/>
<use xlink:href="#p" x="88" y="112"/>
<use xlink:href="#p" x="88" y="128"/>
<use xlink:href="#p" x="88" y="136"/>
<use xlink:href="#p" x="88" y="144"/>
<use xlink:href="#p" x="88" y="152"/>
<use xlink:href="#p" x="88" y="168"/>
<use xlink:href="#p" x="88" y="176"/>
<use xlink:href="#p" x="88" y="192"/>
<use xlink:href="#p" x="88" y="208"/>
<use xlink:href="#p" x="88" y="224"/>
<use xlink:href="#p" x="88" y="232"/>
<use xlink:href="#p" x="88" y="248"/>
<use xlink:href="#p" x="88" y="256"/>
<use xlink:href="#p" x="96" y="32"/>
<use xlink:href="#p" x="96" y="48"/>
<use xlink:href="#p" x="96" y="56"/>
<use xlink:href="#p" x="96" y="64"/>
<use xlink:href="#p" x="96" y="80"/>
<use xlink:href="#p" x="96" y="96"/>
<use xlink:href="#p" x="96" y="104"/>
<use xlink:href="#p" x="96" y="136"/>
<use xlink:href="#p" x="96" y="160"/>
<use xlink:href="#p" x="96" y="168"/>
<use xlink:href="#p" x="96" y="184"/>
<use xlink:href="#p" x="96" y="208"/>
<use xlink:href="#p" x="96" y="240"/>
<use xlink:href="#p" x="96" y="248"/>
<use xlink:href="#p" x="96" y="280"/>
<use xlink:href="#p" x="96" y="288"/>
<use xlink:href="#p" x="96" y="296"/>
<use xlink:href="#p" x="96" y="328"/>
<use xlink:href="#p" x="96" y="336"/>
<use xlink:href="#p" x="96" y="344"/>
<use xlink:href="#p" x="96" y="352"/>
<use xlink:href="#p" x="104" y="32"/>
<use xlink:href="#p" x="104" y="40"/>
<use xlink:href="#p" x="104" y="48"/>
<use xlink:href="#p" x="104" y="56"/>
<use xlink:href="#p" x="104" y="64"/>
<use xlink:href="#p" x="104" y="120"/>
<use xlink:href="#p" x="104" y="136"/>
<use xlink:href="#p" x="104" y="144"/>
<use xlink:href="#p" x="104" y="152"/>
<use xlink:href="#p" x="104" y="168"/>
<use xlink:href="#p" x="104" y="200"/>
<use xlink:href="#p" x="104" y="216"/>
<use xlink:href="#p" x="104" y="224"/>
<use xlink:href="#p" x="104" y="264"/>
<use xlink:href="#p" x="104" y="272"/>
<use xlink:href="#p" x="104" y="280"/>
<use xlink:href="#p" x="104" y="312"/>
<use xlink:href="#p" x="104" y="320"/>
<use xlink:href="#p" x="104" y="336"/>
<use xlink:href="#p" x="104" y="344"/>
<use xlink:href="#p" x="112" y="48"/>
<use xlink:href="#p" x="112" y="56"/>
<use xlink:href="#p" x="112" y="64"/>
<use xlink:href="#p" x="112" y="80"/>
<use xlink:href="#p" x="112" y="88"/>
<use xlink:href="#p" x="112" y="120"/>
<use xlink:href="#p" x="112" y="136"/>
<use xlink:href="#p" x="112" y="152"/>
<use xlink:href="#p" x="112" y="160"/>
<use xlink:href="#p" x="112" y="168"/>
<use xlink:href="#p" x="112" y="176"/>
<use xlink:href="#p" x="112" y="184"/>
<use xlink:href="#p" x="112" y="208"/>
<use xlink:href="#p" x="112" y="216"/>
<use xlink:href="#p" x="112" y="224"/>
<use xlink:href="#p" x="112" y="256"/>
<use xlink:href="#p" x="112" y="264"/>
<use xlink:href="#p" x="112" y="272"/>
<use xlink:href="#p" x="112" y="288"/>
<use xlink:href="#p" x="112" y="296"/>
<use xlink:href="#p" x="112" y="312"/>
<use xlink:href="#p" x="112" y="336"/>
<use xlink:href="#p" x="112" y="344"/>
<use xlink:href="#p" x="120" y="56"/>
<use xlink:href="#p" x="120" y="72"/>
<use xlink:href="#p" x="120" y="88"/>
<use xlink:href="#p" x="120" y="104"/>
<use xlink:href="#p" x="120" y="136"/>
<use xlink:href="#p" x="120" y="144"/>
<use xlink:href="#p" x="120" y="152"/>
<use xlink:href="#p" x="120" y="168"/>
<use xlink:href="#p" x="120" y="184"/>
<use xlink:href="#p" x="120" y="208"/>
<use xlink:href="#p" x="120" y="232"/>
<use xlink:href="#p" x="120" y="248"/>
<use xlink:href="#p" x="120" y="256"/>
<use xlink:href="#p" x="120" y="272"/>
<use xlink:href="#p" x="120" y="288"/>
<use xlink:href="#p" x="120" y="304"/>
<use xlink:href="#p" x="120" y="312"/>
<use xlink:href="#p" x="120" y="328"/>
<use xlink:href="#p" x="120" y="352"/>
<use xlink:href="#p" x="128" y="32"/>
<use xlink:href="#p" x="128" y="56"/>
<use xlink:href="#p" x="128" y="80"/>
<use xlink:href="#p" x="128" y="104"/>
<use xlink:href="#p" x="128" y="112"/>
<use xlink:href="#p" x="128" y="128"/>
<use xlink:href="#p" x="128" y="136"/>
<use xlink:href="#p" x="128" y="168"/>
<use xlink:href="#p" x="128" y="176"/>
<use xlink:href="#p" x="128" y="184"/>
<use xlink:href="#p" x="128" y="192"/>
<use xlink:href="#p" x="128" y="200"/>
<use xlink:href="#p" x="128" y="208"/>
<use xlink:href="#p" x="128" y="224"/>
<use xlink:href="#p" x="128" y="232"/>
<use xlink:href="#p" x="128" y="240"/>
<use xlink:href="#p" x="128" y="264"/>
<use xlink:href="#p" x="128" y="272"/>
<use xlink:href="#p" x="128" y="280"/>
<use xlink:href="#p" x="128" y="336"/>
<use xlink:href="#p" x="128" y="344"/>
<use xlink:href="#p" x="128" y="352"/>
<use xlink:href="#p" x="136" y="32"/>
<use xlink:href="#p" x="136" y="40"/>
<use xlink:href="#p" x="136" y="64"/>
<use xlink:href="#p" x="136" y="72"/>
<use xlink:href="#p" x="136" y="120"/>
<use xlink:href="#p" x="136" y="136"/>
<use xlink:href="#p" x="136" y="144"/>
<use xlink:href="#p" x="136" y="160"/>
<use xlink:href="#p" x="136" y="176"/>
<use xlink:href="#p" x="136" y="184"/>
<use xlink:href="#p" x="136" y="192"/>
<use xlink:href="#p" x="136" y="216"/>
<use xlink:href="#p" x="136" y="224"/>
<use xlink:href="#p" x="136" y="240"/>
<use xlink:href="#p" x="136" y="264"/>
<use xlink:href="#p" x="136" y="272"/>
<use xlink:href="#p" x="136" y="288"/>
<use xlink:href="#p" x="136" y="296"/>
<use xlink:href="#p" x="136" y="304"/>
<use xlink:href="#p" x="136" y="328"/>
<use xlink:href="#p" x="136" y="352"/>
<use xlink:href="#p" x="144" y="56"/>
<use xlink:href="#p" x="144" y="64"/>
<use xlink:href="#p" x="144" y="72"/>
<use xlink:href="#p" x="144" y="80"/>
<use xlink:href="#p" x="144" y="96"/>
<use xlink:href="#p" x="144" y="104"/>
<use xlink:href="#p" x="144" y="112"/>
<use xlink:href="#p" x="144" y="120"/>
<use xlink:href="#p" x="144" y="152"/>
<use xlink:href="#p" x="144" y="168"/>
<use xlink:href="#p" x="144" y="176"/>
<use xlink:href="#p" x="144" y="184"/>
<use xlink:href="#p" x="144" y="192"/>
<use xlink:href="#p" x="144" y="208"/>
<use xlink:href="#p" x="144" y="216"/>
<use xlink:href="#p" x="144" y="224"/>
<use xlink:href="#p" x="144" y="232"/>
<use xlink:href="#p" x="144" y="248"/>
<use xlink:href="#p" x="144" y="256"/>
<use xlink:href="#p" x="144" y="264"/>
<use xlink:href="#p" x="144" y="280"/>
<use xlink:href="#p" x="144" y="288"/>
<use xlink:href="#p" x="144" y="320"/>
<use xlink:href="#p" x="144" y="328"/>
<use xlink:href="#p" x="144" y="336"/>
<use xlink:href="#p" x="144" y="352"/>
<use xlink:href="#p" x="152" y="56"/>
<use xlink:href="#p" x="152" y="104"/>
<use xlink:href="#p" x="152" y="128"/>
<use xlink:href="#p" x="152" y="144"/>
<use xlink:href="#p" x="152" y="160"/>
<use xlink:href="#p" x="152" y="168"/>
<use xlink:href="#p" x="152" y="176"/>
<use xlink:href="#p" x="152" y="192"/>
<use xlink:href="#p" x="152" y="200"/>
<use xlink:href="#p" x="152" y="224"/>
<use xlink:href="#p" x="152" y="232"/>
<use xlink:href="#p" x="152" y="280"/>
<use xlink:href="#p" x="152" y="288"/>
<use xlink:href="#p" x="152" y="312"/>
<use xlink:href="#p" x="152" y="344"/>
<use xlink:href="#p" x="160" y="32"/>
<use xlink:href="#p" x="160" y="40"/>
<use xlink:href="#p" x="160" y="56"/>
<use xlink:href="#p" x="160" y="80"/>
<use xlink:href="#p" x="160" y="96"/>
<use xlink:href="#p" x="160" y="104"/>
<use xlink:href="#p" x="160" y="136"/>
<use xlink:href="#p" x="160" y="144"/>
<use xlink:href="#p" x="160" y="152"/>
<use xlink:href="#p" x="160" y="160"/>
<use xlink:href="#p" x="160" y="168"/>
<use xlink:href="#p" x="160" y="176"/>
<use xlink:href="#p" x="160" y="208"/>
<use xlink:href="#p" x="160" y="216"/>
<use xlink:href="#p" x="160" y="232"/>
<use xlink:href="#p" x="160" y="240"/>
<use xlink:href="#p" x="160" y="248"/>
<use xlink:href="#p" x="160" y="280"/>
<use xlink:href="#p" x="160" y="296"/>
<use xlink:href="#p" x="160" y="312"/>
<use xlink:href="#p" x="160" y="320"/>
<use xlink:href="#p" x="168" y="32"/>
<use xlink:href="#p" x="168" y="48"/>
<use xlink:href="#p" x="168" y="64"/>
<use xlink:href="#p" x="168" y="72"/>
<use xlink:href="#p" x="168" y="88"/>
<use xlink:href="#p" x="168" y="96"/>
<use xlink:href="#p" x="168" y="112"/>
<use xlink:href="#p" x="168" y="168"/>
<use xlink:href="#p" x="168" y="176"/>
<use xlink:href="#p" x="168" y="224"/>
<use xlink:href="#p" x="168" y="232"/>
<use xlink:href="#p" x="168" y="256"/>
<use xlink:href="#p" x="168" y="264"/>
<use xlink:href="#p" x="168" y="272"/>
<use xlink:href="#p" x="168" y="280"/>
<use xlink:href="#p" x="168" y="296"/>
<use xlink:href="#p" x="168" y="312"/>
<use xlink:href="#p" x="168" y="352"/>
<use xlink:href="#p" x="176" y="32"/>
<use xlink:href="#p" x="176" y="40"/>
<use xlink:href="#p" x="176" y="80"/>
<use xlink:href="#p" x="176" y="88"/>
<use xlink:href="#p" x="176" y="104"/>
<use xlink:href="#p" x="176" y="120"/>
<use xlink:href="#p" x="176" y="128"/>
<use xlink:href="#p" x="176" y="136"/>
<use xlink:href="#p" x="176" y="144"/>
<use xlink:href="#p" x="176" y="160"/>
<use xlink:href="#p" x="176" y="192"/>
<use xlink:href="#p" x="176" y="200"/>
<use xlink:href="#p" x="176" y="216"/>
<use xlink:href="#p" x="176" y="264"/>
<use xlink:href="#p" x="176" y="272"/>
<use xlink:href="#p" x="176" y="280"/>
<use xlink:href="#p" x="176" y="288"/>
<use xlink:href="#p" x="176" y="296"/>
<use xlink:href="#p" x="176" y="304"/>
<use xlink:href="#p" x="176" y="344"/>
<use xlink:href="#p" x="176" y="352"/>
<use xlink:href="#p" x="184" y="32"/>
<use xlink:href="#p" x="184" y="56"/>
<use xlink:href="#p" x="184" y="72"/>
<use xlink:href="#p" x="184" y="96"/>
<use xlink:href="#p" x="184" y="120"/>
<use xlink:href="#p" x="184" y="152"/>
<use xlink:href="#p" x="184" y="160"/>
<use xlink:href="#p" x="184" y="168"/>
<use xlink:href="#p" x="184" y="192"/>
<use xlink:href="#p" x="184" y="216"/>
<use xlink:href="#p" x="184" y="240"/>
<use xlink:href="#p" x="184" y="264"/>
<use xlink:href="#p" x="184" y="272"/>
<use xlink:href="#p" x="184" y="280"/>
<use xlink:href="#p" x="184" y="312"/>
<use xlink:href="#p" x="184" y="336"/>
<use xlink:href="#p" x="184" y="344"/>
<use xlink:href="#p" x="192" y="32"/>
<use xlink:href="#p" x="192" y="40"/>
<use xlink:href="#p" x="192" y="48"/>
<use xlink:href="#p" x="192" y="56"/>
<use xlink:href="#p" x="192" y="64"/>
<use xlink:href="#p" x="192" y="72"/>
<use xlink:href="#p" x="192" y="80"/>
<use xlink:href="#p" x="192" y="88"/>
<use xlink:href="#p" x="192" y="104"/>
<use xlink:href="#p" x="192" y="120"/>
<use xlink:href="#p" x="192" y="152"/>
<use xlink:href="#p" x="192" y="168"/>
<use xlink:href="#p" x="192" y="192"/>
<use xlink:href="#p" x="192" y="248"/>
<use xlink:href="#p" x="192" y="256"/>
<use xlink:href="#p" x="192" y="264"/>
<use xlink:href="#p" x="192" y="288"/>
<use xlink:href="#p" x="192" y="296"/>
<use xlink:href="#p" x="192" y="304"/>
<use xlink:href="#p" x="192" y="328"/>
<use xlink:href="#p" x="192" y="336"/>
<use xlink:href="#p" x="192" y="344"/>
<use xlink:href="#p" x="200" y="104"/>
<use xlink:href="#p" x="200" y="152"/>
<use xlink:href="#p" x="200" y="192"/>
<use xlink:href="#p" x="200" y="224"/>
<use xlink:href="#p" x="200" y="232"/>
<use xlink:href="#p" x="200" y="248"/>
<use xlink:href="#p" x="200" y="256"/>
<use xlink:href="#p" x="200" y="288"/>
<use xlink:href="#p" x="200" y="304"/>
<use xlink:href="#p" x="200" y="344"/>
<use xlink:href="#p" x="200" y="352"/>
<use xlink:href="#p" x="208" y="32"/>
<use xlink:href="#p" x="208" y="48"/>
<use xlink:href="#p" x="208" y="56"/>
<use xlink:href="#p" x="208" y="72"/>
<use xlink:href="#p" x="208" y="80"/>
<use xlink:href="#p" x="208" y="104"/>
<use xlink:href="#p" x="208" y="128"/>
<use xlink:href="#p" x="208" y="136"/>
<use xlink:href="#p" x="208" y="144"/>
<use xlink:href="#p" x="208" y="152"/>
<use xlink:href="#p" x="208" y="160"/>
<use xlink:href="#p" x="208" y="168"/>
<use xlink:href="#p" x="208" y="208"/>
<use xlink:href="#p" x="208" y="216"/>
<use xlink:href="#p" x="208" y="224"/>
<use xlink:href="#p" x="208" y="232"/>
<use xlink:href="#p" x="208" y="240"/>
<use xlink:href="#p" x="208" y="248"/>
<use xlink:href="#p" x="208" y="256"/>
<use xlink:href="#p" x="208" y="264"/>
<use xlink:href="#p" x="208" y="280"/>
<use xlink:href="#p" x="208" y="304"/>
<use xlink:href="#p" x="208" y="312"/>
<use xlink:href="#p" x="208" y="320"/>
<use xlink:href="#p" x="216" y="32"/>
<use xlink:href="#p" x="216" y="40"/>
<use xlink:href="#p" x="216" y="56"/>
<use xlink:href="#p" x="216" y="112"/>
<use xlink:href="#p" x="216" y="200"/>
<use xlink:href="#p" x="216" y="208"/>
<use xlink:href="#p" x="216" y="232"/>
<use xlink:href="#p" x="216" y="256"/>
<use xlink:href="#p" x="216" y="264"/>
<use xlink:href="#p" x="216" y="296"/>
<use xlink:href="#p" x="216" y="304"/>
<use xlink:href="#p" x="216" y="312"/>
<use xlink:href="#p" x="216" y="320"/>
<use xlink:href="#p" x="216" y="352"/>
<use xlink:href="#p" x="224" y="40"/>
<use xlink:href="#p" x="224" y="56"/>
<use xlink:href="#p" x="224" y="64"/>
<use xlink:href="#p" x="224" y="72"/>
<use xlink:href="#p" x="224" y="80"/>
<use xlink:href="#p" x="224" y="112"/>
<use xlink:href="#p" x="224" y="136"/>
<use xlink:href="#p" x="224" y="144"/>
<use xlink:href="#p" x="224" y="168"/>
<use xlink:href="#p" x="224" y="176"/>
<use xlink:href="#p" x="224" y="184"/>
<use xlink:href="#p" x="224" y="192"/>
<use xlink:href="#p" x="224" y="200"/>
<use xlink:href="#p" x="224" y="224"/>
<use xlink:href="#p" x="224" y="232"/>
<use xlink:href="#p" x="224" y="240"/>
<use xlink:href="#p" x="224" y="248"/>
<use xlink:href="#p" x="224" y="256"/>
<use xlink:href="#p" x="224" y="264"/>
<use xlink:href="#p" x="224" y="288"/>
<use xlink:href="#p" x="224" y="296"/>
<use xlink:href="#p" x="224" y="304"/>
<use xlink:href="#p" x="224" y="312"/>
<use xlink:href="#p" x="224" y="328"/>
<use xlink:href="#p" x="224" y="336"/>
<use xlink:href="#p" x="232" y="40"/>
<use xlink:href="#p" x="232" y="48"/>
<use xlink:href="#p" x="232" y="56"/>
<use xlink:href="#p" x="232" y="104"/>
<use xlink:href="#p" x="232" y="112"/>
<use xlink:href="#p" x="232" y="120"/>
<use xlink:href="#p" x="232" y="128"/>
<use xlink:href="#p" x="232" y="136"/>
<use xlink:href="#p" x="232" y="160"/>
<use xlink:href="#p" x="232" y="168"/>
<use xlink:href="#p" x="232" y="176"/>
<use xlink:href="#p" x="232" y="216"/>
<use xlink:href="#p" x="232" y="224"/>
<use xlink:href="#p" x="232" y="232"/>
<use xlink:href="#p" x="232" y="240"/>
<use xlink:href="#p" x="232" y="256"/>
<use xlink:href="#p" x="232" y="272"/>
<use xlink:href="#p" x="232" y="296"/>
<use xlink:href="#p" x="232" y="304"/>
<use xlink:href="#p" x="232" y="312"/>
<use xlink:href="#p" x="232" y="320"/>
<use xlink:href="#p" x="232" y="336"/>
<use xlink:href="#p" x="232" y="352"/>
<use xlink:href="#p" x="240" y="32"/>
<use xlink:href="#p" x="240" y="56"/>
<use xlink:href="#p" x="240" y="64"/>
<use xlink:href="#p" x="240" y="80"/>
<use xlink:href="#p" x="240" y="120"/>
<use xlink:href="#p" x="240" y="128"/>
<use xlink:href="#p" x="240" y="144"/>
<use xlink:href="#p" x="240" y="152"/>
<use xlink:href="#p" x="240" y="184"/>
<use xlink:href="#p" x="240" y="192"/>
<use xlink:href="#p" x="240" y="232"/>
<use xlink:href="#p" x="240" y="240"/>
<use xlink:href="#p" x="240" y="248"/>
<use xlink:href="#p" x="240" y="256"/>
<use xlink:href="#p" x="240" y="264"/>
<use xlink:href="#p" x="240" y="272"/>
<use xlink:href="#p" x="240" y="288"/>
<use xlink:href="#p" x="240" y="312"/>
<use xlink:href="#p" x="240" y="320"/>
<use xlink:href="#p" x="240" y="336"/>
<use xlink:href="#p" x="240" y="344"/>
<use xlink:href="#p" x="240" y="352"/>
<use xlink:href="#p" x="248" y="64"/>
<use xlink:href="#p" x="248" y="88"/>
<use xlink:href="#p" x="248" y="120"/>
<use xlink:href="#p" x="248" y="128"/>
<use xlink:href="#p" x="248" y="136"/>
<use xlink:href="#p" x="248" y="152"/>
<use xlink:href="#p" x="248" y="168"/>
<use xlink:href="#p" x="248" y="176"/>
<use xlink:href="#p" x="248" y="184"/>
<use xlink:href="#p" x="248" y="192"/>
<use xlink:href="#p" x="248" y="232"/>
<use xlink:href="#p" x="248" y="264"/>
<use xlink:href="#p" x="248" y="272"/>
<use xlink:href="#p" x="248" y="280"/>
<use xlink:href="#p" x="248" y="312"/>
<use xlink:href="#p" x="248" y="328"/>
<use xlink:href="#p" x="248" y="352"/>
<use xlink:href="#p" x="256" y="32"/>
<use xlink:href="#p" x="256" y="40"/>
<use xlink:href="#p" x="256" y="64"/>
<use xlink:href="#p" x="256" y="80"/>
<use xlink:href="#p" x="256" y="88"/>
<use xlink:href="#p" x="256" y="96"/>
<use xlink:href="#p" x="256" y="104"/>
<use xlink:href="#p" x="256" y="120"/>
<use xlink:href="#p" x="256" y="128"/>
<use xlink:href="#p" x="256" y="136"/>
<use xlink:href="#p" x="256" y="152"/>
<use xlink:href="#p" x="256" y="160"/>
<use xlink:href="#p" x="256" y="176"/>
<use xlink:href="#p" x="256" y="184"/>
<use xlink:href="#p" x="256" y="192"/>
<use xlink:href="#p" x="256" y="200"/>
<use xlink:href="#p" x="256" y="208"/>
<use xlink:href="#p" x="256" y="216"/>
<use xlink:href="#p" x="256" y="232"/>
<use xlink:href="#p" x="256" y="240"/>
<use xlink:href="#p" x="256" y="248"/>
<use xlink:href="#p" x="256" y="280"/>
<use xlink:href="#p" x="256" y="288"/>
<use xlink:href="#p" x="256" y="296"/>
<use xlink:href="#p" x="256" y="304"/>
<use xlink:href="#p" x="256" y="320"/>
<use xlink:href="#p" x="256" y="328"/>
<use xlink:href="#p" x="256" y="344"/>
<use xlink:href="#p" x="264" y="32"/>
<use xlink:href="#p" x="264" y="56"/>
<use xlink:href="#p" x="264" y="64"/>
<use xlink:href="#p" x="264" y="88"/>
<use xlink:href="#p" x="264" y="96"/>
<use xlink:href="#p" x="264" y="144"/>
<use xlink:href="#p" x="264" y="168"/>
<use xlink:href="#p" x="264" y="176"/>
<use xlink:href="#p" x="264" y="184"/>
<use xlink:href="#p" x="264" y="224"/>
<use xlink:href="#p" x="264" y="232"/>
<use xlink:href="#p" x="264" y="264"/>
<use xlink:href="#p" x="264" y="272"/>
<use xlink:href="#p" x="264" y="280"/>
<use xlink:href="#p" x="264" y="288"/>
<use xlink:href="#p" x="264" y="320"/>
<use xlink:href="#p" x="272" y="32"/>
<use xlink:href="#p" x="272" y="40"/>
<use xlink:href="#p" x="272" y="48"/>
<use xlink:href="#p" x="272" y="64"/>
<use xlink:href="#p" x="272" y="72"/>
<use xlink:href="#p" x="272" y="80"/>
<use xlink:href="#p" x="272" y="88"/>
<use xlink:href="#p" x="272" y="104"/>
<use xlink:href="#p" x="272" y="112"/>
<use xlink:href="#p" x="272" y="120"/>
<use xlink:href="#p" x="272" y="144"/>
<use xlink:href="#p" x="272" y="152"/>
<use xlink:href="#p" x="272" y="160"/>
<use xlink:href="#p" x="272" y="176"/>
<use xlink:href="#p" x="272" y="192"/>
<use xlink:href="#p" x="272" y="200"/>
<use xlink:href="#p" x="272" y="216"/>
<use xlink:href="#p" x="272" y="256"/>
<use xlink:href="#p" x="272" y="280"/>
<use xlink:href="#p" x="272" y="288"/>
<use xlink:href="#p" x="272" y="296"/>
<use xlink:href="#p" x="272" y="304"/>
<use xlink:href="#p" x="272" y="312"/>
<use xlink:href="#p" x="272" y="320"/>
<use xlink:href="#p" x="272" y="336"/>
<use xlink:href="#p" x="280" y="32"/>
<use xlink:href="#p" x="280" y="48"/>
<use xlink:href="#p" x="280" y="56"/>
<use xlink:href="#p" x="280" y="64"/>
<use xlink:href="#p" x="280" y="72"/>
<use xlink:href="#p" x="280" y="88"/>
<use xlink:href="#p" x="280" y="96"/>
<use xlink:href="#p" x="280" y="104"/>
<use xlink:href="#p" x="280" y="144"/>
<use xlink:href="#p" x="280" y="152"/>
<use xlink:href="#p" x="280" y="184"/>
<use xlink:href="#p" x="280" y="200"/>
<use xlink:href="#p" x="280" y="232"/>
<use xlink:href="#p" x="280" y="240"/>
<use xlink:href="#p" x="280" y="248"/>
<use xlink:href="#p" x="280" y="256"/>
<use xlink:href="#p" x="280" y="264"/>
<use xlink:href="#p" x="280" y="280"/>
<use xlink:href="#p" x="280" y="304"/>
<use xlink:href="#p" x="280" y="328"/>
<use xlink:href="#p" x="280" y="344"/>
<use xlink:href="#p" x="280" y="352"/>
<use xlink:href="#p" x="288" y="32"/>
<use xlink:href="#p" x="288" y="40"/>
<use xlink:href="#p" x="288" y="48"/>
<use xlink:href="#p" x="288" y="72"/>
<use xlink:href="#p" x="288" y="80"/>
<use xlink:href="#p" x="288" y="104"/>
<use xlink:href="#p" x="288" y="120"/>
<use xlink:href="#p" x="288" y="152"/>
<use xlink:href="#p" x="288" y="160"/>
<use xlink:href="#p" x="288" y="168"/>
<use xlink:href="#p" x="288" y="176"/>
<use xlink:href="#p" x="288" y="200"/>
<use xlink:href="#p" x="288" y="216"/>
<use xlink:href="#p" x="288" y="240"/>
<use xlink:href="#p" x="288" y="248"/>
<use xlink:href="#p" x="288" y="256"/>
<use xlink:href="#p" x="288" y="264"/>
<use xlink:href="#p" x="288" y="280"/>
<use xlink:href="#p" x="288" y="288"/>
<use xlink:href="#p" x="288" y="296"/>
<use xlink:href="#p" x="288" y="304"/>
<use xlink:href="#p" x="288" y="312"/>
<use xlink:href="#p" x="288" y="320"/>
<use xlink:href="#p" x="288" y="352"/>
<use xlink:href="#p" x="296" y="96"/>
<use xlink:href="#p" x="296" y="104"/>
<use xlink:href="#p" x="296" y="112"/>
<use xlink:href="#p" x="296" y="120"/>
<use xlink:href="#p" x="296" y="160"/>
<use xlink:href="#p" x="296" y="168"/>
<use xlink:href="#p" x="296" y="192"/>
<use xlink:href="#p" x="296" y="216"/>
<use xlink:href="#p" x="296" y="224"/>
<use xlink:href="#p" x="296" y="240"/>
<use xlink:href="#p" x="296" y="256"/>
<use xlink:href="#p" x="296" y="288"/>
<use xlink:href="#p" x="296" y="320"/>
<use xlink:href="#p" x="296" y="328"/>
<use xlink:href="#p" x="304" y="32"/>
<use xlink:href="#p" x="304" y="40"/>
<use xlink:href="#p" x="304" y="48"/>
<use xlink:href="#p" x="304" y="56"/>
<use xlink:href="#p" x="304" y="64"/>
<use xlink:href="#p" x="304" y="72"/>
<use xlink:href="#p" x="304" y="80"/>
<use xlink:href="#p" x="304" y="104"/>
<use xlink:href="#p" x="304" y="144"/>
<use xlink:href="#p" x="304" y="152"/>
<use xlink:href="#p" x="304" y="176"/>
<use xlink:href="#p" x="304" y="184"/>
<use xlink:href="#p" x="304" y="192"/>
<use xlink:href="#p" x="304" y="232"/>
<use xlink:href="#p" x="304" y="248"/>
<use xlink:href="#p" x="304" y="272"/>
<use xlink:href="#p" x="304" y="280"/>
<use xlink:href="#p" x="304" y="288"/>
<use xlink:href="#p" x="304" y="304"/>
<use xlink:href="#p" x="304" y="320"/>
<use xlink:href="#p" x="304" y="344"/>
<use xlink:href="#p" x="312" y="32"/>
<use xlink:href="#p" x="312" y="80"/>
<use xlink:href="#p" x="312" y="104"/>
<use xlink:href="#p" x="312" y="120"/>
<use xlink:href="#p" x="312" y="128"/>
<use xlink:href="#p" x="312" y="136"/>
<use xlink:href="#p" x="312" y="144"/>
<use xlink:href="#p" x="312" y="152"/>
<use xlink:href="#p" x="312" y="160"/>
<use xlink:href="#p" x="312" y="168"/>
<use xlink:href="#p" x="312" y="200"/>
<use xlink:href="#p" x="312" y="208"/>
<use xlink:href="#p" x="312" y="216"/>
<use xlink:href="#p" x="312" y="240"/>
<use xlink:href="#p" x="312" y="248"/>
<use xlink:href="#p" x="312" y="256"/>
<use xlink:href="#p" x="312" y="264"/>
<use xlink:href="#p" x="312" y="280"/>
<use xlink:href="#p" x="312" y="288"/>
<use xlink:href="#p" x="312" y="320"/>
<use xlink:href="#p" x="312" y="328"/>
<use xlink:href="#p" x="312" y="344"/>
<use xlink:href="#p" x="320" y="32"/>
<use xlink:href="#p" x="320" y="48"/>
<use xlink:href="#p" x="320" y="56"/>
<use xlink:href="#p" x="320" y="64"/>
<use xlink:href="#p" x="320" y="80"/>
<use xlink:href="#p" x="320" y="96"/>
<use xlink:href="#p" x="320" y="104"/>
<use xlink:href="#p" x="320" y="112"/>
<use xlink:href="#p" x="320" y="120"/>
<use xlink:href="#p" x="320" y="152"/>
<use xlink:href="#p" x="320" y="160"/>
<use xlink:href="#p" x="320" y="176"/>
<use xlink:href="#p" x="320" y="200"/>
<use xlink:href="#p" x="320" y="208"/>
<use xlink:href="#p" x="320" y="216"/>
<use xlink:href="#p" x="320" y="240"/>
<use xlink:href="#p" x="320" y="256"/>
<use xlink:href="#p" x="320" y="288"/>
<use xlink:href="#p" x="320" y="296"/>
<use xlink:href="#p" x="320" y="304"/>
<use xlink:href="#p" x="320" y="312"/>
<use xlink:href="#p" x="320" y="320"/>
<use xlink:href="#p" x="320" y="328"/>
<use xlink:href="#p" x="320" y="352"/>
<use xlink:href="#p" x="328" y="32"/>
<use xlink:href="#p" x="328" y="48"/>
<use xlink:href="#p" x="328" y="56"/>
<use xlink:href="#p" x="328" y="64"/>
<use xlink:href="#p" x="328" y="80"/>
<use xlink:href="#p" x="328" y="96"/>
<use xlink:href="#p" x="328" y="104"/>
<use xlink:href="#p" x="328" y="128"/>
<use xlink:href="#p" x="328" y="136"/>
<use xlink:href="#p" x="328" y="144"/>
<use xlink:href="#p" x="328" y="152"/>
<use xlink:href="#p" x="328" y="160"/>
<use xlink:href="#p" x="328" y="168"/>
<use xlink:href="#p" x="328" y="184"/>
<use xlink:href="#p" x="328" y="208"/>
<use xlink:href="#p" x="328" y="256"/>
<use xlink:href="#p" x="328" y="264"/>
<use xlink:href="#p" x="328" y="272"/>
<use xlink:href="#p" x="328" y="280"/>
<use xlink:href="#p" x="328" y="312"/>
<use xlink:href="#p" x="328" y="328"/>
<use xlink:href="#p" x="328" y="336"/>
<use xlink:href="#p" x="328" y="344"/>
<use xlink:href="#p" x="336" y="32"/>
<use xlink:href="#p" x="336" y="48"/>
<use xlink:href="#p" x="336" y="56"/>
<use xlink:href="#p" x="336" y="64"/>
<use xlink:href="#p" x="336" y="80"/>
<use xlink:href="#p" x="336" y="96"/>
<use xlink:href="#p" x="336" y="112"/>
<use xlink:href="#p" x="336" y="128"/>
<use xlink:href="#p" x="336" y="160"/>
<use xlink:href="#p" x="336" y="184"/>
<use xlink:href="#p" x="336" y="192"/>
<use xlink:href="#p" x="336" y="200"/>
<use xlink:href="#p" x="336" y="208"/>
<use xlink:href="#p" x="336" y="232"/>
<use xlink:href="#p" x="336" y="240"/>
<use xlink:href="#p" x="336" y="264"/>
<use xlink:href="#p" x="336" y="280"/>
<use xlink:href="#p" x="336" y="296"/>
<use xlink:href="#p" x="336" y="320"/>
<use xlink:href="#p" x="336" y="328"/>
<use xlink:href="#p" x="336" y="336"/>
<use xlink:href="#p" x="336" y="352"/>
<use xlink:href="#p" x="344" y="32"/>
<use xlink:href="#p" x="344" y="80"/>
<use xlink:href="#p" x="344" y="104"/>
<use xlink:href="#p" x="344" y="112"/>
<use xlink:href="#p" x="344" y="136"/>
<use xlink:href="#p" x="344" y="144"/>
<use xlink:href="#p" x="344" y="152"/>
<use xlink:href="#p" x="344" y="160"/>
<use xlink:href="#p" x="344" y="168"/>
<use xlink:href="#p" x="344" y="208"/>
<use xlink:href="#p" x="344" y="224"/>
<use xlink:href="#p" x="344" y="232"/>
<use xlink:href="#p" x="344" y="240"/>
<use xlink:href="#p" x="344" y="280"/>
<use xlink:href="#p" x="344" y="288"/>
<use xlink:href="#p" x="344" y="320"/>
<use xlink:href="#p" x="344" y="336"/>
<use xlink:href="#p" x="344" y="344"/>
<use xlink:href="#p" x="344" y="352"/>
<use xlink:href="#p" x="352" y="32"/>
<use xlink:href="#p" x="352" y="40"/>
<use xlink:href="#p" x="352" y="48"/>
<use xlink:href="#p" x="352" y="56"/>
<use xlink:href="#p" x="352" y="64"/>
<use xlink:href="#p" x="352" y="72"/>
<use xlink:href="#p" x="352" y="80"/>
<use xlink:href="#p" x="352" y="96"/>
<use xlink:href="#p" x="352" y="120"/>
<use xlink:href="#p" x="352" y="136"/>
<use xlink:href="#p" x="352" y="144"/>
<use xlink:href="#p" x="352" y="168"/>
<use xlink:href="#p" x="352" y="184"/>
<use xlink:href="#p" x="352" y="200"/>
<use xlink:href="#p" x="352" y="216"/>
<use xlink:href="#p" x="352" y="224"/>
<use xlink:href="#p" x="352" y="232"/>
<use xlink:href="#p" x="352" y="240"/>
<use xlink:href="#p" x="352" y="256"/>
<use xlink:href="#p" x="352" y="280"/>
<use xlink:href="#p" x="352" y="296"/>
<use xlink:href="#p" x="352" y="320"/>
<use xlink:href="#p" x="352" y="328"/>
<use xlink:href="#p" x="352" y="336"/>
</g>
<g></g></svg>