<?xml version="1.0" encoding="UTF-8" standalone="no"?>
<svg
   width="115.378"
   height="115.378"
   viewBox="0 0 115.378 115.378"
   version="1.1"
   id="svg9"
   sodipodi:docname="tictactoe.svg"
   inkscape:version="1.3.2 (091e20ef0f, 2023-11-25, custom)"
   xmlns:inkscape="http://www.inkscape.org/namespaces/inkscape"
   xmlns:sodipodi="http://sodipodi.sourceforge.net/DTD/sodipodi-0.dtd"
   xmlns="http://www.w3.org/2000/svg"
   xmlns:svg="http://www.w3.org/2000/svg">
  <sodipodi:namedview
     id="namedview9"
     pagecolor="#ffffff"
     bordercolor="#000000"
     borderopacity="0.25"
     inkscape:showpageshadow="2"
     inkscape:pageopacity="0.0"
     inkscape:pagecheckerboard="0"
     inkscape:deskcolor="#d1d1d1"
     inkscape:zoom="7.3670892"
     inkscape:cx="57.688999"
     inkscape:cy="57.688999"
     inkscape:window-width="1920"
     inkscape:window-height="1038"
     inkscape:window-x="0"
     inkscape:window-y="0"
     inkscape:window-maximized="0"
     inkscape:current-layer="svg9" />
  <defs
     id="defs2">
    <clipPath
       id="clip-0">
      <path
         clip-rule="nonzero"
         d="M 49 21 L 115.378906 21 L 115.378906 95 L 49 95 Z M 49 21 "
         id="path1" />
    </clipPath>
    <clipPath
       id="clip-1">
      <path
         clip-rule="nonzero"
         d="M 49 49 L 115.378906 49 L 115.378906 115.378906 L 49 115.378906 Z M 49 49 "
         id="path2" />
    </clipPath>
  </defs>
  <path
     fill="none"
     stroke-width="1.99255"
     stroke-linecap="butt"
     stroke-linejoin="miter"
     stroke="#000000"
     stroke-opacity="1"
     stroke-miterlimit="10"
     d="M 121.83463,335.16797 V 15.167969 M 15.167969,228.5013 H 335.16797"
     id="path3" />
  <path
     fill="none"
     stroke-width="1.99255"
     stroke-linecap="butt"
     stroke-linejoin="miter"
     stroke="#000000"
     stroke-opacity="1"
     stroke-miterlimit="10"
     d="M 228.5013,335.16797 V 15.167969 M 15.167969,121.83463 H 335.16797"
     id="path4" />
  <path
     fill="none"
     stroke-width="1.99255"
     stroke-linecap="butt"
     stroke-linejoin="miter"
     stroke="#000000"
     stroke-opacity="1"
     stroke-miterlimit="10"
     d="m 207.15915,68.50865 c 0,-17.682238 -14.31629,-31.998529 -31.99853,-31.998529 -17.66754,0 -31.99853,14.316291 -31.99853,31.998529 0,17.667541 14.33099,31.99853 31.99853,31.99853 17.68224,0 31.99853,-14.330989 31.99853,-31.99853 z m 0,0"
     id="path5" />
  <path
     fill="none"
     stroke-width="1.99255"
     stroke-linecap="butt"
     stroke-linejoin="miter"
     stroke="#000000"
     stroke-opacity="1"
     stroke-miterlimit="10"
     d="m 100.50718,175.16062 c 0,-17.66754 -14.330992,-31.99853 -31.998529,-31.99853 -17.682239,0 -31.998529,14.33099 -31.998529,31.99853 0,17.68224 14.31629,31.99853 31.998529,31.99853 17.667537,0 31.998529,-14.31629 31.998529,-31.99853 z m 0,0"
     id="path6" />
  <path
     fill="none"
     stroke-width="1.99255"
     stroke-linecap="butt"
     stroke-linejoin="miter"
     stroke="#000000"
     stroke-opacity="1"
     stroke-miterlimit="10"
     d="m 143.16209,207.15915 63.99706,-63.99706 m -63.99706,0 63.99706,63.99706"
     id="path7" />
  <g
     clip-path="url(#clip-0)"
     id="g8"
     transform="matrix(3.7628037,0,0,3.7628037,-41.90612,-41.906121)">
    <path
       fill="none"
       stroke-width="1.99255"
       stroke-linecap="butt"
       stroke-linejoin="miter"
       stroke="#000000"
       stroke-opacity="1"
       stroke-miterlimit="10"
       d="m 62.36225,34.017594 17.007813,17.007812 m -17.007813,0 17.007813,-17.007812"
       transform="matrix(1,0,0,-1,15.169,100.209)"
       id="path8" />
  </g>
  <g
     clip-path="url(#clip-1)"
     id="g9"
     transform="matrix(3.7628037,0,0,3.7628037,-41.90612,-41.906121)"
     inkscape:export-filename="tictactoe.svg"
     inkscape:export-xdpi="96"
     inkscape:export-ydpi="96">
    <path
       fill="none"
       stroke-width="1.99255"
       stroke-linecap="butt"
       stroke-linejoin="miter"
       stroke="#000000"
       stroke-opacity="0.2"
       stroke-miterlimit="10"
       d="M 62.36225,5.669937 79.370063,22.67775 m -17.007813,0 17.007813,-17.007813"
       transform="matrix(1,0,0,-1,15.169,100.209)"
       id="path9" />
  </g>
</svg>
