<?xml version="1.0" encoding="UTF-8" standalone="no"?>
<!DOCTYPE svg PUBLIC "-//W3C//DTD SVG 1.1//EN"
 "http://www.w3.org/Graphics/SVG/1.1/DTD/svg11.dtd">
<!-- Generated by graphviz version 10.0.1 (0)
 -->
<!-- Title: G Pages: 1 -->
<svg width="566pt" height="188pt"
 viewBox="0.00 0.00 566.00 188.00" xmlns="http://www.w3.org/2000/svg" xmlns:xlink="http://www.w3.org/1999/xlink">
<g id="graph0" class="graph" transform="scale(1 1) rotate(0) translate(4 184)">
<title>G</title>
<polygon fill="white" stroke="none" points="-4,4 -4,-184 562,-184 562,4 -4,4"/>
<!-- a -->
<g id="node1" class="node">
<title>a</title>
<ellipse fill="none" stroke="black" cx="207" cy="-162" rx="27" ry="18"/>
<text text-anchor="middle" x="207" y="-157.32" font-family="Times,serif" font-size="14.00">a</text>
</g>
<!-- xb1 -->
<!-- a&#45;&gt;xb1 -->
<!-- xb2 -->
<!-- a&#45;&gt;xb2 -->
<!-- b0 -->
<g id="node6" class="node">
<title>b0</title>
<ellipse fill="none" stroke="black" cx="99" cy="-90" rx="27" ry="18"/>
<text text-anchor="middle" x="99" y="-85.33" font-family="Times,serif" font-size="14.00">b0</text>
</g>
<!-- a&#45;&gt;b0 -->
<g id="edge7" class="edge">
<title>a&#45;&gt;b0</title>
<path fill="none" stroke="black" d="M188.19,-148.81C171.41,-137.93 146.61,-121.86 127.41,-109.42"/>
<polygon fill="black" stroke="black" points="129.52,-106.61 119.23,-104.11 125.72,-112.49 129.52,-106.61"/>
</g>
<!-- b1 -->
<g id="node7" class="node">
<title>b1</title>
<ellipse fill="none" stroke="black" cx="459" cy="-90" rx="27" ry="18"/>
<text text-anchor="middle" x="459" y="-85.33" font-family="Times,serif" font-size="14.00">b1</text>
</g>
<!-- a&#45;&gt;b1 -->
<g id="edge9" class="edge">
<title>a&#45;&gt;b1</title>
<path fill="none" stroke="black" d="M233.09,-156.36C274.2,-148.65 356.22,-131.69 423,-108 424.55,-107.45 426.12,-106.86 427.69,-106.23"/>
<polygon fill="black" stroke="black" points="428.8,-109.57 436.59,-102.39 426.02,-103.14 428.8,-109.57"/>
</g>
<!-- xb1&#45;&gt;xb2 -->
<!-- xb3 -->
<!-- xb2&#45;&gt;xb3 -->
<!-- xb4 -->
<!-- xb3&#45;&gt;xb4 -->
<!-- xb4&#45;&gt;b1 -->
<!-- b0&#45;&gt;xb1 -->
<!-- c0 -->
<g id="node8" class="node">
<title>c0</title>
<ellipse fill="none" stroke="black" cx="27" cy="-18" rx="27" ry="18"/>
<text text-anchor="middle" x="27" y="-13.32" font-family="Times,serif" font-size="14.00">c0</text>
</g>
<!-- b0&#45;&gt;c0 -->
<g id="edge10" class="edge">
<title>b0&#45;&gt;c0</title>
<path fill="none" stroke="black" d="M84.08,-74.5C74.23,-64.92 61.14,-52.19 49.97,-41.34"/>
<polygon fill="black" stroke="black" points="52.59,-39 42.98,-34.54 47.71,-44.02 52.59,-39"/>
</g>
<!-- xc -->
<!-- b0&#45;&gt;xc -->
<!-- c1 -->
<g id="node10" class="node">
<title>c1</title>
<ellipse fill="none" stroke="black" cx="171" cy="-18" rx="27" ry="18"/>
<text text-anchor="middle" x="171" y="-13.32" font-family="Times,serif" font-size="14.00">c1</text>
</g>
<!-- b0&#45;&gt;c1 -->
<g id="edge12" class="edge">
<title>b0&#45;&gt;c1</title>
<path fill="none" stroke="black" d="M113.92,-74.5C123.77,-64.92 136.86,-52.19 148.03,-41.34"/>
<polygon fill="black" stroke="black" points="150.29,-44.02 155.02,-34.54 145.41,-39 150.29,-44.02"/>
</g>
<!-- c2 -->
<g id="node11" class="node">
<title>c2</title>
<ellipse fill="none" stroke="black" cx="387" cy="-18" rx="27" ry="18"/>
<text text-anchor="middle" x="387" y="-13.32" font-family="Times,serif" font-size="14.00">c2</text>
</g>
<!-- b1&#45;&gt;c2 -->
<g id="edge15" class="edge">
<title>b1&#45;&gt;c2</title>
<path fill="none" stroke="black" d="M444.08,-74.5C434.23,-64.92 421.14,-52.19 409.97,-41.34"/>
<polygon fill="black" stroke="black" points="412.59,-39 402.98,-34.54 407.71,-44.02 412.59,-39"/>
</g>
<!-- xb8 -->
<!-- b1&#45;&gt;xb8 -->
<!-- c3 -->
<g id="node13" class="node">
<title>c3</title>
<ellipse fill="none" stroke="black" cx="531" cy="-18" rx="27" ry="18"/>
<text text-anchor="middle" x="531" y="-13.32" font-family="Times,serif" font-size="14.00">c3</text>
</g>
<!-- b1&#45;&gt;c3 -->
<g id="edge17" class="edge">
<title>b1&#45;&gt;c3</title>
<path fill="none" stroke="black" d="M473.92,-74.5C483.77,-64.92 496.86,-52.19 508.03,-41.34"/>
<polygon fill="black" stroke="black" points="510.29,-44.02 515.02,-34.54 505.41,-39 510.29,-44.02"/>
</g>
<!-- c0&#45;&gt;xc -->
<!-- xc&#45;&gt;c1 -->
<!-- c2&#45;&gt;xb8 -->
<!-- xb8&#45;&gt;c3 -->
</g>
</svg>
