<?xml version="1.0" encoding="UTF-8" standalone="no"?>
<!DOCTYPE svg PUBLIC "-//W3C//DTD SVG 1.1//EN"
 "http://www.w3.org/Graphics/SVG/1.1/DTD/svg11.dtd">
<!-- Generated by graphviz version 10.0.1 (0)
 -->
<!-- Title: tree Pages: 1 -->
<svg width="340pt" height="468pt"
 viewBox="0.00 0.00 340.20 468.00" xmlns="http://www.w3.org/2000/svg" xmlns:xlink="http://www.w3.org/1999/xlink">
<g id="graph0" class="graph" transform="scale(1.8 1.8) rotate(0) translate(4 256)">
<title>tree</title>
<polygon fill="white" stroke="none" points="-4,4 -4,-256 185,-256 185,4 -4,4"/>
<!-- a -->
<g id="node1" class="node">
<title>a</title>
<ellipse fill="none" stroke="black" cx="109" cy="-234" rx="27" ry="18"/>
<text text-anchor="middle" x="109" y="-229.32" font-family="Times,serif" font-size="14.00">A</text>
</g>
<!-- b -->
<g id="node2" class="node">
<title>b</title>
<ellipse fill="none" stroke="black" cx="27" cy="-162" rx="27" ry="18"/>
<text text-anchor="middle" x="27" y="-157.32" font-family="Times,serif" font-size="14.00">B</text>
</g>
<!-- a&#45;&gt;b -->
<g id="edge1" class="edge">
<title>a&#45;&gt;b</title>
<path fill="none" stroke="black" d="M92.8,-219.17C81.12,-209.2 65.14,-195.56 51.85,-184.21"/>
<polygon fill="black" stroke="black" points="54.2,-181.61 44.32,-177.78 49.65,-186.94 54.2,-181.61"/>
</g>
<!-- c -->
<g id="node3" class="node">
<title>c</title>
<ellipse fill="none" stroke="black" cx="137" cy="-162" rx="27" ry="18"/>
<text text-anchor="middle" x="137" y="-157.32" font-family="Times,serif" font-size="14.00">C</text>
</g>
<!-- a&#45;&gt;c -->
<g id="edge2" class="edge">
<title>a&#45;&gt;c</title>
<path fill="none" stroke="black" d="M115.64,-216.41C118.77,-208.57 122.6,-198.99 126.15,-190.13"/>
<polygon fill="black" stroke="black" points="129.39,-191.46 129.85,-180.88 122.89,-188.86 129.39,-191.46"/>
</g>
<!-- e -->
<g id="node5" class="node">
<title>e</title>
<ellipse fill="none" stroke="black" cx="154" cy="-90" rx="27" ry="18"/>
<text text-anchor="middle" x="154" y="-85.33" font-family="Times,serif" font-size="14.00">E</text>
</g>
<!-- a&#45;&gt;e -->
<g id="edge3" class="edge">
<title>a&#45;&gt;e</title>
<path fill="none" stroke="black" d="M129.95,-222.24C145.01,-213.22 164.16,-198.8 173,-180 182.34,-160.13 175.95,-135.61 168.14,-117.34"/>
<polygon fill="black" stroke="black" points="171.41,-116.08 164.01,-108.5 165.08,-119.05 171.41,-116.08"/>
</g>
<!-- d -->
<g id="node4" class="node">
<title>d</title>
<ellipse fill="none" stroke="black" cx="90" cy="-18" rx="27" ry="18"/>
<text text-anchor="middle" x="90" y="-13.32" font-family="Times,serif" font-size="14.00">D</text>
</g>
<!-- b&#45;&gt;d -->
<g id="edge4" class="edge">
<title>b&#45;&gt;d</title>
<path fill="none" stroke="black" d="M28.22,-143.81C30.07,-125.28 34.69,-95.31 46,-72 51.27,-61.14 59.22,-50.6 66.93,-41.82"/>
<polygon fill="black" stroke="black" points="69.49,-44.2 73.71,-34.48 64.35,-39.45 69.49,-44.2"/>
</g>
<!-- f -->
<g id="node6" class="node">
<title>f</title>
<ellipse fill="none" stroke="black" cx="82" cy="-90" rx="27" ry="18"/>
<text text-anchor="middle" x="82" y="-85.33" font-family="Times,serif" font-size="14.00">F</text>
</g>
<!-- b&#45;&gt;f -->
<g id="edge5" class="edge">
<title>b&#45;&gt;f</title>
<path fill="none" stroke="black" d="M39.21,-145.46C46.11,-136.67 54.91,-125.48 62.73,-115.53"/>
<polygon fill="black" stroke="black" points="65.47,-117.71 68.89,-107.68 59.96,-113.38 65.47,-117.71"/>
</g>
<!-- c&#45;&gt;e -->
<g id="edge6" class="edge">
<title>c&#45;&gt;e</title>
<path fill="none" stroke="black" d="M141.12,-144.05C142.93,-136.6 145.1,-127.64 147.15,-119.22"/>
<polygon fill="black" stroke="black" points="150.49,-120.29 149.45,-109.75 143.69,-118.64 150.49,-120.29"/>
</g>
<!-- c&#45;&gt;f -->
<g id="edge7" class="edge">
<title>c&#45;&gt;f</title>
<path fill="none" stroke="black" d="M124.79,-145.46C117.89,-136.67 109.09,-125.48 101.27,-115.53"/>
<polygon fill="black" stroke="black" points="104.04,-113.38 95.11,-107.68 98.53,-117.71 104.04,-113.38"/>
</g>
<!-- e&#45;&gt;d -->
<g id="edge8" class="edge">
<title>e&#45;&gt;d</title>
<path fill="none" stroke="black" d="M140.43,-74.15C131.94,-64.87 120.83,-52.73 111.2,-42.19"/>
<polygon fill="black" stroke="black" points="113.91,-39.96 104.57,-34.94 108.74,-44.68 113.91,-39.96"/>
</g>
<!-- f&#45;&gt;a -->
<g id="edge9" class="edge">
<title>f&#45;&gt;a</title>
<path fill="none" stroke="black" d="M85.27,-108.19C89.84,-132.21 98.18,-176.11 103.66,-204.91"/>
<polygon fill="black" stroke="black" points="100.15,-205.21 105.46,-214.38 107.03,-203.91 100.15,-205.21"/>
</g>
</g>
</svg>
