<?xml version="1.0" encoding="UTF-8" standalone="no"?>
<!DOCTYPE svg PUBLIC "-//W3C//DTD SVG 1.1//EN"
 "http://www.w3.org/Graphics/SVG/1.1/DTD/svg11.dtd">
<!-- Generated by graphviz version 10.0.1 (0)
 -->
<!-- Title: tree Pages: 1 -->
<svg width="203pt" height="432pt"
 viewBox="0.00 0.00 203.49 432.00" xmlns="http://www.w3.org/2000/svg" xmlns:xlink="http://www.w3.org/1999/xlink">
<g id="graph0" class="graph" transform="scale(1.66154 1.66154) rotate(0) translate(4 256)">
<title>tree</title>
<polygon fill="white" stroke="none" points="-4,4 -4,-256 118.47,-256 118.47,4 -4,4"/>
<!-- a -->
<g id="node1" class="node">
<title>a</title>
<ellipse fill="none" stroke="black" cx="27" cy="-162" rx="27" ry="18"/>
<text text-anchor="middle" x="27" y="-157.32" font-family="Times,serif" font-size="14.00">A</text>
</g>
<!-- d -->
<g id="node4" class="node">
<title>d</title>
<ellipse fill="none" stroke="black" cx="73" cy="-90" rx="27" ry="18"/>
<text text-anchor="middle" x="73" y="-85.33" font-family="Times,serif" font-size="14.00">D</text>
</g>
<!-- a&#45;&gt;d -->
<g id="edge3" class="edge">
<title>a&#45;&gt;d</title>
<path fill="none" stroke="black" d="M37.44,-145.12C43.03,-136.61 50.04,-125.94 56.36,-116.32"/>
<polygon fill="black" stroke="black" points="59.21,-118.37 61.77,-108.09 53.36,-114.52 59.21,-118.37"/>
</g>
<!-- b -->
<g id="node2" class="node">
<title>b</title>
<ellipse fill="none" stroke="black" cx="82" cy="-234" rx="27" ry="18"/>
<text text-anchor="middle" x="82" y="-229.32" font-family="Times,serif" font-size="14.00">B</text>
</g>
<!-- b&#45;&gt;a -->
<g id="edge1" class="edge">
<title>b&#45;&gt;a</title>
<path fill="none" stroke="black" d="M69.79,-217.46C62.89,-208.67 54.09,-197.48 46.27,-187.53"/>
<polygon fill="black" stroke="black" points="49.04,-185.38 40.11,-179.68 43.53,-189.71 49.04,-185.38"/>
</g>
<!-- c -->
<g id="node3" class="node">
<title>c</title>
<ellipse fill="none" stroke="black" cx="73" cy="-18" rx="27" ry="18"/>
<text text-anchor="middle" x="73" y="-13.32" font-family="Times,serif" font-size="14.00">C</text>
</g>
<!-- b&#45;&gt;c -->
<g id="edge2" class="edge">
<title>b&#45;&gt;c</title>
<path fill="none" stroke="black" d="M89.61,-216.68C102.29,-187.23 124.83,-123.47 109,-72 105.82,-61.65 99.85,-51.51 93.67,-42.91"/>
<polygon fill="black" stroke="black" points="96.55,-40.91 87.67,-35.13 91.01,-45.19 96.55,-40.91"/>
</g>
<!-- b&#45;&gt;d -->
<g id="edge4" class="edge">
<title>b&#45;&gt;d</title>
<path fill="none" stroke="black" d="M80.9,-215.59C79.38,-191.61 76.62,-148.14 74.8,-119.42"/>
<polygon fill="black" stroke="black" points="78.31,-119.38 74.18,-109.62 71.32,-119.82 78.31,-119.38"/>
</g>
<!-- c&#45;&gt;a -->
<g id="edge5" class="edge">
<title>c&#45;&gt;a</title>
<path fill="none" stroke="black" d="M59.79,-34.11C51.79,-44.15 42.17,-58.02 37,-72 29.86,-91.31 27.43,-114.46 26.75,-132.31"/>
<polygon fill="black" stroke="black" points="23.25,-132.13 26.55,-142.19 30.25,-132.27 23.25,-132.13"/>
</g>
<!-- d&#45;&gt;c -->
<g id="edge6" class="edge">
<title>d&#45;&gt;c</title>
<path fill="none" stroke="black" d="M73,-71.7C73,-64.41 73,-55.73 73,-47.54"/>
<polygon fill="black" stroke="black" points="76.5,-47.62 73,-37.62 69.5,-47.62 76.5,-47.62"/>
</g>
</g>
</svg>
