<?xml version="1.0" encoding="UTF-8" standalone="no"?>
<!DOCTYPE svg PUBLIC "-//W3C//DTD SVG 1.1//EN"
 "http://www.w3.org/Graphics/SVG/1.1/DTD/svg11.dtd">
<!-- Generated by graphviz version 11.0.0 (0)
 -->
<!-- Title: tree Pages: 1 -->
<svg width="557pt" height="612pt"
 viewBox="0.00 0.00 557.47 612.00" xmlns="http://www.w3.org/2000/svg" xmlns:xlink="http://www.w3.org/1999/xlink">
<g id="graph0" class="graph" transform="scale(1.51485 1.51485) rotate(0) translate(4 400)">
<title>tree</title>
<polygon fill="white" stroke="none" points="-4,4 -4,-400 364,-400 364,4 -4,4"/>
<!-- a -->
<g id="node1" class="node">
<title>a</title>
<ellipse fill="none" stroke="black" cx="126" cy="-378" rx="18" ry="18"/>
</g>
<!-- b -->
<g id="node2" class="node">
<title>b</title>
<ellipse fill="none" stroke="black" cx="99" cy="-306" rx="18" ry="18"/>
</g>
<!-- a&#45;&gt;b -->
<g id="edge1" class="edge">
<title>a&#45;&gt;b</title>
<path fill="none" stroke="green" d="M119.74,-360.76C116.64,-352.72 112.81,-342.81 109.3,-333.69"/>
<polygon fill="green" stroke="green" points="112.64,-332.63 105.77,-324.56 106.11,-335.15 112.64,-332.63"/>
</g>
<!-- c -->
<g id="node3" class="node">
<title>c</title>
<ellipse fill="none" stroke="black" cx="180" cy="-306" rx="18" ry="18"/>
</g>
<!-- a&#45;&gt;c -->
<g id="edge2" class="edge">
<title>a&#45;&gt;c</title>
<path fill="none" stroke="green" d="M136.67,-363.17C143.99,-353.68 153.88,-340.86 162.36,-329.86"/>
<polygon fill="green" stroke="green" points="165.09,-332.06 168.43,-322 159.55,-327.78 165.09,-332.06"/>
</g>
<!-- d -->
<g id="node4" class="node">
<title>d</title>
<ellipse fill="none" stroke="black" cx="18" cy="-234" rx="18" ry="18"/>
<text text-anchor="middle" x="18" y="-229.32" font-family="Times,serif" font-size="14.00">9</text>
</g>
<!-- b&#45;&gt;d -->
<g id="edge3" class="edge">
<title>b&#45;&gt;d</title>
<path fill="none" stroke="red" d="M85.62,-293.44C73.2,-282.7 54.46,-266.51 39.86,-253.89"/>
<polygon fill="red" stroke="red" points="42.4,-251.46 32.54,-247.57 37.82,-256.75 42.4,-251.46"/>
</g>
<!-- e -->
<g id="node5" class="node">
<title>e</title>
<ellipse fill="none" stroke="black" cx="72" cy="-234" rx="18" ry="18"/>
</g>
<!-- b&#45;&gt;e -->
<g id="edge4" class="edge">
<title>b&#45;&gt;e</title>
<path fill="none" stroke="red" d="M92.74,-288.76C89.64,-280.72 85.81,-270.81 82.3,-261.69"/>
<polygon fill="red" stroke="red" points="85.64,-260.63 78.77,-252.56 79.11,-263.15 85.64,-260.63"/>
</g>
<!-- f -->
<g id="node6" class="node">
<title>f</title>
<ellipse fill="none" stroke="black" cx="126" cy="-234" rx="18" ry="18"/>
</g>
<!-- b&#45;&gt;f -->
<g id="edge5" class="edge">
<title>b&#45;&gt;f</title>
<path fill="none" stroke="red" d="M105.26,-288.76C108.36,-280.72 112.19,-270.81 115.7,-261.69"/>
<polygon fill="red" stroke="red" points="118.89,-263.15 119.23,-252.56 112.36,-260.63 118.89,-263.15"/>
</g>
<!-- g -->
<g id="node7" class="node">
<title>g</title>
<ellipse fill="none" stroke="black" cx="180" cy="-234" rx="18" ry="18"/>
</g>
<!-- c&#45;&gt;g -->
<g id="edge6" class="edge">
<title>c&#45;&gt;g</title>
<path fill="none" stroke="red" d="M180,-287.7C180,-280.41 180,-271.73 180,-263.54"/>
<polygon fill="red" stroke="red" points="183.5,-263.62 180,-253.62 176.5,-263.62 183.5,-263.62"/>
</g>
<!-- h -->
<g id="node8" class="node">
<title>h</title>
<ellipse fill="none" stroke="black" cx="234" cy="-234" rx="18" ry="18"/>
</g>
<!-- c&#45;&gt;h -->
<g id="edge7" class="edge">
<title>c&#45;&gt;h</title>
<path fill="none" stroke="red" d="M190.67,-291.17C197.99,-281.68 207.88,-268.86 216.36,-257.86"/>
<polygon fill="red" stroke="red" points="219.09,-260.06 222.43,-250 213.55,-255.78 219.09,-260.06"/>
</g>
<!-- i -->
<g id="node9" class="node">
<title>i</title>
<ellipse fill="none" stroke="black" cx="18" cy="-162" rx="18" ry="18"/>
<text text-anchor="middle" x="18" y="-157.32" font-family="Times,serif" font-size="14.00">9</text>
</g>
<!-- e&#45;&gt;i -->
<g id="edge8" class="edge">
<title>e&#45;&gt;i</title>
<path fill="none" stroke="green" d="M61.33,-219.17C54.01,-209.68 44.12,-196.86 35.64,-185.86"/>
<polygon fill="green" stroke="green" points="38.45,-183.78 29.57,-178 32.91,-188.06 38.45,-183.78"/>
</g>
<!-- j -->
<g id="node10" class="node">
<title>j</title>
<ellipse fill="none" stroke="black" cx="72" cy="-162" rx="18" ry="18"/>
<text text-anchor="middle" x="72" y="-157.32" font-family="Times,serif" font-size="14.00">0</text>
</g>
<!-- f&#45;&gt;j -->
<g id="edge9" class="edge">
<title>f&#45;&gt;j</title>
<path fill="none" stroke="green" d="M115.33,-219.17C108.01,-209.68 98.12,-196.86 89.64,-185.86"/>
<polygon fill="green" stroke="green" points="92.45,-183.78 83.57,-178 86.91,-188.06 92.45,-183.78"/>
</g>
<!-- k -->
<g id="node11" class="node">
<title>k</title>
<ellipse fill="none" stroke="black" cx="126" cy="-162" rx="18" ry="18"/>
</g>
<!-- f&#45;&gt;k -->
<g id="edge10" class="edge">
<title>f&#45;&gt;k</title>
<path fill="none" stroke="green" d="M126,-215.7C126,-208.41 126,-199.73 126,-191.54"/>
<polygon fill="green" stroke="green" points="129.5,-191.62 126,-181.62 122.5,-191.62 129.5,-191.62"/>
</g>
<!-- l -->
<g id="node12" class="node">
<title>l</title>
<ellipse fill="none" stroke="black" cx="180" cy="-162" rx="18" ry="18"/>
<text text-anchor="middle" x="180" y="-157.32" font-family="Times,serif" font-size="14.00">9</text>
</g>
<!-- g&#45;&gt;l -->
<g id="edge11" class="edge">
<title>g&#45;&gt;l</title>
<path fill="none" stroke="green" d="M180,-215.7C180,-208.41 180,-199.73 180,-191.54"/>
<polygon fill="green" stroke="green" points="183.5,-191.62 180,-181.62 176.5,-191.62 183.5,-191.62"/>
</g>
<!-- m -->
<g id="node13" class="node">
<title>m</title>
<ellipse fill="none" stroke="black" cx="234" cy="-162" rx="18" ry="18"/>
<text text-anchor="middle" x="234" y="-157.32" font-family="Times,serif" font-size="14.00">0</text>
</g>
<!-- h&#45;&gt;m -->
<g id="edge12" class="edge">
<title>h&#45;&gt;m</title>
<path fill="none" stroke="green" d="M234,-215.7C234,-208.41 234,-199.73 234,-191.54"/>
<polygon fill="green" stroke="green" points="237.5,-191.62 234,-181.62 230.5,-191.62 237.5,-191.62"/>
</g>
<!-- n -->
<g id="node14" class="node">
<title>n</title>
<ellipse fill="none" stroke="black" cx="288" cy="-162" rx="18" ry="18"/>
</g>
<!-- h&#45;&gt;n -->
<g id="edge13" class="edge">
<title>h&#45;&gt;n</title>
<path fill="none" stroke="green" d="M244.67,-219.17C251.99,-209.68 261.88,-196.86 270.36,-185.86"/>
<polygon fill="green" stroke="green" points="273.09,-188.06 276.43,-178 267.55,-183.78 273.09,-188.06"/>
</g>
<!-- o -->
<g id="node15" class="node">
<title>o</title>
<ellipse fill="none" stroke="black" cx="99" cy="-90" rx="18" ry="18"/>
<text text-anchor="middle" x="99" y="-85.33" font-family="Times,serif" font-size="14.00">0</text>
</g>
<!-- k&#45;&gt;o -->
<g id="edge14" class="edge">
<title>k&#45;&gt;o</title>
<path fill="none" stroke="red" d="M119.74,-144.76C116.64,-136.72 112.81,-126.81 109.3,-117.69"/>
<polygon fill="red" stroke="red" points="112.64,-116.63 105.77,-108.56 106.11,-119.15 112.64,-116.63"/>
</g>
<!-- p -->
<g id="node16" class="node">
<title>p</title>
<ellipse fill="none" stroke="black" cx="153" cy="-90" rx="18" ry="18"/>
<text text-anchor="middle" x="153" y="-85.33" font-family="Times,serif" font-size="14.00">9</text>
</g>
<!-- k&#45;&gt;p -->
<g id="edge15" class="edge">
<title>k&#45;&gt;p</title>
<path fill="none" stroke="red" d="M132.26,-144.76C135.36,-136.72 139.19,-126.81 142.7,-117.69"/>
<polygon fill="red" stroke="red" points="145.89,-119.15 146.23,-108.56 139.36,-116.63 145.89,-119.15"/>
</g>
<!-- q -->
<g id="node17" class="node">
<title>q</title>
<ellipse fill="none" stroke="black" cx="261" cy="-90" rx="18" ry="18"/>
<text text-anchor="middle" x="261" y="-85.33" font-family="Times,serif" font-size="14.00">9</text>
</g>
<!-- n&#45;&gt;q -->
<g id="edge16" class="edge">
<title>n&#45;&gt;q</title>
<path fill="none" stroke="red" d="M281.74,-144.76C278.64,-136.72 274.81,-126.81 271.3,-117.69"/>
<polygon fill="red" stroke="red" points="274.64,-116.63 267.77,-108.56 268.11,-119.15 274.64,-116.63"/>
</g>
<!-- r -->
<g id="node18" class="node">
<title>r</title>
<ellipse fill="none" stroke="black" cx="315" cy="-90" rx="18" ry="18"/>
</g>
<!-- n&#45;&gt;r -->
<g id="edge17" class="edge">
<title>n&#45;&gt;r</title>
<path fill="none" stroke="red" d="M294.26,-144.76C297.36,-136.72 301.19,-126.81 304.7,-117.69"/>
<polygon fill="red" stroke="red" points="307.89,-119.15 308.23,-108.56 301.36,-116.63 307.89,-119.15"/>
</g>
<!-- s -->
<g id="node19" class="node">
<title>s</title>
<ellipse fill="none" stroke="black" cx="288" cy="-18" rx="18" ry="18"/>
<text text-anchor="middle" x="288" y="-13.32" font-family="Times,serif" font-size="14.00">0</text>
</g>
<!-- r&#45;&gt;s -->
<g id="edge18" class="edge">
<title>r&#45;&gt;s</title>
<path fill="none" stroke="green" d="M308.74,-72.76C305.64,-64.72 301.81,-54.81 298.3,-45.69"/>
<polygon fill="green" stroke="green" points="301.64,-44.63 294.77,-36.56 295.11,-47.15 301.64,-44.63"/>
</g>
<!-- t -->
<g id="node20" class="node">
<title>t</title>
<ellipse fill="none" stroke="black" cx="342" cy="-18" rx="18" ry="18"/>
<text text-anchor="middle" x="342" y="-13.32" font-family="Times,serif" font-size="14.00">9</text>
</g>
<!-- r&#45;&gt;t -->
<g id="edge19" class="edge">
<title>r&#45;&gt;t</title>
<path fill="none" stroke="green" d="M321.26,-72.76C324.36,-64.72 328.19,-54.81 331.7,-45.69"/>
<polygon fill="green" stroke="green" points="334.89,-47.15 335.23,-36.56 328.36,-44.63 334.89,-47.15"/>
</g>
</g>
</svg>
