<?xml version="1.0" encoding="UTF-8" standalone="no"?>
<!DOCTYPE svg PUBLIC "-//W3C//DTD SVG 1.1//EN"
 "http://www.w3.org/Graphics/SVG/1.1/DTD/svg11.dtd">
<!-- Generated by graphviz version 10.0.1 (0)
 -->
<!-- Title: G Pages: 1 -->
<svg width="209pt" height="188pt"
 viewBox="0.00 0.00 209.00 188.00" xmlns="http://www.w3.org/2000/svg" xmlns:xlink="http://www.w3.org/1999/xlink">
<g id="graph0" class="graph" transform="scale(1 1) rotate(0) translate(4 184)">
<title>G</title>
<polygon fill="white" stroke="none" points="-4,4 -4,-184 205,-184 205,4 -4,4"/>
<!-- a -->
<g id="node1" class="node">
<title>a</title>
<ellipse fill="none" stroke="black" cx="125" cy="-162" rx="27" ry="18"/>
<text text-anchor="middle" x="125" y="-157.32" font-family="Times,serif" font-size="14.00">a</text>
</g>
<!-- b0 -->
<g id="node2" class="node">
<title>b0</title>
<ellipse fill="none" stroke="black" cx="76" cy="-90" rx="27" ry="18"/>
<text text-anchor="middle" x="76" y="-85.33" font-family="Times,serif" font-size="14.00">b0</text>
</g>
<!-- a&#45;&gt;b0 -->
<g id="edge1" class="edge">
<title>a&#45;&gt;b0</title>
<path fill="none" stroke="black" d="M113.88,-145.12C107.87,-136.52 100.3,-125.72 93.51,-116.02"/>
<polygon fill="black" stroke="black" points="96.54,-114.25 87.94,-108.06 90.81,-118.26 96.54,-114.25"/>
</g>
<!-- xb -->
<!-- a&#45;&gt;xb -->
<!-- b1 -->
<g id="node4" class="node">
<title>b1</title>
<ellipse fill="none" stroke="black" cx="174" cy="-90" rx="27" ry="18"/>
<text text-anchor="middle" x="174" y="-85.33" font-family="Times,serif" font-size="14.00">b1</text>
</g>
<!-- a&#45;&gt;b1 -->
<g id="edge3" class="edge">
<title>a&#45;&gt;b1</title>
<path fill="none" stroke="black" d="M136.12,-145.12C142.13,-136.52 149.7,-125.72 156.49,-116.02"/>
<polygon fill="black" stroke="black" points="159.19,-118.26 162.06,-108.06 153.46,-114.25 159.19,-118.26"/>
</g>
<!-- b0&#45;&gt;xb -->
<!-- c0 -->
<g id="node5" class="node">
<title>c0</title>
<ellipse fill="none" stroke="black" cx="27" cy="-18" rx="27" ry="18"/>
<text text-anchor="middle" x="27" y="-13.32" font-family="Times,serif" font-size="14.00">c0</text>
</g>
<!-- b0&#45;&gt;c0 -->
<g id="edge6" class="edge">
<title>b0&#45;&gt;c0</title>
<path fill="none" stroke="black" d="M64.88,-73.12C58.87,-64.52 51.3,-53.72 44.51,-44.02"/>
<polygon fill="black" stroke="black" points="47.54,-42.25 38.94,-36.06 41.81,-46.26 47.54,-42.25"/>
</g>
<!-- xc -->
<!-- b0&#45;&gt;xc -->
<!-- c1 -->
<g id="node7" class="node">
<title>c1</title>
<ellipse fill="none" stroke="black" cx="125" cy="-18" rx="27" ry="18"/>
<text text-anchor="middle" x="125" y="-13.32" font-family="Times,serif" font-size="14.00">c1</text>
</g>
<!-- b0&#45;&gt;c1 -->
<g id="edge8" class="edge">
<title>b0&#45;&gt;c1</title>
<path fill="none" stroke="black" d="M87.12,-73.12C93.13,-64.52 100.7,-53.72 107.49,-44.02"/>
<polygon fill="black" stroke="black" points="110.19,-46.26 113.06,-36.06 104.46,-42.25 110.19,-46.26"/>
</g>
<!-- xb&#45;&gt;b1 -->
<!-- c0&#45;&gt;xc -->
<!-- xc&#45;&gt;c1 -->
</g>
</svg>
