<?xml version="1.0" encoding="us-ascii" standalone="no"?><svg xmlns="http://www.w3.org/2000/svg" xmlns:xlink="http://www.w3.org/1999/xlink" contentStyleType="text/css" height="680.8252px" preserveAspectRatio="none" style="width:750px;height:680px;background:#FFFFFF;" version="1.1" viewBox="0 0 750 680" width="750.9102px" zoomAndPan="magnify"><defs/><g><!--class Expression--><g id="elem_Expression"><rect codeLine="3" fill="#F1F1F1" height="113.1113" id="Expression" rx="2.2755" ry="2.2755" style="stroke:#181818;stroke-width:0.4550970873786408;" width="224.818" x="387.7427" y="6.3714"/><ellipse cx="465.7919" cy="20.9345" fill="#B4A7E5" rx="10.0121" ry="10.0121" style="stroke:#181818;stroke-width:0.9101941747572816;"/><path d="M462.1795,26.8507 L462.1795,25.3006 L464.327,25.0588 L464.327,17.5923 L462.1795,17.3506 L462.1795,15.8004 L468.6789,15.8004 L468.6789,17.3506 L466.4745,17.5923 L466.4745,25.0588 L468.6789,25.3006 L468.6789,26.8507 L462.1795,26.8507 Z " fill="#000000"/><text fill="#000000" font-family="sans-serif" font-size="12.7427" font-style="italic" lengthAdjust="spacing" textLength="60.983" x="484.4508" y="25.8786">Expression</text><line style="stroke:#181818;stroke-width:0.4550970873786408;" x1="388.6529" x2="611.6505" y1="35.4976" y2="35.4976"/><line style="stroke:#181818;stroke-width:0.4550970873786408;" x1="388.6529" x2="611.6505" y1="42.7791" y2="42.7791"/><text fill="#000000" font-family="sans-serif" font-size="12.7427" lengthAdjust="spacing" textLength="79.1869" x="393.2039" y="60.0418">int evaluate()</text><text fill="#000000" font-family="sans-serif" font-size="12.7427" lengthAdjust="spacing" textLength="115.5947" x="393.2039" y="77.3973">int countProducts()</text><text fill="#000000" font-family="sans-serif" font-size="12.7427" lengthAdjust="spacing" textLength="160.1942" x="393.2039" y="94.7528">int countDistinctIntegers()</text><text fill="#000000" font-family="sans-serif" font-size="12.7427" lengthAdjust="spacing" textLength="213.8956" x="393.2039" y="112.1083">int countSubExpressions(int result)</text></g><!--class Operator--><g id="elem_Operator"><rect codeLine="10" fill="#F1F1F1" height="78.4003" id="Operator" rx="2.2755" ry="2.2755" style="stroke:#181818;stroke-width:0.4550970873786408;" width="207.5243" x="271.693" y="208.7439"/><ellipse cx="345.1911" cy="223.307" fill="#B4A7E5" rx="10.0121" ry="10.0121" style="stroke:#181818;stroke-width:0.9101941747572816;"/><path d="M341.5788,229.2233 L341.5788,227.6731 L343.7263,227.4314 L343.7263,219.9649 L341.5788,219.7231 L341.5788,218.173 L348.0782,218.173 L348.0782,219.7231 L345.8738,219.9649 L345.8738,227.4314 L348.0782,227.6731 L348.0782,229.2233 L341.5788,229.2233 Z " fill="#000000"/><text fill="#000000" font-family="sans-serif" font-size="12.7427" font-style="italic" lengthAdjust="spacing" textLength="52.7913" x="363.8501" y="228.2512">Operator</text><line style="stroke:#181818;stroke-width:0.4550970873786408;" x1="272.6032" x2="478.307" y1="237.8701" y2="237.8701"/><line style="stroke:#181818;stroke-width:0.4550970873786408;" x1="272.6032" x2="478.307" y1="245.1517" y2="245.1517"/><text fill="#000000" font-family="sans-serif" font-size="12.7427" lengthAdjust="spacing" textLength="178.3981" x="277.1541" y="262.4144">Expression getFirstOperand()</text><text fill="#000000" font-family="sans-serif" font-size="12.7427" lengthAdjust="spacing" textLength="196.6019" x="277.1541" y="279.7699">Expression getSecondOperand()</text></g><!--class AbstractOperator--><g id="elem_AbstractOperator"><rect codeLine="15" fill="#F1F1F1" height="130.4669" id="AbstractOperator" rx="2.2755" ry="2.2755" style="stroke:#181818;stroke-width:0.4550970873786408;" width="207.5243" x="271.693" y="376.4108"/><ellipse cx="321.5261" cy="390.9739" fill="#A9DCDF" rx="10.0121" ry="10.0121" style="stroke:#181818;stroke-width:0.9101941747572816;"/><path d="M317.1316,396.2075 L320.175,385.1145 L323.0336,385.1145 L326.1055,396.2075 L323.8585,396.2075 L323.19,393.4627 L319.9901,393.4627 L319.3075,396.2075 L317.1316,396.2075 Z M321.1421,388.8833 L320.4595,391.6139 L322.7492,391.6139 L322.095,388.8833 Q321.967,388.3571 321.8532,387.8593 Q321.7394,387.3474 321.6114,386.8211 Q321.5119,387.3474 321.3839,387.8593 Q321.2559,388.3571 321.1421,388.8833 Z " fill="#000000"/><text fill="#000000" font-family="sans-serif" font-size="12.7427" font-style="italic" lengthAdjust="spacing" textLength="100.1214" x="340.1851" y="395.9181">AbstractOperator</text><line style="stroke:#181818;stroke-width:0.4550970873786408;" x1="272.6032" x2="478.307" y1="405.537" y2="405.537"/><text fill="#000000" font-family="sans-serif" font-size="12.7427" lengthAdjust="spacing" textLength="149.2718" x="277.1541" y="422.7997">Expression firstOperand</text><text fill="#000000" font-family="sans-serif" font-size="12.7427" lengthAdjust="spacing" textLength="168.3859" x="277.1541" y="440.1552">Expression secondOperand</text><line style="stroke:#181818;stroke-width:0.4550970873786408;" x1="272.6032" x2="478.307" y1="447.5296" y2="447.5296"/><text fill="#000000" font-family="sans-serif" font-size="12.7427" lengthAdjust="spacing" textLength="178.3981" x="277.1541" y="464.7923">Expression getFirstOperand()</text><text fill="#000000" font-family="sans-serif" font-size="12.7427" lengthAdjust="spacing" textLength="196.6019" x="277.1541" y="482.1478">Expression getSecondOperand()</text><text fill="#000000" font-family="sans-serif" font-size="12.7427" lengthAdjust="spacing" textLength="160.1942" x="277.1541" y="499.5033">int countDistinctIntegers()</text></g><!--class Sum--><g id="elem_Sum"><rect codeLine="24" fill="#F1F1F1" height="95.7558" id="Sum" rx="2.2755" ry="2.2755" style="stroke:#181818;stroke-width:0.4550970873786408;" width="224.818" x="6.3714" y="578.7834"/><ellipse cx="101.2591" cy="593.3465" fill="#ADD1B2" rx="10.0121" ry="10.0121" style="stroke:#181818;stroke-width:0.9101941747572816;"/><path d="M100.7756,599.6467 Q99.1827,599.6467 98.1445,598.9783 Q97.1206,598.2957 96.6086,597.0726 Q96.1108,595.8353 96.1108,594.1998 Q96.1108,592.351 96.7081,591.0283 Q97.3054,589.7057 98.4716,588.9946 Q99.6378,588.2835 101.3444,588.2835 Q102.1551,588.2835 102.7666,588.4542 Q103.3781,588.6106 104.0039,588.9235 L103.2644,590.7581 Q102.6955,590.4737 102.1977,590.3599 Q101.7142,590.2461 101.2733,590.2461 Q100.2067,590.2461 99.5667,590.7297 Q98.9267,591.2132 98.6565,592.0807 Q98.3863,592.9483 98.3863,594.1002 Q98.3863,595.9348 99.0405,596.8166 Q99.6947,597.6841 101.1453,597.6841 Q101.6858,597.6841 102.2546,597.5419 Q102.8235,597.3997 103.5773,597.0584 L103.5773,599.0779 Q102.9088,599.3623 102.1835,599.5045 Q101.4724,599.6467 100.7756,599.6467 Z " fill="#000000"/><text fill="#000000" font-family="sans-serif" font-size="12.7427" lengthAdjust="spacing" textLength="27.3058" x="119.9181" y="598.2906">Sum</text><line style="stroke:#181818;stroke-width:0.4550970873786408;" x1="7.2816" x2="230.2791" y1="607.9096" y2="607.9096"/><line style="stroke:#181818;stroke-width:0.4550970873786408;" x1="7.2816" x2="230.2791" y1="615.1911" y2="615.1911"/><text fill="#000000" font-family="sans-serif" font-size="12.7427" lengthAdjust="spacing" textLength="79.1869" x="11.8325" y="632.4538">int evaluate()</text><text fill="#000000" font-family="sans-serif" font-size="12.7427" lengthAdjust="spacing" textLength="115.5947" x="11.8325" y="649.8093">int countProducts()</text><text fill="#000000" font-family="sans-serif" font-size="12.7427" lengthAdjust="spacing" textLength="213.8956" x="11.8325" y="667.1648">int countSubExpressions(int result)</text></g><!--class Product--><g id="elem_Product"><rect codeLine="30" fill="#F1F1F1" height="95.7558" id="Product" rx="2.2755" ry="2.2755" style="stroke:#181818;stroke-width:0.4550970873786408;" width="224.818" x="263.0461" y="578.7834"/><ellipse cx="347.9217" cy="593.3465" fill="#ADD1B2" rx="10.0121" ry="10.0121" style="stroke:#181818;stroke-width:0.9101941747572816;"/><path d="M347.4382,599.6467 Q345.8453,599.6467 344.8072,598.9783 Q343.7832,598.2957 343.2712,597.0726 Q342.7734,595.8353 342.7734,594.1998 Q342.7734,592.351 343.3708,591.0283 Q343.9681,589.7057 345.1343,588.9946 Q346.3004,588.2835 348.0071,588.2835 Q348.8177,588.2835 349.4292,588.4542 Q350.0408,588.6106 350.6665,588.9235 L349.927,590.7581 Q349.3581,590.4737 348.8604,590.3599 Q348.3768,590.2461 347.9359,590.2461 Q346.8693,590.2461 346.2293,590.7297 Q345.5894,591.2132 345.3191,592.0807 Q345.0489,592.9483 345.0489,594.1002 Q345.0489,595.9348 345.7031,596.8166 Q346.3573,597.6841 347.8079,597.6841 Q348.3484,597.6841 348.9172,597.5419 Q349.4861,597.3997 350.2399,597.0584 L350.2399,599.0779 Q349.5715,599.3623 348.8461,599.5045 Q348.1351,599.6467 347.4382,599.6467 Z " fill="#000000"/><text fill="#000000" font-family="sans-serif" font-size="12.7427" lengthAdjust="spacing" textLength="47.3301" x="366.5807" y="598.2906">Product</text><line style="stroke:#181818;stroke-width:0.4550970873786408;" x1="263.9563" x2="486.9539" y1="607.9096" y2="607.9096"/><line style="stroke:#181818;stroke-width:0.4550970873786408;" x1="263.9563" x2="486.9539" y1="615.1911" y2="615.1911"/><text fill="#000000" font-family="sans-serif" font-size="12.7427" lengthAdjust="spacing" textLength="79.1869" x="268.5073" y="632.4538">int evaluate()</text><text fill="#000000" font-family="sans-serif" font-size="12.7427" lengthAdjust="spacing" textLength="115.5947" x="268.5073" y="649.8093">int countProducts()</text><text fill="#000000" font-family="sans-serif" font-size="12.7427" lengthAdjust="spacing" textLength="213.8956" x="268.5073" y="667.1648">int countSubExpressions(int result)</text></g><!--class Division--><g id="elem_Division"><rect codeLine="36" fill="#F1F1F1" height="95.7558" id="Division" rx="2.2755" ry="2.2755" style="stroke:#181818;stroke-width:0.4550970873786408;" width="224.818" x="519.7209" y="578.7834"/><ellipse cx="604.1414" cy="593.3465" fill="#ADD1B2" rx="10.0121" ry="10.0121" style="stroke:#181818;stroke-width:0.9101941747572816;"/><path d="M603.6578,599.6467 Q602.065,599.6467 601.0268,598.9783 Q600.0028,598.2957 599.4909,597.0726 Q598.9931,595.8353 598.9931,594.1998 Q598.9931,592.351 599.5904,591.0283 Q600.1877,589.7057 601.3539,588.9946 Q602.5201,588.2835 604.2267,588.2835 Q605.0374,588.2835 605.6489,588.4542 Q606.2604,588.6106 606.8862,588.9235 L606.1467,590.7581 Q605.5778,590.4737 605.08,590.3599 Q604.5965,590.2461 604.1556,590.2461 Q603.089,590.2461 602.449,590.7297 Q601.809,591.2132 601.5388,592.0807 Q601.2686,592.9483 601.2686,594.1002 Q601.2686,595.9348 601.9228,596.8166 Q602.577,597.6841 604.0276,597.6841 Q604.568,597.6841 605.1369,597.5419 Q605.7058,597.3997 606.4595,597.0584 L606.4595,599.0779 Q605.7911,599.3623 605.0658,599.5045 Q604.3547,599.6467 603.6578,599.6467 Z " fill="#000000"/><text fill="#000000" font-family="sans-serif" font-size="12.7427" lengthAdjust="spacing" textLength="48.2403" x="622.8004" y="598.2906">Division</text><line style="stroke:#181818;stroke-width:0.4550970873786408;" x1="520.6311" x2="743.6286" y1="607.9096" y2="607.9096"/><line style="stroke:#181818;stroke-width:0.4550970873786408;" x1="520.6311" x2="743.6286" y1="615.1911" y2="615.1911"/><text fill="#000000" font-family="sans-serif" font-size="12.7427" lengthAdjust="spacing" textLength="79.1869" x="525.182" y="632.4538">int evaluate()</text><text fill="#000000" font-family="sans-serif" font-size="12.7427" lengthAdjust="spacing" textLength="115.5947" x="525.182" y="649.8093">int countProducts()</text><text fill="#000000" font-family="sans-serif" font-size="12.7427" lengthAdjust="spacing" textLength="213.8956" x="525.182" y="667.1648">int countSubExpressions(int result)</text></g><!--class IntegerValue--><g id="elem_IntegerValue"><rect codeLine="42" fill="#F1F1F1" height="113.1113" id="IntegerValue" rx="2.2755" ry="2.2755" style="stroke:#181818;stroke-width:0.4550970873786408;" width="224.818" x="511.5291" y="191.3956"/><ellipse cx="580.4763" cy="205.9587" fill="#ADD1B2" rx="10.0121" ry="10.0121" style="stroke:#181818;stroke-width:0.9101941747572816;"/><path d="M579.9928,212.259 Q578.4,212.259 577.3618,211.5906 Q576.3378,210.9079 575.8258,209.6848 Q575.328,208.4476 575.328,206.812 Q575.328,204.9632 575.9254,203.6406 Q576.5227,202.318 577.6889,201.6069 Q578.8551,200.8958 580.5617,200.8958 Q581.3723,200.8958 581.9838,201.0664 Q582.5954,201.2229 583.2211,201.5358 L582.4816,203.3704 Q581.9127,203.0859 581.415,202.9722 Q580.9314,202.8584 580.4906,202.8584 Q579.4239,202.8584 578.7839,203.3419 Q578.144,203.8255 577.8737,204.693 Q577.6035,205.5605 577.6035,206.7125 Q577.6035,208.5471 578.2577,209.4289 Q578.9119,210.2964 580.3626,210.2964 Q580.903,210.2964 581.4719,210.1542 Q582.0407,210.0119 582.7945,209.6706 L582.7945,211.6901 Q582.1261,211.9746 581.4008,212.1168 Q580.6897,212.259 579.9928,212.259 Z " fill="#000000"/><text fill="#000000" font-family="sans-serif" font-size="12.7427" lengthAdjust="spacing" textLength="79.1869" x="599.1353" y="210.9029">IntegerValue</text><line style="stroke:#181818;stroke-width:0.4550970873786408;" x1="512.4393" x2="735.4369" y1="220.5218" y2="220.5218"/><line style="stroke:#181818;stroke-width:0.4550970873786408;" x1="512.4393" x2="735.4369" y1="227.8034" y2="227.8034"/><text fill="#000000" font-family="sans-serif" font-size="12.7427" lengthAdjust="spacing" textLength="79.1869" x="516.9903" y="245.0661">int evaluate()</text><text fill="#000000" font-family="sans-serif" font-size="12.7427" lengthAdjust="spacing" textLength="115.5947" x="516.9903" y="262.4216">int countProducts()</text><text fill="#000000" font-family="sans-serif" font-size="12.7427" lengthAdjust="spacing" textLength="160.1942" x="516.9903" y="279.7771">int countDistinctIntegers()</text><text fill="#000000" font-family="sans-serif" font-size="12.7427" lengthAdjust="spacing" textLength="213.8956" x="516.9903" y="297.1326">int countSubExpressions(int result)</text></g><!--reverse link Expression to Operator--><g id="link_Expression_Operator"><path codeLine="50" d="M452.8418,133.3439 C433.2909,162.0696 419.1808,182.7943 401.6687,208.5255 " fill="none" id="Expression-backto-Operator" style="stroke:#181818;stroke-width:0.9101941747572816;stroke-dasharray:7.0,7.0;"/><polygon fill="none" points="462.0601,119.7998,448.3271,130.2711,457.3565,136.4166,462.0601,119.7998" style="stroke:#181818;stroke-width:0.9101941747572816;"/><text fill="#000000" font-family="sans-serif" font-size="11.8325" lengthAdjust="spacing" textLength="43.6893" x="442.8095" y="160.3553">extends</text></g><!--reverse link Operator to AbstractOperator--><g id="link_Operator_AbstractOperator"><path codeLine="52" d="M375.4551,292.9187 C375.4551,318.304 375.4551,346.693 375.4551,376.1286 " fill="none" id="Operator-backto-AbstractOperator" style="stroke:#181818;stroke-width:0.9101941747572816;"/><polygon fill="#181818" points="375.4551,287.4575,371.8143,295.6493,375.4551,292.0085,379.0959,295.6493,375.4551,287.4575" style="stroke:#181818;stroke-width:0.9101941747572816;"/><text fill="#000000" font-family="sans-serif" font-size="11.8325" lengthAdjust="spacing" textLength="64.6238" x="376.3653" y="345.3705">implements</text></g><!--reverse link Expression to IntegerValue--><g id="link_Expression_IntegerValue"><path codeLine="53" d="M541.019,124.3246 C556.3102,146.952 570.8556,168.486 586.1468,191.1044 " fill="none" id="Expression-backto-IntegerValue" style="stroke:#181818;stroke-width:0.9101941747572816;"/><polygon fill="#181818" points="537.9612,119.7998,539.5313,128.6255,540.5093,123.5705,545.5644,124.5485,537.9612,119.7998" style="stroke:#181818;stroke-width:0.9101941747572816;"/><text fill="#000000" font-family="sans-serif" font-size="11.8325" lengthAdjust="spacing" textLength="64.6238" x="567.5061" y="160.3553">implements</text></g><!--reverse link AbstractOperator to Sum--><g id="link_AbstractOperator_Sum"><path codeLine="55" d="M271.6268,516.6577 C238.7142,540.1407 215.4976,556.7203 185.0698,578.4284 " fill="none" id="AbstractOperator-backto-Sum" style="stroke:#181818;stroke-width:0.9101941747572816;"/><polygon fill="none" points="284.9636,507.142,268.4549,512.2121,274.7987,521.1033,284.9636,507.142" style="stroke:#181818;stroke-width:0.9101941747572816;"/><text fill="#000000" font-family="sans-serif" font-size="11.8325" lengthAdjust="spacing" textLength="43.6893" x="240.7464" y="547.743">extends</text></g><!--reverse link AbstractOperator to Product--><g id="link_AbstractOperator_Product"><path codeLine="56" d="M375.4551,523.5255 C375.4551,547.0085 375.4551,556.7203 375.4551,578.4284 " fill="none" id="AbstractOperator-backto-Product" style="stroke:#181818;stroke-width:0.9101941747572816;"/><polygon fill="none" points="375.4551,507.142,369.9939,523.5255,380.9163,523.5255,375.4551,507.142" style="stroke:#181818;stroke-width:0.9101941747572816;"/><text fill="#000000" font-family="sans-serif" font-size="11.8325" lengthAdjust="spacing" textLength="43.6893" x="376.3653" y="547.743">extends</text></g><!--reverse link AbstractOperator to Division--><g id="link_AbstractOperator_Division"><path codeLine="57" d="M479.2834,516.6577 C512.196,540.1407 535.4126,556.7203 565.8404,578.4284 " fill="none" id="AbstractOperator-backto-Division" style="stroke:#181818;stroke-width:0.9101941747572816;"/><polygon fill="none" points="465.9466,507.142,476.1115,521.1033,482.4553,512.2121,465.9466,507.142" style="stroke:#181818;stroke-width:0.9101941747572816;"/><text fill="#000000" font-family="sans-serif" font-size="11.8325" lengthAdjust="spacing" textLength="43.6893" x="528.3677" y="547.743">extends</text></g><!--SRC=[lLB1IWCn4BtdA-RO7bgyY53s8bJ1ayA2zpIPri1kicGcjM3zTzFjsYHMgrJqc7blthpCF5AoGRYwl81de_b926CP_L8gX9jDvv78E0il0Y02W6lP1Cau6Wy5vOBb1-zqK4nbTMw8ZLLy5mLNw3-WTLWaVHhjwl4H6XwBrzp4VOTUilEzXSpH2ldMUE8UjxeNB-4QbRCwuL5MBeYzLD528udWUdX-DMEP3IWHohN5RvsTNbhqlRTRX_QiGvnUzLvxwFmp_RbPcxEJz9C1my8Ueoh-Urn5TjzgEvscrCu0DunMan27MZMP74Tl1gRj6cpHCXLoaLpyhI2A8vrg6njsIKcJF-UyN_mxtk5oYVW6]--></g></svg>