<?xml version="1.0" encoding="us-ascii" standalone="no"?><svg xmlns="http://www.w3.org/2000/svg" xmlns:xlink="http://www.w3.org/1999/xlink" contentStyleType="text/css" height="435.2617px" preserveAspectRatio="none" style="width:1001px;height:435px;background:#FFFFFF;" version="1.1" viewBox="0 0 1001 435" width="1001.3774px" zoomAndPan="magnify"><defs/><g><!--class Exception--><g id="elem_Exception"><rect codeLine="3" fill="#F1F1F1" height="66.1157" id="Exception" rx="3.4435" ry="3.4435" style="stroke:#181818;stroke-width:0.6887052341597796;" width="133.6088" x="626.7218" y="9.6419"/><ellipse cx="647.3829" cy="31.6804" fill="#ADD1B2" rx="15.1515" ry="15.1515" style="stroke:#181818;stroke-width:1.3774104683195592;"/><path d="M646.6512,41.2147 Q644.2407,41.2147 642.6696,40.2032 Q641.12,39.1701 640.3452,37.3192 Q639.5919,35.4468 639.5919,32.9718 Q639.5919,30.1739 640.4959,28.1723 Q641.3998,26.1708 643.1646,25.0947 Q644.9294,24.0186 647.5121,24.0186 Q648.7388,24.0186 649.6643,24.2769 Q650.5897,24.5136 651.5367,24.9871 L650.4175,27.7634 Q649.5566,27.333 648.8034,27.1608 Q648.0716,26.9886 647.4044,26.9886 Q645.7903,26.9886 644.8218,27.7204 Q643.8533,28.4521 643.4444,29.765 Q643.0355,31.0778 643.0355,32.8211 Q643.0355,35.5975 644.0255,36.9318 Q645.0155,38.2447 647.2107,38.2447 Q648.0286,38.2447 648.8895,38.0294 Q649.7503,37.8142 650.891,37.2977 L650.891,40.3538 Q649.8795,40.7843 648.7819,40.9995 Q647.7058,41.2147 646.6512,41.2147 Z " fill="#000000"/><text fill="#000000" font-family="sans-serif" font-size="19.2837" lengthAdjust="spacing" textLength="89.5317" x="666.6667" y="39.1625">Exception</text><line style="stroke:#181818;stroke-width:0.6887052341597796;" x1="628.0992" x2="758.9532" y1="53.719" y2="53.719"/><line style="stroke:#181818;stroke-width:0.6887052341597796;" x1="628.0992" x2="758.9532" y1="64.7383" y2="64.7383"/></g><!--class RuntimeException--><g id="elem_RuntimeException"><rect codeLine="6" fill="#F1F1F1" height="66.1157" id="RuntimeException" rx="3.4435" ry="3.4435" style="stroke:#181818;stroke-width:0.6887052341597796;" width="212.1212" x="418.0441" y="184.573"/><ellipse cx="438.7052" cy="206.6116" fill="#ADD1B2" rx="15.1515" ry="15.1515" style="stroke:#181818;stroke-width:1.3774104683195592;"/><path d="M437.9735,216.1458 Q435.563,216.1458 433.9919,215.1343 Q432.4423,214.1012 431.6675,212.2503 Q430.9143,210.3779 430.9143,207.9029 Q430.9143,205.105 431.8182,203.1035 Q432.7221,201.1019 434.4869,200.0258 Q436.2517,198.9497 438.8344,198.9497 Q440.0611,198.9497 440.9866,199.208 Q441.912,199.4447 442.859,199.9182 L441.7398,202.6946 Q440.879,202.2641 440.1257,202.0919 Q439.3939,201.9198 438.7268,201.9198 Q437.1126,201.9198 436.1441,202.6515 Q435.1756,203.3833 434.7667,204.6961 Q434.3578,206.009 434.3578,207.7522 Q434.3578,210.5286 435.3478,211.8629 Q436.3378,213.1758 438.5331,213.1758 Q439.3509,213.1758 440.2118,212.9606 Q441.0727,212.7454 442.2133,212.2288 L442.2133,215.285 Q441.2018,215.7154 440.1042,215.9306 Q439.0281,216.1458 437.9735,216.1458 Z " fill="#000000"/><text fill="#000000" font-family="sans-serif" font-size="19.2837" lengthAdjust="spacing" textLength="168.0441" x="457.989" y="214.0936">RuntimeException</text><line style="stroke:#181818;stroke-width:0.6887052341597796;" x1="419.4215" x2="628.7879" y1="228.6501" y2="228.6501"/><line style="stroke:#181818;stroke-width:0.6887052341597796;" x1="419.4215" x2="628.7879" y1="239.6694" y2="239.6694"/></g><!--class IllegalArgumentException--><g id="elem_IllegalArgumentException"><rect codeLine="9" fill="#F1F1F1" height="66.1157" id="IllegalArgumentException" rx="3.4435" ry="3.4435" style="stroke:#181818;stroke-width:0.6887052341597796;" width="285.124" x="9.6419" y="359.5041"/><ellipse cx="30.303" cy="381.5427" fill="#ADD1B2" rx="15.1515" ry="15.1515" style="stroke:#181818;stroke-width:1.3774104683195592;"/><path d="M29.5713,391.077 Q27.1608,391.077 25.5897,390.0654 Q24.0401,389.0324 23.2653,387.1815 Q22.5121,385.3091 22.5121,382.834 Q22.5121,380.0362 23.416,378.0346 Q24.3199,376.0331 26.0847,374.957 Q27.8495,373.8809 30.4322,373.8809 Q31.6589,373.8809 32.5844,374.1391 Q33.5098,374.3759 34.4568,374.8493 L33.3376,377.6257 Q32.4768,377.1952 31.7235,377.0231 Q30.9917,376.8509 30.3246,376.8509 Q28.7104,376.8509 27.7419,377.5826 Q26.7734,378.3144 26.3645,379.6272 Q25.9556,380.9401 25.9556,382.6834 Q25.9556,385.4597 26.9456,386.7941 Q27.9356,388.1069 30.1309,388.1069 Q30.9487,388.1069 31.8096,387.8917 Q32.6705,387.6765 33.8111,387.16 L33.8111,390.2161 Q32.7996,390.6465 31.702,390.8617 Q30.6259,391.077 29.5713,391.077 Z " fill="#000000"/><text fill="#000000" font-family="sans-serif" font-size="19.2837" lengthAdjust="spacing" textLength="241.0468" x="49.5868" y="389.0248">IllegalArgumentException</text><line style="stroke:#181818;stroke-width:0.6887052341597796;" x1="11.0193" x2="293.3884" y1="403.5813" y2="403.5813"/><line style="stroke:#181818;stroke-width:0.6887052341597796;" x1="11.0193" x2="293.3884" y1="414.6006" y2="414.6006"/></g><!--class ArrayIndexOutOfBoundsException--><g id="elem_ArrayIndexOutOfBoundsException"><rect codeLine="13" fill="#F1F1F1" height="66.1157" id="ArrayIndexOutOfBoundsException" rx="3.4435" ry="3.4435" style="stroke:#181818;stroke-width:0.6887052341597796;" width="362.259" x="342.9752" y="359.5041"/><ellipse cx="363.6364" cy="381.5427" fill="#ADD1B2" rx="15.1515" ry="15.1515" style="stroke:#181818;stroke-width:1.3774104683195592;"/><path d="M362.9046,391.077 Q360.4941,391.077 358.923,390.0654 Q357.3735,389.0324 356.5987,387.1815 Q355.8454,385.3091 355.8454,382.834 Q355.8454,380.0362 356.7493,378.0346 Q357.6532,376.0331 359.418,374.957 Q361.1829,373.8809 363.7655,373.8809 Q364.9923,373.8809 365.9177,374.1391 Q366.8431,374.3759 367.7901,374.8493 L366.671,377.6257 Q365.8101,377.1952 365.0568,377.0231 Q364.3251,376.8509 363.6579,376.8509 Q362.0437,376.8509 361.0752,377.5826 Q360.1067,378.3144 359.6978,379.6272 Q359.2889,380.9401 359.2889,382.6834 Q359.2889,385.4597 360.2789,386.7941 Q361.2689,388.1069 363.4642,388.1069 Q364.282,388.1069 365.1429,387.8917 Q366.0038,387.6765 367.1445,387.16 L367.1445,390.2161 Q366.1329,390.6465 365.0353,390.8617 Q363.9592,391.077 362.9046,391.077 Z " fill="#000000"/><text fill="#000000" font-family="sans-serif" font-size="19.2837" lengthAdjust="spacing" textLength="318.1818" x="382.9201" y="389.0248">ArrayIndexOutOfBoundsException</text><line style="stroke:#181818;stroke-width:0.6887052341597796;" x1="344.3526" x2="703.8567" y1="403.5813" y2="403.5813"/><line style="stroke:#181818;stroke-width:0.6887052341597796;" x1="344.3526" x2="703.8567" y1="414.6006" y2="414.6006"/></g><!--class NullPointerException--><g id="elem_NullPointerException"><rect codeLine="16" fill="#F1F1F1" height="66.1157" id="NullPointerException" rx="3.4435" ry="3.4435" style="stroke:#181818;stroke-width:0.6887052341597796;" width="238.292" x="753.4435" y="359.5041"/><ellipse cx="774.1047" cy="381.5427" fill="#ADD1B2" rx="15.1515" ry="15.1515" style="stroke:#181818;stroke-width:1.3774104683195592;"/><path d="M773.3729,391.077 Q770.9625,391.077 769.3914,390.0654 Q767.8418,389.0324 767.067,387.1815 Q766.3137,385.3091 766.3137,382.834 Q766.3137,380.0362 767.2176,378.0346 Q768.1216,376.0331 769.8864,374.957 Q771.6512,373.8809 774.2338,373.8809 Q775.4606,373.8809 776.386,374.1391 Q777.3115,374.3759 778.2584,374.8493 L777.1393,377.6257 Q776.2784,377.1952 775.5251,377.0231 Q774.7934,376.8509 774.1262,376.8509 Q772.5121,376.8509 771.5436,377.5826 Q770.5751,378.3144 770.1662,379.6272 Q769.7572,380.9401 769.7572,382.6834 Q769.7572,385.4597 770.7472,386.7941 Q771.7373,388.1069 773.9325,388.1069 Q774.7503,388.1069 775.6112,387.8917 Q776.4721,387.6765 777.6128,387.16 L777.6128,390.2161 Q776.6012,390.6465 775.5036,390.8617 Q774.4275,391.077 773.3729,391.077 Z " fill="#000000"/><text fill="#000000" font-family="sans-serif" font-size="19.2837" lengthAdjust="spacing" textLength="194.2149" x="793.3884" y="389.0248">NullPointerException</text><line style="stroke:#181818;stroke-width:0.6887052341597796;" x1="754.8209" x2="990.3581" y1="403.5813" y2="403.5813"/><line style="stroke:#181818;stroke-width:0.6887052341597796;" x1="754.8209" x2="990.3581" y1="414.6006" y2="414.6006"/></g><!--class IOException--><g id="elem_IOException"><rect codeLine="19" fill="#F1F1F1" height="66.1157" id="IOException" rx="3.4435" ry="3.4435" style="stroke:#181818;stroke-width:0.6887052341597796;" width="155.6474" x="677.686" y="184.573"/><ellipse cx="698.3471" cy="206.6116" fill="#ADD1B2" rx="15.1515" ry="15.1515" style="stroke:#181818;stroke-width:1.3774104683195592;"/><path d="M697.6154,216.1458 Q695.2049,216.1458 693.6338,215.1343 Q692.0842,214.1012 691.3094,212.2503 Q690.5561,210.3779 690.5561,207.9029 Q690.5561,205.105 691.4601,203.1035 Q692.364,201.1019 694.1288,200.0258 Q695.8936,198.9497 698.4762,198.9497 Q699.703,198.9497 700.6284,199.208 Q701.5539,199.4447 702.5009,199.9182 L701.3817,202.6946 Q700.5208,202.2641 699.7676,202.0919 Q699.0358,201.9198 698.3686,201.9198 Q696.7545,201.9198 695.786,202.6515 Q694.8175,203.3833 694.4086,204.6961 Q693.9997,206.009 693.9997,207.7522 Q693.9997,210.5286 694.9897,211.8629 Q695.9797,213.1758 698.1749,213.1758 Q698.9928,213.1758 699.8537,212.9606 Q700.7145,212.7454 701.8552,212.2288 L701.8552,215.285 Q700.8437,215.7154 699.746,215.9306 Q698.6699,216.1458 697.6154,216.1458 Z " fill="#000000"/><text fill="#000000" font-family="sans-serif" font-size="19.2837" lengthAdjust="spacing" textLength="111.5702" x="717.6309" y="214.0936">IOException</text><line style="stroke:#181818;stroke-width:0.6887052341597796;" x1="679.0634" x2="831.9559" y1="228.6501" y2="228.6501"/><line style="stroke:#181818;stroke-width:0.6887052341597796;" x1="679.0634" x2="831.9559" y1="239.6694" y2="239.6694"/></g><!--reverse link Exception to RuntimeException--><g id="link_Exception_RuntimeException"><path codeLine="22" d="M644.663,93.7333 C614.236,124.6562 585.7851,153.5813 555.3994,184.449 " fill="none" id="Exception-backto-RuntimeException" style="stroke:#181818;stroke-width:1.3774104683195592;"/><polygon fill="none" points="662.0523,76.0606,638.7721,87.9369,650.5539,99.5297,662.0523,76.0606" style="stroke:#181818;stroke-width:1.3774104683195592;"/><text fill="#000000" font-family="sans-serif" font-size="17.9063" lengthAdjust="spacing" textLength="66.1157" x="620.5234" y="137.5992">extends</text></g><!--reverse link Exception to IOException--><g id="link_Exception_IOException"><path codeLine="23" d="M713.4375,99.3891 C724.567,130.3119 732.9477,153.5813 744.0634,184.449 " fill="none" id="Exception-backto-IOException" style="stroke:#181818;stroke-width:1.3774104683195592;"/><polygon fill="none" points="705.0413,76.0606,705.6613,102.1878,721.2136,96.5903,705.0413,76.0606" style="stroke:#181818;stroke-width:1.3774104683195592;"/><text fill="#000000" font-family="sans-serif" font-size="17.9063" lengthAdjust="spacing" textLength="66.1157" x="729.3388" y="137.5992">extends</text></g><!--reverse link RuntimeException to ArrayIndexOutOfBoundsException--><g id="link_RuntimeException_ArrayIndexOutOfBoundsException"><path codeLine="24" d="M524.1047,275.7851 C524.1047,306.708 524.1047,328.5124 524.1047,359.3802 " fill="none" id="RuntimeException-backto-ArrayIndexOutOfBoundsException" style="stroke:#181818;stroke-width:1.3774104683195592;"/><polygon fill="none" points="524.1047,250.9917,515.8402,275.7851,532.3691,275.7851,524.1047,250.9917" style="stroke:#181818;stroke-width:1.3774104683195592;"/><text fill="#000000" font-family="sans-serif" font-size="17.9063" lengthAdjust="spacing" textLength="66.1157" x="525.4821" y="312.5303">extends</text></g><!--reverse link RuntimeException to NullPointerException--><g id="link_RuntimeException_NullPointerException"><path codeLine="25" d="M611.4712,262.1662 C673.7301,292.9237 744.8347,328.0716 807.1763,358.8705 " fill="none" id="RuntimeException-backto-NullPointerException" style="stroke:#181818;stroke-width:1.3774104683195592;"/><polygon fill="none" points="589.2424,251.1846,607.8106,269.5757,615.1317,254.7566,589.2424,251.1846" style="stroke:#181818;stroke-width:1.3774104683195592;"/><text fill="#000000" font-family="sans-serif" font-size="17.9063" lengthAdjust="spacing" textLength="66.1157" x="719.697" y="312.5303">extends</text></g><!--reverse link RuntimeException to IllegalArgumentException--><g id="link_RuntimeException_IllegalArgumentException"><path codeLine="26" d="M432.0878,261.6014 C365.6553,292.3589 288.5399,328.0716 222.011,358.8705 " fill="none" id="RuntimeException-backto-IllegalArgumentException" style="stroke:#181818;stroke-width:1.3774104683195592;"/><polygon fill="none" points="454.5868,251.1846,428.6156,254.1017,435.5601,269.101,454.5868,251.1846" style="stroke:#181818;stroke-width:1.3774104683195592;"/><text fill="#000000" font-family="sans-serif" font-size="17.9063" lengthAdjust="spacing" textLength="66.1157" x="362.9477" y="312.5303">extends</text></g><!--SRC=[AqvEp4bLC3GmC50epqmfoU3YIiv9B2vMSAr8JYqeoSpFKwZcgeK91fNcbMJcfcALyyp9IKrFp74iIY_DJSqhGLC3LUHOL9HOwPcNabhXNrhYd-QKNvgNKepLEB_Id9o0_CoyajGYxDRvemaZk3OrkhgOJhLIIAqeIGLQXwuIsII48WpzOBK4t4z8ErPF4TA4Cs0H6W40]--></g></svg>