<?xml version="1.0" encoding="us-ascii" standalone="no"?><svg xmlns="http://www.w3.org/2000/svg" xmlns:xlink="http://www.w3.org/1999/xlink" contentStyleType="text/css" height="372.2595px" preserveAspectRatio="none" style="width:400px;height:372px;background:#FFFFFF;" version="1.1" viewBox="0 0 400 372" width="400.8949px" zoomAndPan="magnify"><defs/><g><!--class Unit--><g id="elem_Unit"><rect codeLine="3" fill="#F1F1F1" height="120.0321" id="Unit" rx="4.4743" ry="4.4743" style="stroke:#181818;stroke-width:0.8948545861297538;" width="137.8076" x="133.3333" y="12.528"/><ellipse cx="175.481" cy="41.1633" fill="#A9DCDF" rx="19.6868" ry="19.6868" style="stroke:#181818;stroke-width:1.7897091722595075;"/><path d="M166.84,51.4541 L172.8244,29.6421 L178.4452,29.6421 L184.4855,51.4541 L180.0671,51.4541 L178.7528,46.057 L172.4609,46.057 L171.1186,51.4541 L166.84,51.4541 Z M174.726,37.0526 L173.3837,42.4217 L177.8859,42.4217 L176.5996,37.0526 Q176.3479,36.0179 176.1242,35.0391 Q175.9004,34.0324 175.6488,32.9978 Q175.453,34.0324 175.2013,35.0391 Q174.9497,36.0179 174.726,37.0526 Z " fill="#000000"/><text fill="#000000" font-family="sans-serif" font-size="25.0559" font-style="italic" lengthAdjust="spacing" textLength="46.5324" x="203.9374" y="50.885">Unit</text><line style="stroke:#181818;stroke-width:0.8948545861297538;" x1="135.123" x2="269.3512" y1="69.7987" y2="69.7987"/><text fill="#000000" font-family="sans-serif" font-size="25.0559" lengthAdjust="spacing" textLength="116.3311" x="144.0716" y="103.7422">int health</text><line style="stroke:#181818;stroke-width:0.8948545861297538;" x1="135.123" x2="269.3512" y1="118.2424" y2="118.2424"/></g><!--class Butterfly--><g id="elem_Butterfly"><rect codeLine="7" fill="#F1F1F1" height="85.906" id="Butterfly" rx="4.4743" ry="4.4743" style="stroke:#181818;stroke-width:0.8948545861297538;" width="161.0738" x="12.528" y="273.9508"/><ellipse cx="39.3736" cy="302.5861" fill="#ADD1B2" rx="19.6868" ry="19.6868" style="stroke:#181818;stroke-width:1.7897091722595075;"/><path d="M38.4228,314.9743 Q35.2908,314.9743 33.2494,313.66 Q31.236,312.3177 30.2293,309.9128 Q29.2506,307.4799 29.2506,304.264 Q29.2506,300.6286 30.4251,298.028 Q31.5996,295.4273 33.8926,294.0291 Q36.1857,292.6309 39.5414,292.6309 Q41.1353,292.6309 42.3378,292.9664 Q43.5403,293.274 44.7707,293.8893 L43.3166,297.4966 Q42.198,296.9374 41.2192,296.7136 Q40.2685,296.4899 39.4016,296.4899 Q37.3043,296.4899 36.0459,297.4407 Q34.7875,298.3915 34.2562,300.0973 Q33.7248,301.8031 33.7248,304.0682 Q33.7248,307.6756 35.0112,309.4094 Q36.2975,311.1152 39.1499,311.1152 Q40.2125,311.1152 41.3311,310.8356 Q42.4497,310.5559 43.9318,309.8848 L43.9318,313.8557 Q42.6174,314.415 41.1913,314.6946 Q39.7931,314.9743 38.4228,314.9743 Z " fill="#000000"/><text fill="#000000" font-family="sans-serif" font-size="25.0559" lengthAdjust="spacing" textLength="103.8031" x="64.4295" y="312.3078">Butterfly</text><line style="stroke:#181818;stroke-width:0.8948545861297538;" x1="14.3177" x2="171.8121" y1="331.2215" y2="331.2215"/><line style="stroke:#181818;stroke-width:0.8948545861297538;" x1="14.3177" x2="171.8121" y1="345.5391" y2="345.5391"/></g><!--class Unicorn--><g id="elem_Unicorn"><rect codeLine="10" fill="#F1F1F1" height="85.906" id="Unicorn" rx="4.4743" ry="4.4743" style="stroke:#181818;stroke-width:0.8948545861297538;" width="152.1253" x="237.1365" y="273.9508"/><ellipse cx="263.9821" cy="302.5861" fill="#ADD1B2" rx="19.6868" ry="19.6868" style="stroke:#181818;stroke-width:1.7897091722595075;"/><path d="M263.0313,314.9743 Q259.8993,314.9743 257.8579,313.66 Q255.8445,312.3177 254.8378,309.9128 Q253.8591,307.4799 253.8591,304.264 Q253.8591,300.6286 255.0336,298.028 Q256.2081,295.4273 258.5011,294.0291 Q260.7942,292.6309 264.1499,292.6309 Q265.7438,292.6309 266.9463,292.9664 Q268.1488,293.274 269.3792,293.8893 L267.9251,297.4966 Q266.8065,296.9374 265.8277,296.7136 Q264.877,296.4899 264.0101,296.4899 Q261.9128,296.4899 260.6544,297.4407 Q259.396,298.3915 258.8647,300.0973 Q258.3333,301.8031 258.3333,304.0682 Q258.3333,307.6756 259.6197,309.4094 Q260.906,311.1152 263.7584,311.1152 Q264.821,311.1152 265.9396,310.8356 Q267.0582,310.5559 268.5403,309.8848 L268.5403,313.8557 Q267.226,314.415 265.7998,314.6946 Q264.4016,314.9743 263.0313,314.9743 Z " fill="#000000"/><text fill="#000000" font-family="sans-serif" font-size="25.0559" lengthAdjust="spacing" textLength="94.8546" x="289.038" y="312.3078">Unicorn</text><line style="stroke:#181818;stroke-width:0.8948545861297538;" x1="238.9262" x2="387.472" y1="331.2215" y2="331.2215"/><line style="stroke:#181818;stroke-width:0.8948545861297538;" x1="238.9262" x2="387.472" y1="345.5391" y2="345.5391"/></g><!--reverse link Unit to Butterfly--><g id="link_Unit_Butterfly"><path codeLine="13" d="M157.8125,162.1001 C149.383,179.0844 154.6667,168.8949 146.7562,186.255 C133.6018,215.1409 119.8389,248.2148 109.5481,273.6107 " fill="none" id="Unit-backto-Butterfly" style="stroke:#181818;stroke-width:1.7897091722595075;"/><polygon fill="none" points="172.1342,133.2438,148.1938,157.3262,167.4313,166.8739,172.1342,133.2438" style="stroke:#181818;stroke-width:1.7897091722595075;"/><text fill="#000000" font-family="sans-serif" font-size="23.2662" lengthAdjust="spacing" textLength="85.906" x="148.5459" y="212.9164">extends</text></g><!--reverse link Unit to Unicorn--><g id="link_Unit_Unicorn"><path codeLine="14" d="M242.8655,162.5034 C262.8744,205.9397 276.1521,234.7025 293.9776,273.4318 " fill="none" id="Unit-backto-Unicorn" style="stroke:#181818;stroke-width:1.7897091722595075;"/><polygon fill="none" points="229.387,133.2438,233.1123,166.9962,252.6187,158.0106,229.387,133.2438" style="stroke:#181818;stroke-width:1.7897091722595075;"/><text fill="#000000" font-family="sans-serif" font-size="23.2662" lengthAdjust="spacing" textLength="85.906" x="268.4564" y="212.9164">extends</text></g><!--SRC=[JOlB2O0m343lcI8B23ru4a_ku02nZLWe5Pg8YhgxHV5pVH-n51XBOt3sJWS0waGJMKKRI0JRw1KtG1yL1wQGamFWTisaogaFQmvUc0SxfdYZwwxtelYr5VAY79tyx3DzxWG0]--></g></svg>