<?xml version="1.0" encoding="us-ascii" standalone="no"?><svg xmlns="http://www.w3.org/2000/svg" xmlns:xlink="http://www.w3.org/1999/xlink" contentStyleType="text/css" height="376.7635px" preserveAspectRatio="none" style="width:600px;height:376px;background:#FFFFFF;" version="1.1" viewBox="0 0 600 376" width="600.8299px" zoomAndPan="magnify"><defs/><g><!--class Unit--><g id="elem_Unit"><rect codeLine="3" fill="#F1F1F1" height="142.964" id="Unit" rx="4.1494" ry="4.1494" style="stroke:#181818;stroke-width:0.8298755186721992;" width="149.3776" x="230.7054" y="11.6183"/><ellipse cx="279.5021" cy="38.1743" fill="#A9DCDF" rx="18.2573" ry="18.2573" style="stroke:#181818;stroke-width:1.6597510373443984;"/><path d="M271.4886,47.7178 L277.0384,27.4896 L282.251,27.4896 L287.8527,47.7178 L283.7552,47.7178 L282.5363,42.7127 L276.7012,42.7127 L275.4564,47.7178 L271.4886,47.7178 Z M278.8019,34.362 L277.5571,39.3413 L281.7324,39.3413 L280.5394,34.362 Q280.306,33.4025 280.0985,32.4948 Q279.8911,31.5612 279.6577,30.6017 Q279.4761,31.5612 279.2427,32.4948 Q279.0093,33.4025 278.8019,34.362 Z " fill="#000000"/><text fill="#000000" font-family="sans-serif" font-size="23.2365" font-style="italic" lengthAdjust="spacing" textLength="43.1535" x="308.0498" y="47.19">Unit</text><line style="stroke:#181818;stroke-width:0.8298755186721992;" x1="232.3651" x2="378.4232" y1="64.7303" y2="64.7303"/><text fill="#000000" font-family="sans-serif" font-size="23.2365" lengthAdjust="spacing" textLength="129.4606" x="240.6639" y="96.209">String color</text><text fill="#000000" font-family="sans-serif" font-size="23.2365" lengthAdjust="spacing" textLength="107.8838" x="240.6639" y="127.857">int health</text><line style="stroke:#181818;stroke-width:0.8298755186721992;" x1="232.3651" x2="378.4232" y1="141.3043" y2="141.3043"/></g><!--class Butterfly--><g id="elem_Butterfly"><rect codeLine="8" fill="#F1F1F1" height="79.668" id="Butterfly" rx="4.1494" ry="4.1494" style="stroke:#181818;stroke-width:0.8298755186721992;" width="149.3776" x="11.6183" y="285.7095"/><ellipse cx="36.5145" cy="312.2656" fill="#ADD1B2" rx="18.2573" ry="18.2573" style="stroke:#181818;stroke-width:1.6597510373443984;"/><path d="M35.6328,323.7541 Q32.7282,323.7541 30.8351,322.5353 Q28.9678,321.2905 28.0342,319.0602 Q27.1266,316.8039 27.1266,313.8216 Q27.1266,310.4502 28.2158,308.0384 Q29.305,305.6266 31.4315,304.3299 Q33.5581,303.0332 36.6701,303.0332 Q38.1483,303.0332 39.2635,303.3444 Q40.3786,303.6297 41.5197,304.2002 L40.1712,307.5456 Q39.1338,307.027 38.2261,306.8195 Q37.3444,306.612 36.5405,306.612 Q34.5954,306.612 33.4284,307.4938 Q32.2614,308.3755 31.7687,309.9575 Q31.2759,311.5394 31.2759,313.64 Q31.2759,316.9855 32.4689,318.5934 Q33.6618,320.1753 36.3071,320.1753 Q37.2925,320.1753 38.3299,319.916 Q39.3672,319.6566 40.7417,319.0342 L40.7417,322.7168 Q39.5228,323.2355 38.2002,323.4948 Q36.9035,323.7541 35.6328,323.7541 Z " fill="#000000"/><text fill="#000000" font-family="sans-serif" font-size="23.2365" lengthAdjust="spacing" textLength="96.2656" x="59.751" y="321.2813">Butterfly</text><line style="stroke:#181818;stroke-width:0.8298755186721992;" x1="13.278" x2="159.3361" y1="338.8216" y2="338.8216"/><line style="stroke:#181818;stroke-width:0.8298755186721992;" x1="13.278" x2="159.3361" y1="352.0996" y2="352.0996"/></g><!--class Caterpillar--><g id="elem_Caterpillar"><rect codeLine="11" fill="#F1F1F1" height="79.668" id="Caterpillar" rx="4.1494" ry="4.1494" style="stroke:#181818;stroke-width:0.8298755186721992;" width="170.9544" x="219.917" y="285.7095"/><ellipse cx="244.8133" cy="312.2656" fill="#ADD1B2" rx="18.2573" ry="18.2573" style="stroke:#181818;stroke-width:1.6597510373443984;"/><path d="M243.9315,323.7541 Q241.027,323.7541 239.1338,322.5353 Q237.2666,321.2905 236.333,319.0602 Q235.4253,316.8039 235.4253,313.8216 Q235.4253,310.4502 236.5145,308.0384 Q237.6037,305.6266 239.7303,304.3299 Q241.8568,303.0332 244.9689,303.0332 Q246.4471,303.0332 247.5622,303.3444 Q248.6774,303.6297 249.8185,304.2002 L248.4699,307.5456 Q247.4326,307.027 246.5249,306.8195 Q245.6432,306.612 244.8392,306.612 Q242.8942,306.612 241.7272,307.4938 Q240.5602,308.3755 240.0674,309.9575 Q239.5747,311.5394 239.5747,313.64 Q239.5747,316.9855 240.7676,318.5934 Q241.9606,320.1753 244.6058,320.1753 Q245.5913,320.1753 246.6286,319.916 Q247.666,319.6566 249.0405,319.0342 L249.0405,322.7168 Q247.8216,323.2355 246.499,323.4948 Q245.2023,323.7541 243.9315,323.7541 Z " fill="#000000"/><text fill="#000000" font-family="sans-serif" font-size="23.2365" lengthAdjust="spacing" textLength="117.8423" x="268.0498" y="321.2813">Caterpillar</text><line style="stroke:#181818;stroke-width:0.8298755186721992;" x1="221.5768" x2="389.2116" y1="338.8216" y2="338.8216"/><line style="stroke:#181818;stroke-width:0.8298755186721992;" x1="221.5768" x2="389.2116" y1="352.0996" y2="352.0996"/></g><!--class Unicorn--><g id="elem_Unicorn"><rect codeLine="14" fill="#F1F1F1" height="79.668" id="Unicorn" rx="4.1494" ry="4.1494" style="stroke:#181818;stroke-width:0.8298755186721992;" width="141.0788" x="448.9627" y="285.7095"/><ellipse cx="473.8589" cy="312.2656" fill="#ADD1B2" rx="18.2573" ry="18.2573" style="stroke:#181818;stroke-width:1.6597510373443984;"/><path d="M472.9772,323.7541 Q470.0726,323.7541 468.1795,322.5353 Q466.3122,321.2905 465.3786,319.0602 Q464.471,316.8039 464.471,313.8216 Q464.471,310.4502 465.5602,308.0384 Q466.6494,305.6266 468.7759,304.3299 Q470.9025,303.0332 474.0145,303.0332 Q475.4927,303.0332 476.6079,303.3444 Q477.723,303.6297 478.8641,304.2002 L477.5156,307.5456 Q476.4782,307.027 475.5705,306.8195 Q474.6888,306.612 473.8849,306.612 Q471.9398,306.612 470.7728,307.4938 Q469.6058,308.3755 469.1131,309.9575 Q468.6203,311.5394 468.6203,313.64 Q468.6203,316.9855 469.8133,318.5934 Q471.0062,320.1753 473.6515,320.1753 Q474.6369,320.1753 475.6743,319.916 Q476.7116,319.6566 478.0861,319.0342 L478.0861,322.7168 Q476.8672,323.2355 475.5446,323.4948 Q474.2479,323.7541 472.9772,323.7541 Z " fill="#000000"/><text fill="#000000" font-family="sans-serif" font-size="23.2365" lengthAdjust="spacing" textLength="87.9668" x="497.0954" y="321.2813">Unicorn</text><line style="stroke:#181818;stroke-width:0.8298755186721992;" x1="450.6224" x2="588.3817" y1="338.8216" y2="338.8216"/><line style="stroke:#181818;stroke-width:0.8298755186721992;" x1="450.6224" x2="588.3817" y1="352.0996" y2="352.0996"/></g><!--reverse link Unit to Butterfly--><g id="link_Unit_Butterfly"><path codeLine="17" d="M220.6635,177.2471 C181.7922,219.6703 153.9419,250.0581 121.8423,285.0954 " fill="none" id="Unit-backto-Butterfly" style="stroke:#181818;stroke-width:1.6597510373443984;"/><polygon fill="none" points="240.8465,155.2199,213.3211,170.5194,228.0059,183.9747,240.8465,155.2199" style="stroke:#181818;stroke-width:1.6597510373443984;"/><text fill="#000000" font-family="sans-serif" font-size="21.5768" lengthAdjust="spacing" textLength="79.668" x="192.5311" y="229.1071">extends</text></g><!--reverse link Unit to Caterpillar--><g id="link_Unit_Caterpillar"><path codeLine="18" d="M305.3942,185.0954 C305.3942,227.5187 305.3942,250.0581 305.3942,285.0954 " fill="none" id="Unit-backto-Caterpillar" style="stroke:#181818;stroke-width:1.6597510373443984;"/><polygon fill="none" points="305.3942,155.2199,295.4357,185.0954,315.3527,185.0954,305.3942,155.2199" style="stroke:#181818;stroke-width:1.6597510373443984;"/><text fill="#000000" font-family="sans-serif" font-size="21.5768" lengthAdjust="spacing" textLength="79.668" x="307.0539" y="229.1071">extends</text></g><!--reverse link Unit to Unicorn--><g id="link_Unit_Unicorn"><path codeLine="19" d="M388.4121,177.4755 C426.4038,219.8987 453.4108,250.0581 484.7801,285.0954 " fill="none" id="Unit-backto-Unicorn" style="stroke:#181818;stroke-width:1.6597510373443984;"/><polygon fill="none" points="368.4813,155.2199,380.9936,184.1191,395.8306,170.8319,368.4813,155.2199" style="stroke:#181818;stroke-width:1.6597510373443984;"/><text fill="#000000" font-family="sans-serif" font-size="21.5768" lengthAdjust="spacing" textLength="79.668" x="438.1743" y="229.1071">extends</text></g><!--SRC=[ROr12i9034NtEKKkKEZAXRYgHn0F4AUf3OICP28gwjqTBEeitBxtyr8IAUEgx_4YOym0T2ZXb0AJKYcuDmcy0-x2nOwOicO750kScRGUF06MvN2EO9_qLkTVkANAJg9Atk9QJTbjGUyNcqVNDOaryZNOnjBOjlNFVw8_zm80]--></g></svg>