<?xml version="1.0" encoding="us-ascii" standalone="no"?><svg xmlns="http://www.w3.org/2000/svg" xmlns:xlink="http://www.w3.org/1999/xlink" contentStyleType="text/css" height="713.5417px" preserveAspectRatio="none" style="width:501px;height:713px;background:#FFFFFF;" version="1.1" viewBox="0 0 501 713" width="501.7361px" zoomAndPan="magnify"><defs/><g><!--class Unit--><g id="elem_Unit"><rect codeLine="3" fill="#F1F1F1" height="149.5414" id="Unit" rx="4.3403" ry="4.3403" style="stroke:#181818;stroke-width:0.8680555555555557;" width="159.7222" x="235.2431" y="12.1528"/><ellipse cx="287.8472" cy="39.9306" fill="#A9DCDF" rx="19.0972" ry="19.0972" style="stroke:#181818;stroke-width:1.7361111111111114;"/><path d="M279.4651,49.9132 L285.2702,28.7543 L290.7227,28.7543 L296.582,49.9132 L292.296,49.9132 L291.0211,44.6777 L284.9175,44.6777 L283.6155,49.9132 L279.4651,49.9132 Z M287.1148,35.9429 L285.8127,41.1513 L290.1801,41.1513 L288.9323,35.9429 Q288.6882,34.9392 288.4711,33.9898 Q288.2541,33.0132 288.01,32.0095 Q287.8201,33.0132 287.576,33.9898 Q287.3318,34.9392 287.1148,35.9429 Z " fill="#000000"/><text fill="#000000" font-family="sans-serif" font-size="24.3056" font-style="italic" lengthAdjust="spacing" textLength="45.1389" x="318.0556" y="49.3611">Unit</text><line style="stroke:#181818;stroke-width:0.8680555555555557;" x1="236.9792" x2="393.2292" y1="67.7083" y2="67.7083"/><text fill="#000000" font-family="sans-serif" font-size="24.3056" lengthAdjust="spacing" textLength="112.8472" x="245.6597" y="100.6353">int health</text><line style="stroke:#181818;stroke-width:0.8680555555555557;" x1="236.9792" x2="393.2292" y1="114.7012" y2="114.7012"/><text fill="#000000" font-family="sans-serif" font-size="24.3056" lengthAdjust="spacing" textLength="138.8889" x="245.6597" y="147.6282">void regen()</text></g><!--class MobileUnit--><g id="elem_MobileUnit"><rect codeLine="8" fill="#F1F1F1" height="182.6454" id="MobileUnit" rx="4.3403" ry="4.3403" style="stroke:#181818;stroke-width:0.8680555555555557;" width="262.1528" x="60.7639" y="298.8542"/><ellipse cx="125.8681" cy="326.6319" fill="#A9DCDF" rx="19.0972" ry="19.0972" style="stroke:#181818;stroke-width:1.7361111111111114;"/><path d="M117.4859,336.6146 L123.291,315.4557 L128.7435,315.4557 L134.6029,336.6146 L130.3168,336.6146 L129.0419,331.3791 L122.9384,331.3791 L121.6363,336.6146 L117.4859,336.6146 Z M125.1356,322.6443 L123.8336,327.8526 L128.201,327.8526 L126.9531,322.6443 Q126.709,321.6406 126.492,320.6912 Q126.275,319.7146 126.0308,318.7109 Q125.8409,319.7146 125.5968,320.6912 Q125.3526,321.6406 125.1356,322.6443 Z " fill="#000000"/><text fill="#000000" font-family="sans-serif" font-size="24.3056" font-style="italic" lengthAdjust="spacing" textLength="119.7917" x="158.8542" y="336.0625">MobileUnit</text><line style="stroke:#181818;stroke-width:0.8680555555555557;" x1="62.5" x2="321.1806" y1="354.4097" y2="354.4097"/><text fill="#000000" font-family="sans-serif" font-size="24.3056" lengthAdjust="spacing" textLength="135.4167" x="71.1806" y="387.3367">String color</text><text fill="#000000" font-family="sans-serif" font-size="24.3056" lengthAdjust="spacing" textLength="241.3194" x="71.1806" y="420.4407">int attackCountdown</text><line style="stroke:#181818;stroke-width:0.8680555555555557;" x1="62.5" x2="321.1806" y1="434.5067" y2="434.5067"/><text fill="#000000" font-family="sans-serif" font-size="24.3056" lengthAdjust="spacing" textLength="138.8889" x="71.1806" y="467.4336">void regen()</text></g><!--class Wall--><g id="elem_Wall"><rect codeLine="14" fill="#F1F1F1" height="83.3333" id="Wall" rx="4.3403" ry="4.3403" style="stroke:#181818;stroke-width:0.8680555555555557;" width="105.9028" x="383.6806" y="348.5069"/><ellipse cx="409.7222" cy="376.2847" fill="#ADD1B2" rx="19.0972" ry="19.0972" style="stroke:#181818;stroke-width:1.7361111111111114;"/><path d="M408.7999,388.3019 Q405.7617,388.3019 403.7815,387.0269 Q401.8283,385.7248 400.8518,383.3919 Q399.9023,381.0319 399.9023,377.9123 Q399.9023,374.3859 401.0417,371.8631 Q402.181,369.3403 404.4054,367.9839 Q406.6298,366.6276 409.885,366.6276 Q411.4312,366.6276 412.5977,366.9531 Q413.7641,367.2515 414.9577,367.8483 L413.5471,371.3477 Q412.462,370.8051 411.5126,370.5881 Q410.5903,370.3711 409.7493,370.3711 Q407.7148,370.3711 406.4941,371.2934 Q405.2734,372.2157 404.758,373.8704 Q404.2426,375.5252 404.2426,377.7224 Q404.2426,381.2218 405.4905,382.9036 Q406.7383,384.5584 409.5052,384.5584 Q410.536,384.5584 411.6211,384.2871 Q412.7062,384.0158 414.1439,383.3648 L414.1439,387.2168 Q412.8689,387.7593 411.4855,388.0306 Q410.1291,388.3019 408.7999,388.3019 Z " fill="#000000"/><text fill="#000000" font-family="sans-serif" font-size="24.3056" lengthAdjust="spacing" textLength="50.3472" x="434.0278" y="385.7152">Wall</text><line style="stroke:#181818;stroke-width:0.8680555555555557;" x1="385.4167" x2="487.8472" y1="404.0625" y2="404.0625"/><line style="stroke:#181818;stroke-width:0.8680555555555557;" x1="385.4167" x2="487.8472" y1="417.9514" y2="417.9514"/></g><!--class Unicorn--><g id="elem_Unicorn"><rect codeLine="17" fill="#F1F1F1" height="83.3333" id="Unicorn" rx="4.3403" ry="4.3403" style="stroke:#181818;stroke-width:0.8680555555555557;" width="147.5694" x="12.1528" y="618.6458"/><ellipse cx="38.1944" cy="646.4236" fill="#ADD1B2" rx="19.0972" ry="19.0972" style="stroke:#181818;stroke-width:1.7361111111111114;"/><path d="M37.2721,658.4408 Q34.2339,658.4408 32.2537,657.1658 Q30.3006,655.8637 29.324,653.5308 Q28.3746,651.1708 28.3746,648.0512 Q28.3746,644.5247 29.5139,642.002 Q30.6532,639.4792 32.8776,638.1228 Q35.102,636.7665 38.3572,636.7665 Q39.9034,636.7665 41.0699,637.092 Q42.2363,637.3904 43.4299,637.9872 L42.0193,641.4865 Q40.9342,640.944 39.9848,640.727 Q39.0625,640.51 38.2216,640.51 Q36.1871,640.51 34.9664,641.4323 Q33.7457,642.3546 33.2303,644.0093 Q32.7148,645.6641 32.7148,647.8613 Q32.7148,651.3607 33.9627,653.0425 Q35.2105,654.6973 37.9774,654.6973 Q39.0082,654.6973 40.0933,654.426 Q41.1784,654.1547 42.6161,653.5037 L42.6161,657.3557 Q41.3411,657.8982 39.9577,658.1695 Q38.6013,658.4408 37.2721,658.4408 Z " fill="#000000"/><text fill="#000000" font-family="sans-serif" font-size="24.3056" lengthAdjust="spacing" textLength="92.0139" x="62.5" y="655.8541">Unicorn</text><line style="stroke:#181818;stroke-width:0.8680555555555557;" x1="13.8889" x2="157.9861" y1="674.2014" y2="674.2014"/><line style="stroke:#181818;stroke-width:0.8680555555555557;" x1="13.8889" x2="157.9861" y1="688.0903" y2="688.0903"/></g><!--class Butterfly--><g id="elem_Butterfly"><rect codeLine="20" fill="#F1F1F1" height="83.3333" id="Butterfly" rx="4.3403" ry="4.3403" style="stroke:#181818;stroke-width:0.8680555555555557;" width="156.25" x="221.3542" y="618.6458"/><ellipse cx="247.3958" cy="646.4236" fill="#ADD1B2" rx="19.0972" ry="19.0972" style="stroke:#181818;stroke-width:1.7361111111111114;"/><path d="M246.4735,658.4408 Q243.4353,658.4408 241.4551,657.1658 Q239.502,655.8637 238.5254,653.5308 Q237.576,651.1708 237.576,648.0512 Q237.576,644.5247 238.7153,642.002 Q239.8546,639.4792 242.079,638.1228 Q244.3034,636.7665 247.5586,636.7665 Q249.1048,636.7665 250.2713,637.092 Q251.4377,637.3904 252.6313,637.9872 L251.2207,641.4865 Q250.1356,640.944 249.1862,640.727 Q248.2639,640.51 247.423,640.51 Q245.3885,640.51 244.1678,641.4323 Q242.947,642.3546 242.4316,644.0093 Q241.9162,645.6641 241.9162,647.8613 Q241.9162,651.3607 243.1641,653.0425 Q244.4119,654.6973 247.1788,654.6973 Q248.2096,654.6973 249.2947,654.426 Q250.3798,654.1547 251.8175,653.5037 L251.8175,657.3557 Q250.5425,657.8982 249.1591,658.1695 Q247.8027,658.4408 246.4735,658.4408 Z " fill="#000000"/><text fill="#000000" font-family="sans-serif" font-size="24.3056" lengthAdjust="spacing" textLength="100.6944" x="271.7014" y="655.8541">Butterfly</text><line style="stroke:#181818;stroke-width:0.8680555555555557;" x1="223.0903" x2="375.8681" y1="674.2014" y2="674.2014"/><line style="stroke:#181818;stroke-width:0.8680555555555557;" x1="223.0903" x2="375.8681" y1="688.0903" y2="688.0903"/></g><!--reverse link Unit to MobileUnit--><g id="link_Unit_MobileUnit"><path codeLine="23" d="M273.0624,190.898 C256.17,231.9744 246.8576,254.6354 228.941,298.1771 " fill="none" id="Unit-backto-MobileUnit" style="stroke:#181818;stroke-width:1.7361111111111114;"/><polygon fill="none" points="284.9479,161.9965,263.4286,186.9362,282.6962,194.8599,284.9479,161.9965" style="stroke:#181818;stroke-width:1.7361111111111114;"/><text fill="#000000" font-family="sans-serif" font-size="22.5694" lengthAdjust="spacing" textLength="83.3333" x="263.0208" y="239.6476">extends</text></g><!--reverse link Unit to Wall--><g id="link_Unit_Wall"><path codeLine="24" d="M356.5684,190.9566 C380.3184,249.533 400.9896,300.5035 420.2604,348.0556 " fill="none" id="Unit-backto-Wall" style="stroke:#181818;stroke-width:1.7361111111111114;"/><polygon fill="none" points="344.8264,161.9965,346.915,194.8706,366.2217,187.0427,344.8264,161.9965" style="stroke:#181818;stroke-width:1.7361111111111114;"/><text fill="#000000" font-family="sans-serif" font-size="22.5694" lengthAdjust="spacing" textLength="83.3333" x="377.6042" y="239.6476">extends</text></g><!--reverse link MobileUnit to Unicorn--><g id="link_MobileUnit_Unicorn"><path codeLine="25" d="M144.4513,511.2294 C126.0833,557.462 116.1979,582.3958 101.9097,618.3507 " fill="none" id="MobileUnit-backto-Unicorn" style="stroke:#181818;stroke-width:1.7361111111111114;"/><polygon fill="none" points="155.9896,482.1875,134.7707,507.3833,154.132,515.0755,155.9896,482.1875" style="stroke:#181818;stroke-width:1.7361111111111114;"/><text fill="#000000" font-family="sans-serif" font-size="22.5694" lengthAdjust="spacing" textLength="83.3333" x="134.5486" y="559.4393">extends</text></g><!--reverse link MobileUnit to Butterfly--><g id="link_MobileUnit_Butterfly"><path codeLine="26" d="M239.9791,511.1655 C258.6423,557.3981 268.7326,582.3958 283.2465,618.3507 " fill="none" id="MobileUnit-backto-Butterfly" style="stroke:#181818;stroke-width:1.7361111111111114;"/><polygon fill="none" points="228.2813,482.1875,230.3198,515.0648,249.6384,507.2662,228.2813,482.1875" style="stroke:#181818;stroke-width:1.7361111111111114;"/><text fill="#000000" font-family="sans-serif" font-size="22.5694" lengthAdjust="spacing" textLength="83.3333" x="264.7569" y="559.4393">extends</text></g><!--SRC=[TOuz2y9038Rt-nKPTIXqSH4ddPr4dDExs1w67DobLb7_kwMbzg0uvlrutYIBJB0fI-YyqyOOh996j0gMCIKuYrTu6V2Yq11o7u5xy0uYrIIhjVaiAiTGUQQfUDBefGORECGHWwfeRuVGYhhGoP8tOYx8t0D-Tm-q8KekxLjLYbT-Zk8mkNiNHVx25kYX92vbze2UZImzsDFI_yGyF6U-]--></g></svg>