<?xml version="1.0" encoding="us-ascii" standalone="no"?><svg xmlns="http://www.w3.org/2000/svg" xmlns:xlink="http://www.w3.org/1999/xlink" contentStyleType="text/css" height="813.4058px" preserveAspectRatio="none" style="width:751px;height:813px;background:#FFFFFF;" version="1.1" viewBox="0 0 751 813" width="751.8116px" zoomAndPan="magnify"><defs/><g><!--class Unit--><g id="elem_Unit"><rect codeLine="3" fill="#F1F1F1" height="190.5865" id="Unit" rx="4.529" ry="4.529" style="stroke:#181818;stroke-width:0.9057971014492754;" width="420.2899" x="318.8406" y="12.6812"/><ellipse cx="497.7355" cy="41.6667" fill="#A9DCDF" rx="19.9275" ry="19.9275" style="stroke:#181818;stroke-width:1.8115942028985508;"/><path d="M488.9889,52.0833 L495.0464,30.0045 L500.736,30.0045 L506.8501,52.0833 L502.3777,52.0833 L501.0473,46.6202 L494.6784,46.6202 L493.3197,52.0833 L488.9889,52.0833 Z M496.9712,37.5057 L495.6125,42.9404 L500.1698,42.9404 L498.8678,37.5057 Q498.613,36.4583 498.3865,35.4676 Q498.1601,34.4486 497.9053,33.4013 Q497.7072,34.4486 497.4524,35.4676 Q497.1977,36.4583 496.9712,37.5057 Z " fill="#000000"/><text fill="#000000" font-family="sans-serif" font-size="25.3623" font-style="italic" lengthAdjust="spacing" textLength="47.1014" x="534.8732" y="51.5072">Unit</text><line style="stroke:#181818;stroke-width:0.9057971014492754;" x1="320.6522" x2="737.3188" y1="70.6522" y2="70.6522"/><text fill="#000000" font-family="sans-serif" font-size="25.3623" lengthAdjust="spacing" textLength="117.7536" x="329.7101" y="105.0108">int health</text><line style="stroke:#181818;stroke-width:0.9057971014492754;" x1="320.6522" x2="737.3188" y1="119.6883" y2="119.6883"/><text fill="#000000" font-family="sans-serif" font-size="25.3623" lengthAdjust="spacing" textLength="144.9275" x="329.7101" y="154.0468">void regen()</text><text fill="#000000" font-family="sans-serif" font-size="25.3623" lengthAdjust="spacing" textLength="398.5507" x="329.7101" y="188.5902">void defend(MobileUnit attacker)</text></g><!--class MobileUnit--><g id="elem_MobileUnit"><rect codeLine="9" fill="#F1F1F1" height="190.5865" id="MobileUnit" rx="4.529" ry="4.529" style="stroke:#181818;stroke-width:0.9057971014492754;" width="273.5507" x="263.587" y="346.3949"/><ellipse cx="331.5217" cy="375.3804" fill="#A9DCDF" rx="19.9275" ry="19.9275" style="stroke:#181818;stroke-width:1.8115942028985508;"/><path d="M322.7751,385.7971 L328.8327,363.7183 L334.5222,363.7183 L340.6363,385.7971 L336.1639,385.7971 L334.8336,380.334 L328.4647,380.334 L327.106,385.7971 L322.7751,385.7971 Z M330.7575,371.2194 L329.3988,376.6542 L333.9561,376.6542 L332.654,371.2194 Q332.3992,370.1721 332.1728,369.1814 Q331.9463,368.1624 331.6916,367.115 Q331.4934,368.1624 331.2387,369.1814 Q330.9839,370.1721 330.7575,371.2194 Z " fill="#000000"/><text fill="#000000" font-family="sans-serif" font-size="25.3623" font-style="italic" lengthAdjust="spacing" textLength="125" x="365.942" y="385.221">MobileUnit</text><line style="stroke:#181818;stroke-width:0.9057971014492754;" x1="265.3986" x2="535.3261" y1="404.3659" y2="404.3659"/><text fill="#000000" font-family="sans-serif" font-size="25.3623" lengthAdjust="spacing" textLength="141.3043" x="274.4565" y="438.7245">String color</text><text fill="#000000" font-family="sans-serif" font-size="25.3623" lengthAdjust="spacing" textLength="251.8116" x="274.4565" y="473.2678">int attackCountdown</text><line style="stroke:#181818;stroke-width:0.9057971014492754;" x1="265.3986" x2="535.3261" y1="487.9454" y2="487.9454"/><text fill="#000000" font-family="sans-serif" font-size="25.3623" lengthAdjust="spacing" textLength="144.9275" x="274.4565" y="522.3039">void regen()</text></g><!--class Wall--><g id="elem_Wall"><rect codeLine="15" fill="#F1F1F1" height="86.9565" id="Wall" rx="4.529" ry="4.529" style="stroke:#181818;stroke-width:0.9057971014492754;" width="110.5072" x="600.5435" y="398.2065"/><ellipse cx="627.7174" cy="427.192" fill="#ADD1B2" rx="19.9275" ry="19.9275" style="stroke:#181818;stroke-width:1.8115942028985508;"/><path d="M626.755,439.7317 Q623.5847,439.7317 621.5183,438.4013 Q619.4803,437.0426 618.4613,434.6082 Q617.4706,432.1456 617.4706,428.8904 Q617.4706,425.2106 618.6594,422.5781 Q619.8483,419.9457 622.1694,418.5303 Q624.4905,417.115 627.8872,417.115 Q629.5007,417.115 630.7178,417.4547 Q631.935,417.7661 633.1805,418.3888 L631.7086,422.0403 Q630.5763,421.4742 629.5856,421.2477 Q628.6232,421.0213 627.7457,421.0213 Q625.6227,421.0213 624.349,421.9837 Q623.0752,422.9461 622.5374,424.6728 Q621.9995,426.3995 621.9995,428.6923 Q621.9995,432.3438 623.3016,434.0987 Q624.6037,435.8254 627.4909,435.8254 Q628.5666,435.8254 629.6988,435.5423 Q630.8311,435.2593 632.3313,434.5799 L632.3313,438.5994 Q631.0009,439.1655 629.5573,439.4486 Q628.142,439.7317 626.755,439.7317 Z " fill="#000000"/><text fill="#000000" font-family="sans-serif" font-size="25.3623" lengthAdjust="spacing" textLength="52.5362" x="653.0797" y="437.0326">Wall</text><line style="stroke:#181818;stroke-width:0.9057971014492754;" x1="602.3551" x2="709.2391" y1="456.1775" y2="456.1775"/><line style="stroke:#181818;stroke-width:0.9057971014492754;" x1="602.3551" x2="709.2391" y1="470.6703" y2="470.6703"/></g><!--class Unicorn--><g id="elem_Unicorn"><rect codeLine="18" fill="#F1F1F1" height="121.4998" id="Unicorn" rx="4.529" ry="4.529" style="stroke:#181818;stroke-width:0.9057971014492754;" width="420.2899" x="12.6812" y="680.0906"/><ellipse cx="167.1196" cy="709.0761" fill="#ADD1B2" rx="19.9275" ry="19.9275" style="stroke:#181818;stroke-width:1.8115942028985508;"/><path d="M166.1572,721.6157 Q162.9869,721.6157 160.9205,720.2853 Q158.8825,718.9266 157.8635,716.4923 Q156.8727,714.0297 156.8727,710.7745 Q156.8727,707.0947 158.0616,704.4622 Q159.2505,701.8297 161.5716,700.4144 Q163.8927,698.9991 167.2894,698.9991 Q168.9029,698.9991 170.12,699.3388 Q171.3372,699.6501 172.5827,700.2729 L171.1107,703.9244 Q169.9785,703.3582 168.9878,703.1318 Q168.0254,702.9053 167.1479,702.9053 Q165.0249,702.9053 163.7511,703.8678 Q162.4774,704.8302 161.9395,706.5568 Q161.4017,708.2835 161.4017,710.5763 Q161.4017,714.2278 162.7038,715.9828 Q164.0059,717.7095 166.8931,717.7095 Q167.9688,717.7095 169.101,717.4264 Q170.2332,717.1433 171.7335,716.464 L171.7335,720.4835 Q170.4031,721.0496 168.9595,721.3327 Q167.5442,721.6157 166.1572,721.6157 Z " fill="#000000"/><text fill="#000000" font-family="sans-serif" font-size="25.3623" lengthAdjust="spacing" textLength="96.0145" x="204.2572" y="718.9166">Unicorn</text><line style="stroke:#181818;stroke-width:0.9057971014492754;" x1="14.4928" x2="431.1594" y1="738.0616" y2="738.0616"/><line style="stroke:#181818;stroke-width:0.9057971014492754;" x1="14.4928" x2="431.1594" y1="752.5543" y2="752.5543"/><text fill="#000000" font-family="sans-serif" font-size="25.3623" lengthAdjust="spacing" textLength="398.5507" x="23.5507" y="786.9129">void defend(MobileUnit attacker)</text></g><!--class Butterfly--><g id="elem_Butterfly"><rect codeLine="22" fill="#F1F1F1" height="86.9565" id="Butterfly" rx="4.529" ry="4.529" style="stroke:#181818;stroke-width:0.9057971014492754;" width="163.0435" x="496.3768" y="697.3732"/><ellipse cx="523.5507" cy="726.3587" fill="#ADD1B2" rx="19.9275" ry="19.9275" style="stroke:#181818;stroke-width:1.8115942028985508;"/><path d="M522.5883,738.8983 Q519.418,738.8983 517.3517,737.5679 Q515.3136,736.2092 514.2946,733.7749 Q513.3039,731.3123 513.3039,728.0571 Q513.3039,724.3773 514.4928,721.7448 Q515.6816,719.1123 518.0027,717.697 Q520.3238,716.2817 523.7206,716.2817 Q525.334,716.2817 526.5512,716.6214 Q527.7683,716.9327 529.0138,717.5555 L527.5419,721.207 Q526.4096,720.6409 525.4189,720.4144 Q524.4565,720.188 523.579,720.188 Q521.4561,720.188 520.1823,721.1504 Q518.9085,722.1128 518.3707,723.8394 Q517.8329,725.5661 517.8329,727.8589 Q517.8329,731.5104 519.135,733.2654 Q520.437,734.9921 523.3243,734.9921 Q524.3999,734.9921 525.5322,734.709 Q526.6644,734.426 528.1646,733.7466 L528.1646,737.7661 Q526.8342,738.3322 525.3906,738.6153 Q523.9753,738.8983 522.5883,738.8983 Z " fill="#000000"/><text fill="#000000" font-family="sans-serif" font-size="25.3623" lengthAdjust="spacing" textLength="105.0725" x="548.913" y="736.1992">Butterfly</text><line style="stroke:#181818;stroke-width:0.9057971014492754;" x1="498.1884" x2="657.6087" y1="755.3442" y2="755.3442"/><line style="stroke:#181818;stroke-width:0.9057971014492754;" x1="498.1884" x2="657.6087" y1="769.837" y2="769.837"/></g><!--reverse link Unit to MobileUnit--><g id="link_Unit_MobileUnit"><path codeLine="25" d="M480.6282,233.8813 C463.255,278.4828 454.3659,301.3043 436.9746,345.942 " fill="none" id="Unit-backto-MobileUnit" style="stroke:#181818;stroke-width:1.8115942028985508;"/><polygon fill="none" points="492.4638,203.4964,470.4999,229.9362,490.7565,237.8265,492.4638,203.4964" style="stroke:#181818;stroke-width:1.8115942028985508;"/><text fill="#000000" font-family="sans-serif" font-size="23.5507" lengthAdjust="spacing" textLength="86.9565" x="471.0145" y="284.6142">extends</text></g><!--reverse link Unit to Wall--><g id="link_Unit_Wall"><path codeLine="26" d="M576.6756,233.9362 C601.2771,297.9761 621.0145,349.3297 639.7101,397.9891 " fill="none" id="Unit-backto-Wall" style="stroke:#181818;stroke-width:1.8115942028985508;"/><polygon fill="none" points="564.9819,203.4964,566.529,237.8341,586.8222,230.0383,564.9819,203.4964" style="stroke:#181818;stroke-width:1.8115942028985508;"/><text fill="#000000" font-family="sans-serif" font-size="23.5507" lengthAdjust="spacing" textLength="86.9565" x="599.6377" y="284.6142">extends</text></g><!--reverse link MobileUnit to Unicorn--><g id="link_MobileUnit_Unicorn"><path codeLine="27" d="M326.901,565.7773 C298.8938,612.3896 282.7536,639.2754 258.3514,679.9094 " fill="none" id="MobileUnit-backto-Unicorn" style="stroke:#181818;stroke-width:1.8115942028985508;"/><polygon fill="none" points="343.6957,537.8261,317.584,560.1791,336.2181,571.3755,343.6957,537.8261" style="stroke:#181818;stroke-width:1.8115942028985508;"/><text fill="#000000" font-family="sans-serif" font-size="23.5507" lengthAdjust="spacing" textLength="86.9565" x="309.7826" y="618.3098">extends</text></g><!--reverse link MobileUnit to Butterfly--><g id="link_MobileUnit_Butterfly"><path codeLine="28" d="M473.8228,565.7778 C505.888,619.1473 527.6268,655.3261 552.4094,696.6123 " fill="none" id="MobileUnit-backto-Butterfly" style="stroke:#181818;stroke-width:1.8115942028985508;"/><polygon fill="none" points="457.029,537.8261,464.5055,571.3757,483.14,560.1798,457.029,537.8261" style="stroke:#181818;stroke-width:1.8115942028985508;"/><text fill="#000000" font-family="sans-serif" font-size="23.5507" lengthAdjust="spacing" textLength="86.9565" x="507.2464" y="618.3098">extends</text></g><!--SRC=[ZOun2y8m48Nt_eeRxL1m4K6ST7OISKwJQniy4aYkLb7_kp5H6nJ1yNZV-zvvAGXXFfl2e1LtHI5gpqv81ad2UzWPpN0fG1k63WK518vMAt3OefcKpqjXWqPDDhRMXB4Zc8Kye2kBsvSqmu9woqwR5gGbwz9GwgvjRrZPmNmi1b_Ix0LH4Bpl89JMcOVpdwTIQTKpesled4mHMrwhAdzo0NZYeF9P7CV78ADZ_FhbDp4EZymT]--></g></svg>