<?xml version="1.0" encoding="us-ascii" standalone="no"?><svg xmlns="http://www.w3.org/2000/svg" xmlns:xlink="http://www.w3.org/1999/xlink" contentStyleType="text/css" height="225px" preserveAspectRatio="none" style="width:251px;height:225px;background:#FFFFFF;" version="1.1" viewBox="0 0 251 225" width="251.7857px" zoomAndPan="magnify"><defs/><g><!--class Node--><g id="elem_Node"><rect codeLine="3" fill="#F1F1F1" height="187.8638" id="Node" rx="4.4643" ry="4.4643" style="stroke:#181818;stroke-width:0.8928571428571429;" width="214.2857" x="12.5" y="12.5"/><ellipse cx="81.0714" cy="41.0714" fill="#ADD1B2" rx="19.6429" ry="19.6429" style="stroke:#181818;stroke-width:1.7857142857142858;"/><path d="M80.1228,53.4319 Q76.9978,53.4319 74.9609,52.1205 Q72.952,50.7813 71.9475,48.3817 Q70.971,45.9542 70.971,42.7455 Q70.971,39.1183 72.1429,36.5234 Q73.3147,33.9286 75.6027,32.5335 Q77.8906,31.1384 81.2388,31.1384 Q82.8292,31.1384 84.029,31.4732 Q85.2288,31.7801 86.4565,32.394 L85.0056,35.9933 Q83.8895,35.4353 82.9129,35.2121 Q81.9643,34.9888 81.0993,34.9888 Q79.0067,34.9888 77.7511,35.9375 Q76.4955,36.8862 75.9654,38.5882 Q75.4353,40.2902 75.4353,42.5502 Q75.4353,46.1496 76.7188,47.8795 Q78.0022,49.5815 80.8482,49.5815 Q81.9085,49.5815 83.0246,49.3025 Q84.1406,49.0234 85.6194,48.3538 L85.6194,52.3158 Q84.308,52.8739 82.885,53.1529 Q81.49,53.4319 80.1228,53.4319 Z " fill="#000000"/><text fill="#000000" font-family="sans-serif" font-size="25" lengthAdjust="spacing" textLength="64.2857" x="115.3571" y="50.7714">Node</text><line style="stroke:#181818;stroke-width:0.8928571428571429;" x1="14.2857" x2="225" y1="69.6429" y2="69.6429"/><text fill="#000000" font-family="sans-serif" font-size="25" lengthAdjust="spacing" textLength="119.6429" x="23.2143" y="103.5106">char label</text><text fill="#000000" font-family="sans-serif" font-size="25" lengthAdjust="spacing" textLength="173.2143" x="23.2143" y="137.5604">Node leftChild</text><text fill="#000000" font-family="sans-serif" font-size="25" lengthAdjust="spacing" textLength="192.8571" x="23.2143" y="171.6103">Node rightChild</text><line style="stroke:#181818;stroke-width:0.8928571428571429;" x1="14.2857" x2="225" y1="186.0781" y2="186.0781"/></g><!--SRC=[AqvEp4bLC38rK2ZFJ2d9uE9ApaaiBbRmoqz9LQZcKaZEI2nIo4bCIirHu888vgIcbJXdPEQaGFb5cUaPK85QBW00]--></g></svg>