<?xml version="1.0" encoding="UTF-8" standalone="no"?>
<svg
   width="400"
   height="400"
   viewBox="0 0 400.00001 400.00001"
   version="1.1"
   id="svg7"
   xmlns="http://www.w3.org/2000/svg"
   xmlns:svg="http://www.w3.org/2000/svg">
  <defs
     id="defs1">
    <clipPath
       id="clip-0">
      <path
         clip-rule="nonzero"
         d="m 49,21 h 66.37891 V 95 H 49 Z m 0,0"
         id="path1" />
    </clipPath>
  </defs>
  <path
     fill="none"
     stroke-width="9.37197"
     stroke-linecap="butt"
     stroke-linejoin="miter"
     stroke="#000000"
     stroke-opacity="1"
     stroke-miterlimit="10"
     d="M 133.33333,400 V 0 M 0,266.66666 h 400"
     id="path2" />
  <path
     fill="none"
     stroke-width="9.37197"
     stroke-linecap="butt"
     stroke-linejoin="miter"
     stroke="#000000"
     stroke-opacity="1"
     stroke-miterlimit="10"
     d="M 266.66666,400 V 0 M 0,133.33333 h 400"
     id="path3" />
  <path
     fill="none"
     stroke-width="9.37197"
     stroke-linecap="butt"
     stroke-linejoin="miter"
     stroke="#000000"
     stroke-opacity="1"
     stroke-miterlimit="10"
     d="m 239.98897,66.67585 c 0,-22.102796 -17.89536,-39.998159 -39.99816,-39.998159 -22.08442,0 -39.99816,17.895363 -39.99816,39.998159 0,22.084427 17.91374,39.99816 39.99816,39.99816 22.1028,0 39.99816,-17.913733 39.99816,-39.99816 z m 0,0"
     id="path4" />
  <path
     fill="none"
     stroke-width="9.37197"
     stroke-linecap="butt"
     stroke-linejoin="miter"
     stroke="#000000"
     stroke-opacity="1"
     stroke-miterlimit="10"
     d="m 106.67401,199.99081 c 0,-22.08442 -17.913737,-39.99816 -39.998159,-39.99816 -22.102796,0 -39.998159,17.91374 -39.998159,39.99816 0,22.1028 17.895363,39.99816 39.998159,39.99816 22.084422,0 39.998159,-17.89536 39.998159,-39.99816 z m 0,0"
     id="path5" />
  <path
     fill="none"
     stroke-width="9.37197"
     stroke-linecap="butt"
     stroke-linejoin="miter"
     stroke="#000000"
     stroke-opacity="1"
     stroke-miterlimit="10"
     d="m 159.99265,239.98897 79.99632,-79.99632 m -79.99632,0 79.99632,79.99632"
     id="path6" />
  <g
     clip-path="url(#clip-0)"
     id="g7"
     transform="matrix(4.7035047,0,0,4.7035047,-71.342614,-71.342615)">
    <path
       fill="none"
       stroke-width="1.99255"
       stroke-linecap="butt"
       stroke-linejoin="miter"
       stroke="#000000"
       stroke-opacity="1"
       stroke-miterlimit="10"
       d="m 62.36225,34.017594 17.007813,17.007812 m -17.007813,0 17.007813,-17.007812"
       transform="matrix(1,0,0,-1,15.169,100.209)"
       id="path7" />
  </g>
</svg>
